<ttFont>
    <TTGlyph name="A" xMin="-10" yMin="0" xMax="764" yMax="706">
      <contour>
        <pt x="764" y="0" on="1"/>
        <pt x="492" y="0" on="1"/>
        <pt x="492" y="44" on="1"/>
        <pt x="574" y="77" on="1"/>
        <pt x="503" y="254" on="1"/>
        <pt x="243" y="254" on="1"/>
        <pt x="172" y="77" on="1"/>
        <pt x="252" y="44" on="1"/>
        <pt x="252" y="0" on="1"/>
        <pt x="-10" y="0" on="1"/>
        <pt x="-10" y="44" on="1"/>
        <pt x="72" y="77" on="1"/>
        <pt x="318" y="706" on="1"/>
        <pt x="421" y="706" on="1"/>
        <pt x="677" y="77" on="1"/>
        <pt x="764" y="44" on="1"/>
      </contour>
      <contour>
        <pt x="477" y="322" on="1"/>
        <pt x="371" y="603" on="1"/>
        <pt x="269" y="322" on="1"/>
      </contour>
    </TTGlyph>
    <TTGlyph name="AE" xMin="-22" yMin="0" xMax="965" yMax="706">
      <contour>
        <pt x="965" y="0" on="1"/>
        <pt x="399" y="0" on="1"/>
        <pt x="399" y="44" on="1"/>
        <pt x="490" y="77" on="1"/>
        <pt x="490" y="254" on="1"/>
        <pt x="262" y="254" on="1"/>
        <pt x="155" y="77" on="1"/>
        <pt x="235" y="44" on="1"/>
        <pt x="235" y="0" on="1"/>
        <pt x="-22" y="0" on="1"/>
        <pt x="-22" y="44" on="1"/>
        <pt x="60" y="77" on="1"/>
        <pt x="434" y="706" on="1"/>
        <pt x="965" y="706" on="1"/>
        <pt x="965" y="544" on="1"/>
        <pt x="913" y="544" on="1"/>
        <pt x="880" y="630" on="1"/>
        <pt x="591" y="630" on="1"/>
        <pt x="591" y="392" on="1"/>
        <pt x="821" y="392" on="1"/>
        <pt x="840" y="450" on="1"/>
        <pt x="886" y="450" on="1"/>
        <pt x="886" y="253" on="1"/>
        <pt x="840" y="253" on="1"/>
        <pt x="821" y="320" on="1"/>
        <pt x="591" y="320" on="1"/>
        <pt x="591" y="76" on="1"/>
        <pt x="880" y="76" on="1"/>
        <pt x="913" y="162" on="1"/>
        <pt x="965" y="162" on="1"/>
      </contour>
      <contour>
        <pt x="490" y="322" on="1"/>
        <pt x="490" y="629" on="1"/>
        <pt x="304" y="322" on="1"/>
      </contour>
    </TTGlyph>
    <TTGlyph name="Aacute" xMin="-10" yMin="0" xMax="764" yMax="990">
      <contour>
        <pt x="764" y="0" on="1"/>
        <pt x="492" y="0" on="1"/>
        <pt x="492" y="44" on="1"/>
        <pt x="574" y="77" on="1"/>
        <pt x="503" y="254" on="1"/>
        <pt x="243" y="254" on="1"/>
        <pt x="172" y="77" on="1"/>
        <pt x="252" y="44" on="1"/>
        <pt x="252" y="0" on="1"/>
        <pt x="-10" y="0" on="1"/>
        <pt x="-10" y="44" on="1"/>
        <pt x="72" y="77" on="1"/>
        <pt x="318" y="706" on="1"/>
        <pt x="421" y="706" on="1"/>
        <pt x="677" y="77" on="1"/>
        <pt x="764" y="44" on="1"/>
      </contour>
      <contour>
        <pt x="477" y="322" on="1"/>
        <pt x="371" y="603" on="1"/>
        <pt x="269" y="322" on="1"/>
      </contour>
      <contour>
        <pt x="417" y="801" on="1"/>
        <pt x="328" y="801" on="1"/>
        <pt x="429" y="990" on="1"/>
        <pt x="546" y="990" on="1"/>
      </contour>
    </TTGlyph>
    <TTGlyph name="Acircumflex" xMin="-10" yMin="0" xMax="764" yMax="990">
      <component glyphName="A" x="0" y="0" flags="0x1004"/>
      <component glyphName="circumflex" x="161" y="206" flags="0x1004"/>
    </TTGlyph>
    <TTGlyph name="Adieresis" xMin="-10" yMin="0" xMax="764" yMax="904">
      <component glyphName="A" x="0" y="0" flags="0x1004"/>
      <component glyphName="dieresis" x="156" y="206" flags="0x1004"/>
    </TTGlyph>
    <TTGlyph name="Agrave" xMin="-10" yMin="0" xMax="764" yMax="990">
      <component glyphName="A" x="0" y="0" flags="0x1004"/>
      <component glyphName="grave" x="161" y="206" flags="0x1004"/>
    </TTGlyph>
    <TTGlyph name="Aring" xMin="-10" yMin="0" xMax="764" yMax="953">
      <contour>
        <pt x="764" y="0" on="1"/>
        <pt x="492" y="0" on="1"/>
        <pt x="492" y="44" on="1"/>
        <pt x="574" y="77" on="1"/>
        <pt x="503" y="254" on="1"/>
        <pt x="243" y="254" on="1"/>
        <pt x="172" y="77" on="1"/>
        <pt x="252" y="44" on="1"/>
        <pt x="252" y="0" on="1"/>
        <pt x="-10" y="0" on="1"/>
        <pt x="-10" y="44" on="1"/>
        <pt x="72" y="77" on="1"/>
        <pt x="318" y="706" on="1"/>
        <pt x="421" y="706" on="1"/>
        <pt x="677" y="77" on="1"/>
        <pt x="764" y="44" on="1"/>
      </contour>
      <contour>
        <pt x="477" y="322" on="1"/>
        <pt x="371" y="603" on="1"/>
        <pt x="269" y="322" on="1"/>
      </contour>
      <contour>
        <pt x="413" y="775" on="0"/>
        <pt x="337" y="775" on="0"/>
        <pt x="286" y="826" on="0"/>
        <pt x="286" y="902" on="0"/>
        <pt x="337" y="953" on="0"/>
        <pt x="413" y="953" on="0"/>
        <pt x="464" y="902" on="0"/>
        <pt x="464" y="826" on="0"/>
      </contour>
      <contour>
        <pt x="414" y="847" on="0"/>
        <pt x="414" y="881" on="0"/>
        <pt x="392" y="903" on="0"/>
        <pt x="357" y="903" on="0"/>
        <pt x="336" y="881" on="0"/>
        <pt x="336" y="847" on="0"/>
        <pt x="357" y="825" on="0"/>
        <pt x="392" y="825" on="0"/>
      </contour>
    </TTGlyph>
    <TTGlyph name="Atilde" xMin="-10" yMin="0" xMax="764" yMax="936">
      <contour>
        <pt x="764" y="0" on="1"/>
        <pt x="492" y="0" on="1"/>
        <pt x="492" y="44" on="1"/>
        <pt x="574" y="77" on="1"/>
        <pt x="503" y="254" on="1"/>
        <pt x="243" y="254" on="1"/>
        <pt x="172" y="77" on="1"/>
        <pt x="252" y="44" on="1"/>
        <pt x="252" y="0" on="1"/>
        <pt x="-10" y="0" on="1"/>
        <pt x="-10" y="44" on="1"/>
        <pt x="72" y="77" on="1"/>
        <pt x="318" y="706" on="1"/>
        <pt x="421" y="706" on="1"/>
        <pt x="677" y="77" on="1"/>
        <pt x="764" y="44" on="1"/>
      </contour>
      <contour>
        <pt x="477" y="322" on="1"/>
        <pt x="371" y="603" on="1"/>
        <pt x="269" y="322" on="1"/>
      </contour>
      <contour>
        <pt x="518" y="844" on="0"/>
        <pt x="452" y="802" on="0"/>
        <pt x="395" y="802" on="0"/>
        <pt x="308" y="854" on="0"/>
        <pt x="290" y="854" on="1"/>
        <pt x="258" y="854" on="0"/>
        <pt x="222" y="820" on="1"/>
        <pt x="209" y="809" on="1"/>
        <pt x="172" y="849" on="1"/>
        <pt x="170" y="849" on="0"/>
        <pt x="206" y="892" on="0"/>
        <pt x="271" y="936" on="0"/>
        <pt x="328" y="936" on="0"/>
        <pt x="415" y="884" on="0"/>
        <pt x="432" y="884" on="1"/>
        <pt x="465" y="884" on="0"/>
        <pt x="502" y="918" on="1"/>
        <pt x="514" y="929" on="1"/>
        <pt x="554" y="887" on="1"/>
        <pt x="556" y="887" on="0"/>
      </contour>
    </TTGlyph>
    <TTGlyph name="B" xMin="51" yMin="0" xMax="632" yMax="706">
      <contour>
        <pt x="398" y="0" on="1"/>
        <pt x="51" y="0" on="1"/>
        <pt x="51" y="44" on="1"/>
        <pt x="142" y="77" on="1"/>
        <pt x="142" y="629" on="1"/>
        <pt x="51" y="662" on="1"/>
        <pt x="51" y="706" on="1"/>
        <pt x="344" y="706" on="1"/>
        <pt x="478" y="706" on="0"/>
        <pt x="542" y="628" on="1"/>
        <pt x="578" y="584" on="0"/>
        <pt x="578" y="520" on="1"/>
        <pt x="578" y="426" on="0"/>
        <pt x="514" y="377" on="1"/>
        <pt x="632" y="334" on="0"/>
        <pt x="632" y="203" on="1"/>
        <pt x="632" y="149" on="0"/>
        <pt x="588" y="67" on="0"/>
        <pt x="552" y="44" on="1"/>
        <pt x="482" y="0" on="0"/>
      </contour>
      <contour>
        <pt x="243" y="75" on="1"/>
        <pt x="351" y="75" on="1"/>
        <pt x="443" y="75" on="0"/>
        <pt x="534" y="131" on="0"/>
        <pt x="534" y="269" on="0"/>
        <pt x="456" y="329" on="0"/>
        <pt x="395" y="329" on="1"/>
        <pt x="243" y="329" on="1"/>
      </contour>
      <contour>
        <pt x="244" y="395" on="1"/>
        <pt x="341" y="395" on="1"/>
        <pt x="480" y="395" on="0"/>
        <pt x="480" y="519" on="1"/>
        <pt x="480" y="583" on="0"/>
        <pt x="388" y="631" on="0"/>
        <pt x="297" y="631" on="1"/>
        <pt x="244" y="631" on="1"/>
      </contour>
    </TTGlyph>
    <TTGlyph name="C" xMin="54" yMin="-11" xMax="643" yMax="716">
      <contour>
        <pt x="643" y="68" on="1"/>
        <pt x="538" y="-11" on="0"/>
        <pt x="394" y="-11" on="1"/>
        <pt x="259" y="-11" on="0"/>
        <pt x="160" y="76" on="1"/>
        <pt x="112" y="118" on="0"/>
        <pt x="54" y="255" on="0"/>
        <pt x="54" y="429" on="0"/>
        <pt x="115" y="575" on="0"/>
        <pt x="166" y="621" on="1"/>
        <pt x="271" y="716" on="0"/>
        <pt x="412" y="716" on="1"/>
        <pt x="518" y="716" on="0"/>
        <pt x="597" y="673" on="1"/>
        <pt x="597" y="510" on="1"/>
        <pt x="515" y="510" on="1"/>
        <pt x="497" y="614" on="1"/>
        <pt x="477" y="636" on="0"/>
        <pt x="414" y="636" on="1"/>
        <pt x="295" y="636" on="0"/>
        <pt x="159" y="470" on="0"/>
        <pt x="159" y="219" on="0"/>
        <pt x="300" y="70" on="0"/>
        <pt x="408" y="70" on="1"/>
        <pt x="459" y="70" on="0"/>
        <pt x="559" y="100" on="0"/>
        <pt x="583" y="115" on="1"/>
        <pt x="607" y="130" on="1"/>
      </contour>
    </TTGlyph>
    <TTGlyph name="Ccedilla" xMin="54" yMin="-180" xMax="643" yMax="716">
      <contour>
        <pt x="412" y="716" on="1"/>
        <pt x="518" y="716" on="0"/>
        <pt x="597" y="673" on="1"/>
        <pt x="597" y="510" on="1"/>
        <pt x="515" y="510" on="1"/>
        <pt x="497" y="614" on="1"/>
        <pt x="477" y="636" on="0"/>
        <pt x="414" y="636" on="1"/>
        <pt x="295" y="636" on="0"/>
        <pt x="159" y="470" on="0"/>
        <pt x="159" y="219" on="0"/>
        <pt x="300" y="70" on="0"/>
        <pt x="408" y="70" on="1"/>
        <pt x="459" y="70" on="0"/>
        <pt x="559" y="100" on="0"/>
        <pt x="583" y="115" on="1"/>
        <pt x="607" y="130" on="1"/>
        <pt x="643" y="68" on="1"/>
        <pt x="639" y="65" on="0"/>
        <pt x="626" y="54" on="0"/>
        <pt x="579" y="28" on="0"/>
        <pt x="552" y="18" on="1"/>
        <pt x="486" y="-9" on="0"/>
        <pt x="399" y="-11" on="1"/>
        <pt x="390" y="-34" on="1"/>
        <pt x="417" y="-35" on="0"/>
        <pt x="455" y="-71" on="0"/>
        <pt x="455" y="-140" on="0"/>
        <pt x="404" y="-180" on="0"/>
        <pt x="372" y="-180" on="1"/>
        <pt x="317" y="-180" on="0"/>
        <pt x="292" y="-154" on="1"/>
        <pt x="283" y="-146" on="1"/>
        <pt x="304" y="-111" on="1"/>
        <pt x="327" y="-136" on="0"/>
        <pt x="405" y="-136" on="0"/>
        <pt x="405" y="-102" on="1"/>
        <pt x="405" y="-64" on="0"/>
        <pt x="333" y="-64" on="1"/>
        <pt x="354" y="-9" on="1"/>
        <pt x="227" y="5" on="0"/>
        <pt x="54" y="186" on="0"/>
        <pt x="54" y="339" on="1"/>
        <pt x="54" y="429" on="0"/>
        <pt x="115" y="575" on="0"/>
        <pt x="166" y="621" on="1"/>
        <pt x="271" y="716" on="0"/>
      </contour>
    </TTGlyph>
    <TTGlyph name="D" xMin="51" yMin="0" xMax="724" yMax="706">
      <contour>
        <pt x="359" y="0" on="1"/>
        <pt x="51" y="0" on="1"/>
        <pt x="51" y="44" on="1"/>
        <pt x="142" y="77" on="1"/>
        <pt x="142" y="629" on="1"/>
        <pt x="51" y="662" on="1"/>
        <pt x="51" y="706" on="1"/>
        <pt x="360" y="706" on="1"/>
        <pt x="522" y="706" on="0"/>
        <pt x="724" y="514" on="0"/>
        <pt x="724" y="194" on="0"/>
        <pt x="521" y="0" on="0"/>
      </contour>
      <contour>
        <pt x="243" y="74" on="1"/>
        <pt x="371" y="74" on="1"/>
        <pt x="479" y="74" on="0"/>
        <pt x="618" y="221" on="0"/>
        <pt x="618" y="483" on="0"/>
        <pt x="478" y="632" on="0"/>
        <pt x="371" y="632" on="1"/>
        <pt x="243" y="632" on="1"/>
      </contour>
    </TTGlyph>
    <TTGlyph name="E" xMin="51" yMin="0" xMax="617" yMax="706">
      <contour>
        <pt x="617" y="0" on="1"/>
        <pt x="51" y="0" on="1"/>
        <pt x="51" y="44" on="1"/>
        <pt x="142" y="77" on="1"/>
        <pt x="142" y="629" on="1"/>
        <pt x="51" y="662" on="1"/>
        <pt x="51" y="706" on="1"/>
        <pt x="617" y="706" on="1"/>
        <pt x="617" y="544" on="1"/>
        <pt x="565" y="544" on="1"/>
        <pt x="532" y="630" on="1"/>
        <pt x="243" y="630" on="1"/>
        <pt x="243" y="392" on="1"/>
        <pt x="473" y="392" on="1"/>
        <pt x="492" y="450" on="1"/>
        <pt x="538" y="450" on="1"/>
        <pt x="538" y="253" on="1"/>
        <pt x="492" y="253" on="1"/>
        <pt x="473" y="320" on="1"/>
        <pt x="243" y="320" on="1"/>
        <pt x="243" y="76" on="1"/>
        <pt x="532" y="76" on="1"/>
        <pt x="565" y="162" on="1"/>
        <pt x="617" y="162" on="1"/>
      </contour>
    </TTGlyph>
    <TTGlyph name="Eacute" xMin="51" yMin="0" xMax="617" yMax="990">
      <contour>
        <pt x="617" y="0" on="1"/>
        <pt x="51" y="0" on="1"/>
        <pt x="51" y="44" on="1"/>
        <pt x="142" y="77" on="1"/>
        <pt x="142" y="629" on="1"/>
        <pt x="51" y="662" on="1"/>
        <pt x="51" y="706" on="1"/>
        <pt x="617" y="706" on="1"/>
        <pt x="617" y="544" on="1"/>
        <pt x="565" y="544" on="1"/>
        <pt x="532" y="630" on="1"/>
        <pt x="243" y="630" on="1"/>
        <pt x="243" y="392" on="1"/>
        <pt x="473" y="392" on="1"/>
        <pt x="492" y="450" on="1"/>
        <pt x="538" y="450" on="1"/>
        <pt x="538" y="253" on="1"/>
        <pt x="492" y="253" on="1"/>
        <pt x="473" y="320" on="1"/>
        <pt x="243" y="320" on="1"/>
        <pt x="243" y="76" on="1"/>
        <pt x="532" y="76" on="1"/>
        <pt x="565" y="162" on="1"/>
        <pt x="617" y="162" on="1"/>
      </contour>
      <contour>
        <pt x="375" y="801" on="1"/>
        <pt x="286" y="801" on="1"/>
        <pt x="387" y="990" on="1"/>
        <pt x="504" y="990" on="1"/>
      </contour>
    </TTGlyph>
    <TTGlyph name="Ecircumflex" xMin="51" yMin="0" xMax="617" yMax="990">
      <component glyphName="E" x="0" y="0" flags="0x1004"/>
      <component glyphName="circumflex" x="125" y="206" flags="0x1004"/>
    </TTGlyph>
    <TTGlyph name="Edieresis" xMin="51" yMin="0" xMax="617" yMax="904">
      <contour>
        <pt x="617" y="0" on="1"/>
        <pt x="51" y="0" on="1"/>
        <pt x="51" y="44" on="1"/>
        <pt x="142" y="77" on="1"/>
        <pt x="142" y="629" on="1"/>
        <pt x="51" y="662" on="1"/>
        <pt x="51" y="706" on="1"/>
        <pt x="617" y="706" on="1"/>
        <pt x="617" y="544" on="1"/>
        <pt x="565" y="544" on="1"/>
        <pt x="532" y="630" on="1"/>
        <pt x="243" y="630" on="1"/>
        <pt x="243" y="392" on="1"/>
        <pt x="473" y="392" on="1"/>
        <pt x="492" y="450" on="1"/>
        <pt x="538" y="450" on="1"/>
        <pt x="538" y="253" on="1"/>
        <pt x="492" y="253" on="1"/>
        <pt x="473" y="320" on="1"/>
        <pt x="243" y="320" on="1"/>
        <pt x="243" y="76" on="1"/>
        <pt x="532" y="76" on="1"/>
        <pt x="565" y="162" on="1"/>
        <pt x="617" y="162" on="1"/>
      </contour>
      <contour>
        <pt x="300" y="868" on="0"/>
        <pt x="300" y="818" on="0"/>
        <pt x="265" y="783" on="0"/>
        <pt x="214" y="783" on="0"/>
        <pt x="179" y="818" on="0"/>
        <pt x="179" y="869" on="0"/>
        <pt x="214" y="904" on="0"/>
        <pt x="264" y="904" on="0"/>
      </contour>
      <contour>
        <pt x="516" y="868" on="0"/>
        <pt x="516" y="818" on="0"/>
        <pt x="481" y="783" on="0"/>
        <pt x="430" y="783" on="0"/>
        <pt x="395" y="818" on="0"/>
        <pt x="395" y="869" on="0"/>
        <pt x="430" y="904" on="0"/>
        <pt x="480" y="904" on="0"/>
      </contour>
    </TTGlyph>
    <TTGlyph name="Egrave" xMin="51" yMin="0" xMax="617" yMax="990">
      <component glyphName="E" x="0" y="0" flags="0x1004"/>
      <component glyphName="grave" x="203" y="206" flags="0x1004"/>
    </TTGlyph>
    <TTGlyph name="Eth" xMin="51" yMin="0" xMax="724" yMax="706">
      <contour>
        <pt x="359" y="0" on="1"/>
        <pt x="51" y="0" on="1"/>
        <pt x="51" y="44" on="1"/>
        <pt x="142" y="77" on="1"/>
        <pt x="142" y="629" on="1"/>
        <pt x="51" y="662" on="1"/>
        <pt x="51" y="706" on="1"/>
        <pt x="360" y="706" on="1"/>
        <pt x="522" y="706" on="0"/>
        <pt x="724" y="514" on="0"/>
        <pt x="724" y="194" on="0"/>
        <pt x="521" y="0" on="0"/>
      </contour>
      <contour>
        <pt x="243" y="74" on="1"/>
        <pt x="371" y="74" on="1"/>
        <pt x="479" y="74" on="0"/>
        <pt x="618" y="221" on="0"/>
        <pt x="618" y="483" on="0"/>
        <pt x="478" y="632" on="0"/>
        <pt x="371" y="632" on="1"/>
        <pt x="243" y="632" on="1"/>
        <pt x="243" y="375" on="1"/>
        <pt x="406" y="375" on="1"/>
        <pt x="406" y="312" on="1"/>
        <pt x="243" y="312" on="1"/>
      </contour>
    </TTGlyph>
    <TTGlyph name="Euro" xMin="53" yMin="-11" xMax="723" yMax="716">
      <contour>
        <pt x="723" y="68" on="1"/>
        <pt x="618" y="-11" on="0"/>
        <pt x="474" y="-11" on="1"/>
        <pt x="362" y="-11" on="0"/>
        <pt x="180" y="114" on="0"/>
        <pt x="148" y="230" on="1"/>
        <pt x="54" y="230" on="1"/>
        <pt x="54" y="301" on="1"/>
        <pt x="440" y="301" on="1"/>
        <pt x="440" y="230" on="1"/>
        <pt x="257" y="230" on="1"/>
        <pt x="285" y="155" on="0"/>
        <pt x="407" y="70" on="0"/>
        <pt x="488" y="70" on="1"/>
        <pt x="539" y="70" on="0"/>
        <pt x="639" y="100" on="0"/>
        <pt x="663" y="115" on="1"/>
        <pt x="687" y="130" on="1"/>
      </contour>
      <contour>
        <pt x="500" y="377" on="1"/>
        <pt x="53" y="377" on="1"/>
        <pt x="53" y="448" on="1"/>
        <pt x="147" y="448" on="1"/>
        <pt x="179" y="575" on="0"/>
        <pt x="373" y="716" on="0"/>
        <pt x="492" y="716" on="1"/>
        <pt x="549" y="716" on="0"/>
        <pt x="645" y="682" on="0"/>
        <pt x="664" y="665" on="1"/>
        <pt x="684" y="648" on="1"/>
        <pt x="629" y="591" on="1"/>
        <pt x="610" y="610" on="0"/>
        <pt x="532" y="641" on="0"/>
        <pt x="494" y="641" on="1"/>
        <pt x="401" y="641" on="0"/>
        <pt x="277" y="537" on="0"/>
        <pt x="252" y="448" on="1"/>
        <pt x="500" y="448" on="1"/>
      </contour>
    </TTGlyph>
    <TTGlyph name="F" xMin="52" yMin="0" xMax="618" yMax="706">
      <contour>
        <pt x="335" y="0" on="1"/>
        <pt x="52" y="0" on="1"/>
        <pt x="52" y="54" on="1"/>
        <pt x="143" y="87" on="1"/>
        <pt x="143" y="629" on="1"/>
        <pt x="52" y="662" on="1"/>
        <pt x="52" y="706" on="1"/>
        <pt x="618" y="706" on="1"/>
        <pt x="618" y="544" on="1"/>
        <pt x="566" y="544" on="1"/>
        <pt x="533" y="630" on="1"/>
        <pt x="244" y="630" on="1"/>
        <pt x="244" y="392" on="1"/>
        <pt x="474" y="392" on="1"/>
        <pt x="493" y="450" on="1"/>
        <pt x="539" y="450" on="1"/>
        <pt x="539" y="253" on="1"/>
        <pt x="493" y="253" on="1"/>
        <pt x="474" y="320" on="1"/>
        <pt x="244" y="320" on="1"/>
        <pt x="244" y="87" on="1"/>
        <pt x="335" y="54" on="1"/>
      </contour>
    </TTGlyph>
    <TTGlyph name="G" xMin="54" yMin="-11" xMax="734" yMax="716">
      <contour>
        <pt x="420" y="716" on="1"/>
        <pt x="522" y="716" on="0"/>
        <pt x="629" y="673" on="1"/>
        <pt x="629" y="510" on="1"/>
        <pt x="557" y="510" on="1"/>
        <pt x="539" y="614" on="1"/>
        <pt x="485" y="636" on="0"/>
        <pt x="422" y="636" on="1"/>
        <pt x="302" y="636" on="0"/>
        <pt x="159" y="469" on="0"/>
        <pt x="159" y="219" on="0"/>
        <pt x="300" y="70" on="0"/>
        <pt x="408" y="70" on="1"/>
        <pt x="478" y="70" on="0"/>
        <pt x="550" y="103" on="1"/>
        <pt x="550" y="262" on="1"/>
        <pt x="451" y="295" on="1"/>
        <pt x="451" y="339" on="1"/>
        <pt x="734" y="339" on="1"/>
        <pt x="734" y="295" on="1"/>
        <pt x="643" y="262" on="1"/>
        <pt x="643" y="68" on="1"/>
        <pt x="575" y="17" on="0"/>
        <pt x="479" y="-2" on="1"/>
        <pt x="437" y="-11" on="0"/>
        <pt x="329" y="-11" on="0"/>
        <pt x="208" y="34" on="0"/>
        <pt x="112" y="118" on="0"/>
        <pt x="54" y="255" on="0"/>
        <pt x="54" y="429" on="0"/>
        <pt x="118" y="575" on="0"/>
        <pt x="170" y="621" on="1"/>
        <pt x="279" y="716" on="0"/>
      </contour>
    </TTGlyph>
    <TTGlyph name="H" xMin="51" yMin="0" xMax="779" yMax="706">
      <contour>
        <pt x="779" y="0" on="1"/>
        <pt x="496" y="0" on="1"/>
        <pt x="496" y="44" on="1"/>
        <pt x="587" y="77" on="1"/>
        <pt x="587" y="326" on="1"/>
        <pt x="243" y="326" on="1"/>
        <pt x="243" y="77" on="1"/>
        <pt x="334" y="44" on="1"/>
        <pt x="334" y="0" on="1"/>
        <pt x="51" y="0" on="1"/>
        <pt x="51" y="44" on="1"/>
        <pt x="142" y="77" on="1"/>
        <pt x="142" y="629" on="1"/>
        <pt x="51" y="662" on="1"/>
        <pt x="51" y="706" on="1"/>
        <pt x="334" y="706" on="1"/>
        <pt x="334" y="662" on="1"/>
        <pt x="243" y="629" on="1"/>
        <pt x="243" y="403" on="1"/>
        <pt x="587" y="403" on="1"/>
        <pt x="587" y="629" on="1"/>
        <pt x="496" y="662" on="1"/>
        <pt x="496" y="706" on="1"/>
        <pt x="779" y="706" on="1"/>
        <pt x="779" y="662" on="1"/>
        <pt x="688" y="629" on="1"/>
        <pt x="688" y="77" on="1"/>
        <pt x="779" y="44" on="1"/>
      </contour>
    </TTGlyph>
    <TTGlyph name="I" xMin="51" yMin="0" xMax="334" yMax="706">
      <contour>
        <pt x="334" y="0" on="1"/>
        <pt x="51" y="0" on="1"/>
        <pt x="51" y="44" on="1"/>
        <pt x="142" y="77" on="1"/>
        <pt x="142" y="629" on="1"/>
        <pt x="51" y="662" on="1"/>
        <pt x="51" y="706" on="1"/>
        <pt x="334" y="706" on="1"/>
        <pt x="334" y="662" on="1"/>
        <pt x="243" y="629" on="1"/>
        <pt x="243" y="77" on="1"/>
        <pt x="334" y="44" on="1"/>
      </contour>
    </TTGlyph>
    <TTGlyph name="Iacute" xMin="51" yMin="0" xMax="353" yMax="990">
      <contour>
        <pt x="334" y="0" on="1"/>
        <pt x="51" y="0" on="1"/>
        <pt x="51" y="44" on="1"/>
        <pt x="142" y="77" on="1"/>
        <pt x="142" y="629" on="1"/>
        <pt x="51" y="662" on="1"/>
        <pt x="51" y="706" on="1"/>
        <pt x="334" y="706" on="1"/>
        <pt x="334" y="662" on="1"/>
        <pt x="243" y="629" on="1"/>
        <pt x="243" y="77" on="1"/>
        <pt x="334" y="44" on="1"/>
      </contour>
      <contour>
        <pt x="224" y="801" on="1"/>
        <pt x="135" y="801" on="1"/>
        <pt x="236" y="990" on="1"/>
        <pt x="353" y="990" on="1"/>
      </contour>
    </TTGlyph>
    <TTGlyph name="Icircumflex" xMin="24" yMin="0" xMax="344" yMax="990">
      <component glyphName="I" x="0" y="0" flags="0x1004"/>
      <component glyphName="circumflex" x="-26" y="206" flags="0x1004"/>
    </TTGlyph>
    <TTGlyph name="Idieresis" xMin="20" yMin="0" xMax="357" yMax="904">
      <contour>
        <pt x="334" y="0" on="1"/>
        <pt x="51" y="0" on="1"/>
        <pt x="51" y="44" on="1"/>
        <pt x="142" y="77" on="1"/>
        <pt x="142" y="629" on="1"/>
        <pt x="51" y="662" on="1"/>
        <pt x="51" y="706" on="1"/>
        <pt x="334" y="706" on="1"/>
        <pt x="334" y="662" on="1"/>
        <pt x="243" y="629" on="1"/>
        <pt x="243" y="77" on="1"/>
        <pt x="334" y="44" on="1"/>
      </contour>
      <contour>
        <pt x="141" y="868" on="0"/>
        <pt x="141" y="818" on="0"/>
        <pt x="106" y="783" on="0"/>
        <pt x="54" y="783" on="0"/>
        <pt x="20" y="818" on="0"/>
        <pt x="20" y="869" on="0"/>
        <pt x="55" y="904" on="0"/>
        <pt x="106" y="904" on="0"/>
      </contour>
      <contour>
        <pt x="357" y="868" on="0"/>
        <pt x="357" y="818" on="0"/>
        <pt x="322" y="783" on="0"/>
        <pt x="270" y="783" on="0"/>
        <pt x="236" y="818" on="0"/>
        <pt x="236" y="869" on="0"/>
        <pt x="271" y="904" on="0"/>
        <pt x="322" y="904" on="0"/>
      </contour>
    </TTGlyph>
    <TTGlyph name="Igrave" xMin="21" yMin="0" xMax="334" yMax="990">
      <component glyphName="I" x="0" y="0" flags="0x1004"/>
      <component glyphName="grave" x="-29" y="206" flags="0x1004"/>
    </TTGlyph>
    <TTGlyph name="J" xMin="13" yMin="-11" xMax="447" yMax="706">
      <contour>
        <pt x="255" y="229" on="1"/>
        <pt x="255" y="629" on="1"/>
        <pt x="164" y="662" on="1"/>
        <pt x="164" y="706" on="1"/>
        <pt x="447" y="706" on="1"/>
        <pt x="447" y="662" on="1"/>
        <pt x="356" y="629" on="1"/>
        <pt x="356" y="241" on="1"/>
        <pt x="356" y="117" on="0"/>
        <pt x="260" y="-11" on="0"/>
        <pt x="145" y="-11" on="1"/>
        <pt x="108" y="-11" on="0"/>
        <pt x="42" y="9" on="0"/>
        <pt x="28" y="19" on="1"/>
        <pt x="13" y="29" on="1"/>
        <pt x="48" y="101" on="1"/>
        <pt x="85" y="67" on="0"/>
        <pt x="204" y="67" on="0"/>
        <pt x="255" y="141" on="0"/>
      </contour>
    </TTGlyph>
    <TTGlyph name="K" xMin="51" yMin="0" xMax="757" yMax="706">
      <contour>
        <pt x="757" y="0" on="1"/>
        <pt x="489" y="0" on="1"/>
        <pt x="489" y="48" on="1"/>
        <pt x="553" y="74" on="1"/>
        <pt x="243" y="340" on="1"/>
        <pt x="243" y="77" on="1"/>
        <pt x="334" y="44" on="1"/>
        <pt x="334" y="0" on="1"/>
        <pt x="51" y="0" on="1"/>
        <pt x="51" y="44" on="1"/>
        <pt x="142" y="77" on="1"/>
        <pt x="142" y="629" on="1"/>
        <pt x="51" y="662" on="1"/>
        <pt x="51" y="706" on="1"/>
        <pt x="334" y="706" on="1"/>
        <pt x="334" y="662" on="1"/>
        <pt x="243" y="629" on="1"/>
        <pt x="243" y="375" on="1"/>
        <pt x="512" y="630" on="1"/>
        <pt x="444" y="658" on="1"/>
        <pt x="444" y="706" on="1"/>
        <pt x="704" y="706" on="1"/>
        <pt x="704" y="658" on="1"/>
        <pt x="621" y="624" on="1"/>
        <pt x="355" y="367" on="1"/>
        <pt x="672" y="82" on="1"/>
        <pt x="757" y="48" on="1"/>
      </contour>
    </TTGlyph>
    <TTGlyph name="L" xMin="51" yMin="0" xMax="617" yMax="706">
      <contour>
        <pt x="617" y="0" on="1"/>
        <pt x="51" y="0" on="1"/>
        <pt x="51" y="44" on="1"/>
        <pt x="142" y="77" on="1"/>
        <pt x="142" y="629" on="1"/>
        <pt x="51" y="662" on="1"/>
        <pt x="51" y="706" on="1"/>
        <pt x="334" y="706" on="1"/>
        <pt x="334" y="662" on="1"/>
        <pt x="243" y="629" on="1"/>
        <pt x="243" y="76" on="1"/>
        <pt x="532" y="76" on="1"/>
        <pt x="565" y="162" on="1"/>
        <pt x="617" y="162" on="1"/>
      </contour>
    </TTGlyph>
    <TTGlyph name="Lslash" xMin="51" yMin="0" xMax="617" yMax="706">
      <contour>
        <pt x="617" y="0" on="1"/>
        <pt x="51" y="0" on="1"/>
        <pt x="51" y="44" on="1"/>
        <pt x="142" y="77" on="1"/>
        <pt x="142" y="278" on="1"/>
        <pt x="54" y="248" on="1"/>
        <pt x="54" y="320" on="1"/>
        <pt x="142" y="350" on="1"/>
        <pt x="142" y="629" on="1"/>
        <pt x="51" y="662" on="1"/>
        <pt x="51" y="706" on="1"/>
        <pt x="334" y="706" on="1"/>
        <pt x="334" y="662" on="1"/>
        <pt x="243" y="629" on="1"/>
        <pt x="243" y="384" on="1"/>
        <pt x="367" y="427" on="1"/>
        <pt x="367" y="355" on="1"/>
        <pt x="243" y="312" on="1"/>
        <pt x="243" y="76" on="1"/>
        <pt x="532" y="76" on="1"/>
        <pt x="565" y="162" on="1"/>
        <pt x="617" y="162" on="1"/>
      </contour>
    </TTGlyph>
    <TTGlyph name="M" xMin="20" yMin="0" xMax="914" yMax="706">
      <contour>
        <pt x="914" y="0" on="1"/>
        <pt x="620" y="0" on="1"/>
        <pt x="620" y="54" on="1"/>
        <pt x="711" y="92" on="1"/>
        <pt x="671" y="595" on="1"/>
        <pt x="519" y="0" on="1"/>
        <pt x="415" y="0" on="1"/>
        <pt x="263" y="595" on="1"/>
        <pt x="223" y="92" on="1"/>
        <pt x="314" y="54" on="1"/>
        <pt x="314" y="0" on="1"/>
        <pt x="20" y="0" on="1"/>
        <pt x="20" y="57" on="1"/>
        <pt x="126" y="95" on="1"/>
        <pt x="186" y="611" on="1"/>
        <pt x="81" y="649" on="1"/>
        <pt x="81" y="706" on="1"/>
        <pt x="316" y="706" on="1"/>
        <pt x="460" y="129" on="1"/>
        <pt x="467" y="113" on="1"/>
        <pt x="474" y="129" on="1"/>
        <pt x="618" y="706" on="1"/>
        <pt x="851" y="706" on="1"/>
        <pt x="851" y="649" on="1"/>
        <pt x="747" y="612" on="1"/>
        <pt x="808" y="95" on="1"/>
        <pt x="914" y="57" on="1"/>
      </contour>
    </TTGlyph>
    <TTGlyph name="N" xMin="51" yMin="0" xMax="751" yMax="706">
      <contour>
        <pt x="660" y="0" on="1"/>
        <pt x="568" y="0" on="1"/>
        <pt x="243" y="557" on="1"/>
        <pt x="243" y="77" on="1"/>
        <pt x="312" y="44" on="1"/>
        <pt x="312" y="0" on="1"/>
        <pt x="51" y="0" on="1"/>
        <pt x="51" y="44" on="1"/>
        <pt x="142" y="77" on="1"/>
        <pt x="142" y="629" on="1"/>
        <pt x="51" y="662" on="1"/>
        <pt x="51" y="706" on="1"/>
        <pt x="256" y="706" on="1"/>
        <pt x="559" y="184" on="1"/>
        <pt x="559" y="629" on="1"/>
        <pt x="490" y="662" on="1"/>
        <pt x="490" y="706" on="1"/>
        <pt x="751" y="706" on="1"/>
        <pt x="751" y="662" on="1"/>
        <pt x="660" y="629" on="1"/>
      </contour>
    </TTGlyph>
    <TTGlyph name="Ntilde" xMin="51" yMin="0" xMax="751" yMax="936">
      <component glyphName="N" x="0" y="0" flags="0x1004"/>
      <component glyphName="tilde" x="166" y="206" flags="0x1004"/>
    </TTGlyph>
    <TTGlyph name="O" xMin="54" yMin="-10" xMax="738" yMax="715">
      <contour>
        <pt x="535" y="-10" on="0"/>
        <pt x="255" y="-10" on="0"/>
        <pt x="54" y="189" on="0"/>
        <pt x="54" y="512" on="0"/>
        <pt x="256" y="715" on="0"/>
        <pt x="534" y="715" on="0"/>
        <pt x="738" y="512" on="0"/>
        <pt x="738" y="189" on="0"/>
      </contour>
      <contour>
        <pt x="163" y="232" on="0"/>
        <pt x="288" y="70" on="0"/>
        <pt x="503" y="70" on="0"/>
        <pt x="627" y="232" on="0"/>
        <pt x="627" y="469" on="0"/>
        <pt x="503" y="634" on="0"/>
        <pt x="286" y="634" on="0"/>
        <pt x="163" y="469" on="0"/>
      </contour>
    </TTGlyph>
    <TTGlyph name="OE" xMin="54" yMin="0" xMax="870" yMax="706">
      <contour>
        <pt x="870" y="0" on="1"/>
        <pt x="395" y="0" on="1"/>
        <pt x="255" y="0" on="0"/>
        <pt x="54" y="193" on="0"/>
        <pt x="54" y="507" on="0"/>
        <pt x="256" y="706" on="0"/>
        <pt x="395" y="706" on="1"/>
        <pt x="870" y="706" on="1"/>
        <pt x="870" y="544" on="1"/>
        <pt x="818" y="544" on="1"/>
        <pt x="785" y="630" on="1"/>
        <pt x="496" y="630" on="1"/>
        <pt x="496" y="392" on="1"/>
        <pt x="726" y="392" on="1"/>
        <pt x="745" y="450" on="1"/>
        <pt x="791" y="450" on="1"/>
        <pt x="791" y="253" on="1"/>
        <pt x="745" y="253" on="1"/>
        <pt x="726" y="320" on="1"/>
        <pt x="496" y="320" on="1"/>
        <pt x="496" y="76" on="1"/>
        <pt x="785" y="76" on="1"/>
        <pt x="818" y="162" on="1"/>
        <pt x="870" y="162" on="1"/>
      </contour>
      <contour>
        <pt x="395" y="80" on="1"/>
        <pt x="395" y="625" on="1"/>
        <pt x="285" y="624" on="0"/>
        <pt x="158" y="464" on="0"/>
        <pt x="158" y="237" on="0"/>
        <pt x="285" y="80" on="0"/>
      </contour>
    </TTGlyph>
    <TTGlyph name="Oacute" xMin="54" yMin="-10" xMax="738" yMax="990">
      <contour>
        <pt x="535" y="-10" on="0"/>
        <pt x="255" y="-10" on="0"/>
        <pt x="54" y="189" on="0"/>
        <pt x="54" y="512" on="0"/>
        <pt x="256" y="715" on="0"/>
        <pt x="534" y="715" on="0"/>
        <pt x="738" y="512" on="0"/>
        <pt x="738" y="189" on="0"/>
      </contour>
      <contour>
        <pt x="163" y="232" on="0"/>
        <pt x="288" y="70" on="0"/>
        <pt x="503" y="70" on="0"/>
        <pt x="627" y="232" on="0"/>
        <pt x="627" y="469" on="0"/>
        <pt x="503" y="634" on="0"/>
        <pt x="286" y="634" on="0"/>
        <pt x="163" y="469" on="0"/>
      </contour>
      <contour>
        <pt x="420" y="801" on="1"/>
        <pt x="331" y="801" on="1"/>
        <pt x="432" y="990" on="1"/>
        <pt x="549" y="990" on="1"/>
      </contour>
    </TTGlyph>
    <TTGlyph name="Ocircumflex" xMin="54" yMin="-10" xMax="738" yMax="990">
      <component glyphName="O" x="0" y="0" flags="0x1004"/>
      <component glyphName="circumflex" x="169" y="206" flags="0x1004"/>
    </TTGlyph>
    <TTGlyph name="Odieresis" xMin="54" yMin="-10" xMax="738" yMax="904">
      <component glyphName="O" x="0" y="0" flags="0x1004"/>
      <component glyphName="dieresis" x="174" y="206" flags="0x1004"/>
    </TTGlyph>
    <TTGlyph name="Ograve" xMin="54" yMin="-10" xMax="738" yMax="990">
      <component glyphName="O" x="0" y="0" flags="0x1004"/>
      <component glyphName="grave" x="248" y="206" flags="0x1004"/>
    </TTGlyph>
    <TTGlyph name="Oslash" xMin="54" yMin="-11" xMax="738" yMax="715">
      <contour>
        <pt x="175" y="70" on="1"/>
        <pt x="54" y="173" on="0"/>
        <pt x="54" y="512" on="0"/>
        <pt x="256" y="715" on="0"/>
        <pt x="395" y="715" on="1"/>
        <pt x="465" y="715" on="0"/>
        <pt x="537" y="683" on="1"/>
        <pt x="556" y="715" on="1"/>
        <pt x="649" y="715" on="1"/>
        <pt x="605" y="641" on="1"/>
        <pt x="667" y="592" on="0"/>
        <pt x="738" y="442" on="0"/>
        <pt x="738" y="350" on="1"/>
        <pt x="738" y="189" on="0"/>
        <pt x="535" y="-10" on="0"/>
        <pt x="395" y="-10" on="1"/>
        <pt x="313" y="-10" on="0"/>
        <pt x="242" y="26" on="1"/>
        <pt x="220" y="-11" on="1"/>
        <pt x="127" y="-11" on="1"/>
      </contour>
      <contour>
        <pt x="396" y="70" on="1"/>
        <pt x="506" y="70" on="0"/>
        <pt x="632" y="232" on="0"/>
        <pt x="632" y="481" on="0"/>
        <pt x="559" y="562" on="1"/>
        <pt x="284" y="98" on="1"/>
        <pt x="334" y="70" on="0"/>
      </contour>
      <contour>
        <pt x="394" y="634" on="1"/>
        <pt x="283" y="634" on="0"/>
        <pt x="158" y="469" on="0"/>
        <pt x="158" y="229" on="0"/>
        <pt x="222" y="150" on="1"/>
        <pt x="494" y="611" on="1"/>
        <pt x="446" y="634" on="0"/>
      </contour>
    </TTGlyph>
    <TTGlyph name="Otilde" xMin="54" yMin="-10" xMax="738" yMax="936">
      <contour>
        <pt x="535" y="-10" on="0"/>
        <pt x="255" y="-10" on="0"/>
        <pt x="54" y="189" on="0"/>
        <pt x="54" y="512" on="0"/>
        <pt x="256" y="715" on="0"/>
        <pt x="534" y="715" on="0"/>
        <pt x="738" y="512" on="0"/>
        <pt x="738" y="189" on="0"/>
      </contour>
      <contour>
        <pt x="163" y="232" on="0"/>
        <pt x="288" y="70" on="0"/>
        <pt x="503" y="70" on="0"/>
        <pt x="627" y="232" on="0"/>
        <pt x="627" y="469" on="0"/>
        <pt x="503" y="634" on="0"/>
        <pt x="286" y="634" on="0"/>
        <pt x="163" y="469" on="0"/>
      </contour>
      <contour>
        <pt x="547" y="844" on="0"/>
        <pt x="481" y="802" on="0"/>
        <pt x="424" y="802" on="0"/>
        <pt x="337" y="854" on="0"/>
        <pt x="320" y="854" on="1"/>
        <pt x="287" y="854" on="0"/>
        <pt x="250" y="820" on="1"/>
        <pt x="238" y="809" on="1"/>
        <pt x="201" y="849" on="1"/>
        <pt x="199" y="849" on="0"/>
        <pt x="235" y="892" on="0"/>
        <pt x="300" y="936" on="0"/>
        <pt x="357" y="936" on="0"/>
        <pt x="444" y="884" on="0"/>
        <pt x="462" y="884" on="1"/>
        <pt x="494" y="884" on="0"/>
        <pt x="530" y="918" on="1"/>
        <pt x="543" y="929" on="1"/>
        <pt x="583" y="887" on="1"/>
        <pt x="585" y="887" on="0"/>
      </contour>
    </TTGlyph>
    <TTGlyph name="P" xMin="51" yMin="0" xMax="597" yMax="706">
      <contour>
        <pt x="334" y="0" on="1"/>
        <pt x="51" y="0" on="1"/>
        <pt x="51" y="44" on="1"/>
        <pt x="142" y="77" on="1"/>
        <pt x="142" y="629" on="1"/>
        <pt x="51" y="662" on="1"/>
        <pt x="51" y="706" on="1"/>
        <pt x="363" y="706" on="1"/>
        <pt x="455" y="706" on="0"/>
        <pt x="597" y="585" on="0"/>
        <pt x="597" y="366" on="0"/>
        <pt x="463" y="245" on="0"/>
        <pt x="363" y="245" on="1"/>
        <pt x="243" y="245" on="1"/>
        <pt x="243" y="77" on="1"/>
        <pt x="334" y="44" on="1"/>
      </contour>
      <contour>
        <pt x="244" y="318" on="1"/>
        <pt x="316" y="318" on="1"/>
        <pt x="394" y="318" on="0"/>
        <pt x="499" y="396" on="0"/>
        <pt x="499" y="476" on="1"/>
        <pt x="499" y="631" on="0"/>
        <pt x="316" y="631" on="1"/>
        <pt x="244" y="631" on="1"/>
      </contour>
    </TTGlyph>
    <TTGlyph name="Q" xMin="55" yMin="-173" xMax="739" yMax="715">
      <contour>
        <pt x="236" y="-2" on="0"/>
        <pt x="55" y="192" on="0"/>
        <pt x="55" y="514" on="0"/>
        <pt x="250" y="715" on="0"/>
        <pt x="543" y="715" on="0"/>
        <pt x="739" y="514" on="0"/>
        <pt x="739" y="350" on="1"/>
        <pt x="739" y="214" on="0"/>
        <pt x="592" y="29" on="0"/>
        <pt x="472" y="1" on="1"/>
        <pt x="520" y="-38" on="0"/>
        <pt x="580" y="-63" on="1"/>
        <pt x="672" y="-101" on="0"/>
        <pt x="722" y="-101" on="1"/>
        <pt x="702" y="-173" on="1"/>
        <pt x="642" y="-173" on="0"/>
        <pt x="529" y="-137" on="0"/>
        <pt x="488" y="-108" on="1"/>
        <pt x="420" y="-59" on="0"/>
        <pt x="376" y="-9" on="1"/>
      </contour>
      <contour>
        <pt x="159" y="224" on="0"/>
        <pt x="305" y="70" on="0"/>
        <pt x="500" y="70" on="0"/>
        <pt x="633" y="220" on="0"/>
        <pt x="633" y="481" on="0"/>
        <pt x="500" y="634" on="0"/>
        <pt x="290" y="634" on="0"/>
        <pt x="159" y="481" on="0"/>
      </contour>
    </TTGlyph>
    <TTGlyph name="R" xMin="51" yMin="0" xMax="701" yMax="706">
      <contour>
        <pt x="701" y="0" on="1"/>
        <pt x="438" y="0" on="1"/>
        <pt x="438" y="48" on="1"/>
        <pt x="502" y="74" on="1"/>
        <pt x="368" y="289" on="1"/>
        <pt x="243" y="289" on="1"/>
        <pt x="243" y="77" on="1"/>
        <pt x="334" y="44" on="1"/>
        <pt x="334" y="0" on="1"/>
        <pt x="51" y="0" on="1"/>
        <pt x="51" y="44" on="1"/>
        <pt x="142" y="77" on="1"/>
        <pt x="142" y="629" on="1"/>
        <pt x="51" y="662" on="1"/>
        <pt x="51" y="706" on="1"/>
        <pt x="363" y="706" on="1"/>
        <pt x="466" y="706" on="0"/>
        <pt x="597" y="602" on="0"/>
        <pt x="597" y="496" on="1"/>
        <pt x="597" y="355" on="0"/>
        <pt x="465" y="308" on="1"/>
        <pt x="610" y="81" on="1"/>
        <pt x="701" y="48" on="1"/>
      </contour>
      <contour>
        <pt x="244" y="362" on="1"/>
        <pt x="360" y="362" on="1"/>
        <pt x="420" y="362" on="0"/>
        <pt x="499" y="427" on="0"/>
        <pt x="499" y="567" on="0"/>
        <pt x="395" y="631" on="0"/>
        <pt x="316" y="631" on="1"/>
        <pt x="244" y="631" on="1"/>
      </contour>
    </TTGlyph>
    <TTGlyph name="S" xMin="67" yMin="-11" xMax="503" yMax="715">
      <contour>
        <pt x="67" y="190" on="1"/>
        <pt x="127" y="190" on="1"/>
        <pt x="155" y="97" on="1"/>
        <pt x="194" y="66" on="0"/>
        <pt x="282" y="66" on="1"/>
        <pt x="339" y="66" on="0"/>
        <pt x="408" y="126" on="0"/>
        <pt x="408" y="217" on="0"/>
        <pt x="333" y="298" on="0"/>
        <pt x="242" y="332" on="1"/>
        <pt x="70" y="397" on="0"/>
        <pt x="70" y="514" on="1"/>
        <pt x="70" y="612" on="0"/>
        <pt x="194" y="715" on="0"/>
        <pt x="284" y="715" on="1"/>
        <pt x="394" y="715" on="0"/>
        <pt x="472" y="678" on="1"/>
        <pt x="481" y="674" on="0"/>
        <pt x="489" y="669" on="1"/>
        <pt x="489" y="532" on="1"/>
        <pt x="430" y="530" on="1"/>
        <pt x="407" y="611" on="1"/>
        <pt x="366" y="632" on="0"/>
        <pt x="300" y="632" on="1"/>
        <pt x="165" y="632" on="0"/>
        <pt x="165" y="546" on="1"/>
        <pt x="165" y="498" on="0"/>
        <pt x="238" y="435" on="0"/>
        <pt x="315" y="407" on="1"/>
        <pt x="503" y="338" on="0"/>
        <pt x="503" y="187" on="1"/>
        <pt x="503" y="99" on="0"/>
        <pt x="385" y="-11" on="0"/>
        <pt x="273" y="-11" on="1"/>
        <pt x="222" y="-11" on="0"/>
        <pt x="172" y="2" on="1"/>
        <pt x="99" y="22" on="0"/>
        <pt x="67" y="47" on="1"/>
      </contour>
    </TTGlyph>
    <TTGlyph name="Scaron" xMin="67" yMin="-11" xMax="503" yMax="990">
      <component glyphName="S" x="0" y="0" flags="0x1004"/>
      <component glyphName="caron" x="89" y="206" flags="0x1004"/>
    </TTGlyph>
    <TTGlyph name="T" xMin="21" yMin="0" xMax="671" yMax="706">
      <contour>
        <pt x="484" y="0" on="1"/>
        <pt x="201" y="0" on="1"/>
        <pt x="201" y="44" on="1"/>
        <pt x="292" y="77" on="1"/>
        <pt x="292" y="630" on="1"/>
        <pt x="116" y="630" on="1"/>
        <pt x="83" y="544" on="1"/>
        <pt x="21" y="544" on="1"/>
        <pt x="21" y="706" on="1"/>
        <pt x="671" y="706" on="1"/>
        <pt x="671" y="544" on="1"/>
        <pt x="609" y="544" on="1"/>
        <pt x="576" y="630" on="1"/>
        <pt x="393" y="630" on="1"/>
        <pt x="393" y="77" on="1"/>
        <pt x="484" y="44" on="1"/>
      </contour>
    </TTGlyph>
    <TTGlyph name="Thorn" xMin="48" yMin="0" xMax="551" yMax="777">
      <contour>
        <pt x="311" y="0" on="1"/>
        <pt x="48" y="0" on="1"/>
        <pt x="48" y="43" on="1"/>
        <pt x="133" y="76" on="1"/>
        <pt x="133" y="698" on="1"/>
        <pt x="49" y="698" on="1"/>
        <pt x="49" y="758" on="1"/>
        <pt x="88" y="777" on="0"/>
        <pt x="191" y="777" on="0"/>
        <pt x="227" y="728" on="0"/>
        <pt x="227" y="678" on="1"/>
        <pt x="227" y="500" on="1"/>
        <pt x="335" y="500" on="1"/>
        <pt x="390" y="500" on="0"/>
        <pt x="483" y="468" on="0"/>
        <pt x="551" y="383" on="0"/>
        <pt x="551" y="319" on="1"/>
        <pt x="551" y="233" on="0"/>
        <pt x="415" y="140" on="0"/>
        <pt x="322" y="140" on="1"/>
        <pt x="227" y="140" on="1"/>
        <pt x="227" y="76" on="1"/>
        <pt x="311" y="43" on="1"/>
      </contour>
      <contour>
        <pt x="227" y="208" on="1"/>
        <pt x="322" y="208" on="1"/>
        <pt x="384" y="208" on="0"/>
        <pt x="454" y="265" on="0"/>
        <pt x="454" y="374" on="0"/>
        <pt x="382" y="432" on="0"/>
        <pt x="321" y="432" on="1"/>
        <pt x="227" y="432" on="1"/>
      </contour>
    </TTGlyph>
    <TTGlyph name="U" xMin="28" yMin="-11" xMax="749" yMax="706">
      <contour>
        <pt x="557" y="269" on="1"/>
        <pt x="557" y="629" on="1"/>
        <pt x="466" y="662" on="1"/>
        <pt x="466" y="706" on="1"/>
        <pt x="749" y="706" on="1"/>
        <pt x="749" y="662" on="1"/>
        <pt x="658" y="629" on="1"/>
        <pt x="658" y="281" on="1"/>
        <pt x="658" y="146" on="0"/>
        <pt x="522" y="-11" on="0"/>
        <pt x="254" y="-11" on="0"/>
        <pt x="119" y="145" on="0"/>
        <pt x="119" y="281" on="1"/>
        <pt x="119" y="629" on="1"/>
        <pt x="28" y="662" on="1"/>
        <pt x="28" y="706" on="1"/>
        <pt x="311" y="706" on="1"/>
        <pt x="311" y="662" on="1"/>
        <pt x="220" y="629" on="1"/>
        <pt x="220" y="269" on="1"/>
        <pt x="220" y="175" on="0"/>
        <pt x="309" y="69" on="0"/>
        <pt x="468" y="69" on="0"/>
        <pt x="557" y="174" on="0"/>
      </contour>
    </TTGlyph>
    <TTGlyph name="Uacute" xMin="28" yMin="-11" xMax="749" yMax="990">
      <contour>
        <pt x="557" y="269" on="1"/>
        <pt x="557" y="629" on="1"/>
        <pt x="466" y="662" on="1"/>
        <pt x="466" y="706" on="1"/>
        <pt x="749" y="706" on="1"/>
        <pt x="749" y="662" on="1"/>
        <pt x="658" y="629" on="1"/>
        <pt x="658" y="281" on="1"/>
        <pt x="658" y="146" on="0"/>
        <pt x="522" y="-11" on="0"/>
        <pt x="254" y="-11" on="0"/>
        <pt x="119" y="145" on="0"/>
        <pt x="119" y="281" on="1"/>
        <pt x="119" y="629" on="1"/>
        <pt x="28" y="662" on="1"/>
        <pt x="28" y="706" on="1"/>
        <pt x="311" y="706" on="1"/>
        <pt x="311" y="662" on="1"/>
        <pt x="220" y="629" on="1"/>
        <pt x="220" y="269" on="1"/>
        <pt x="220" y="175" on="0"/>
        <pt x="309" y="69" on="0"/>
        <pt x="468" y="69" on="0"/>
        <pt x="557" y="174" on="0"/>
      </contour>
      <contour>
        <pt x="421" y="801" on="1"/>
        <pt x="332" y="801" on="1"/>
        <pt x="433" y="990" on="1"/>
        <pt x="550" y="990" on="1"/>
      </contour>
    </TTGlyph>
    <TTGlyph name="Ucircumflex" xMin="28" yMin="-11" xMax="749" yMax="990">
      <component glyphName="U" x="0" y="0" flags="0x1004"/>
      <component glyphName="circumflex" x="170" y="206" flags="0x1004"/>
    </TTGlyph>
    <TTGlyph name="Udieresis" xMin="28" yMin="-11" xMax="749" yMax="904">
      <contour>
        <pt x="557" y="269" on="1"/>
        <pt x="557" y="629" on="1"/>
        <pt x="466" y="662" on="1"/>
        <pt x="466" y="706" on="1"/>
        <pt x="749" y="706" on="1"/>
        <pt x="749" y="662" on="1"/>
        <pt x="658" y="629" on="1"/>
        <pt x="658" y="281" on="1"/>
        <pt x="658" y="146" on="0"/>
        <pt x="522" y="-11" on="0"/>
        <pt x="254" y="-11" on="0"/>
        <pt x="119" y="145" on="0"/>
        <pt x="119" y="281" on="1"/>
        <pt x="119" y="629" on="1"/>
        <pt x="28" y="662" on="1"/>
        <pt x="28" y="706" on="1"/>
        <pt x="311" y="706" on="1"/>
        <pt x="311" y="662" on="1"/>
        <pt x="220" y="629" on="1"/>
        <pt x="220" y="269" on="1"/>
        <pt x="220" y="175" on="0"/>
        <pt x="309" y="69" on="0"/>
        <pt x="468" y="69" on="0"/>
        <pt x="557" y="174" on="0"/>
      </contour>
      <contour>
        <pt x="346" y="868" on="0"/>
        <pt x="346" y="818" on="0"/>
        <pt x="311" y="783" on="0"/>
        <pt x="260" y="783" on="0"/>
        <pt x="225" y="818" on="0"/>
        <pt x="225" y="869" on="0"/>
        <pt x="260" y="904" on="0"/>
        <pt x="310" y="904" on="0"/>
      </contour>
      <contour>
        <pt x="562" y="868" on="0"/>
        <pt x="562" y="818" on="0"/>
        <pt x="527" y="783" on="0"/>
        <pt x="476" y="783" on="0"/>
        <pt x="441" y="818" on="0"/>
        <pt x="441" y="869" on="0"/>
        <pt x="476" y="904" on="0"/>
        <pt x="526" y="904" on="0"/>
      </contour>
    </TTGlyph>
    <TTGlyph name="Ugrave" xMin="28" yMin="-11" xMax="749" yMax="990">
      <component glyphName="U" x="0" y="0" flags="0x1004"/>
      <component glyphName="grave" x="249" y="206" flags="0x1004"/>
    </TTGlyph>
    <TTGlyph name="V" xMin="-13" yMin="0" xMax="791" yMax="706">
      <contour>
        <pt x="-13" y="706" on="1"/>
        <pt x="304" y="706" on="1"/>
        <pt x="304" y="657" on="1"/>
        <pt x="213" y="619" on="1"/>
        <pt x="391" y="126" on="1"/>
        <pt x="396" y="115" on="1"/>
        <pt x="583" y="619" on="1"/>
        <pt x="488" y="657" on="1"/>
        <pt x="488" y="706" on="1"/>
        <pt x="791" y="706" on="1"/>
        <pt x="791" y="654" on="1"/>
        <pt x="685" y="616" on="1"/>
        <pt x="449" y="0" on="1"/>
        <pt x="329" y="0" on="1"/>
        <pt x="93" y="616" on="1"/>
        <pt x="-13" y="654" on="1"/>
      </contour>
    </TTGlyph>
    <TTGlyph name="W" xMin="-8" yMin="0" xMax="1101" yMax="706">
      <contour>
        <pt x="-8" y="706" on="1"/>
        <pt x="297" y="706" on="1"/>
        <pt x="297" y="652" on="1"/>
        <pt x="206" y="624" on="1"/>
        <pt x="364" y="126" on="1"/>
        <pt x="496" y="635" on="1"/>
        <pt x="414" y="649" on="1"/>
        <pt x="414" y="706" on="1"/>
        <pt x="680" y="706" on="1"/>
        <pt x="680" y="652" on="1"/>
        <pt x="608" y="638" on="1"/>
        <pt x="735" y="126" on="1"/>
        <pt x="893" y="624" on="1"/>
        <pt x="802" y="652" on="1"/>
        <pt x="802" y="706" on="1"/>
        <pt x="1101" y="706" on="1"/>
        <pt x="1101" y="649" on="1"/>
        <pt x="995" y="621" on="1"/>
        <pt x="789" y="0" on="1"/>
        <pt x="675" y="0" on="1"/>
        <pt x="549" y="481" on="1"/>
        <pt x="418" y="0" on="1"/>
        <pt x="304" y="0" on="1"/>
        <pt x="98" y="621" on="1"/>
        <pt x="-8" y="649" on="1"/>
      </contour>
    </TTGlyph>
    <TTGlyph name="X" xMin="17" yMin="0" xMax="746" yMax="706">
      <contour>
        <pt x="746" y="0" on="1"/>
        <pt x="451" y="0" on="1"/>
        <pt x="451" y="57" on="1"/>
        <pt x="525" y="72" on="1"/>
        <pt x="361" y="295" on="1"/>
        <pt x="211" y="72" on="1"/>
        <pt x="303" y="50" on="1"/>
        <pt x="303" y="0" on="1"/>
        <pt x="22" y="0" on="1"/>
        <pt x="22" y="57" on="1"/>
        <pt x="121" y="92" on="1"/>
        <pt x="309" y="368" on="1"/>
        <pt x="116" y="634" on="1"/>
        <pt x="17" y="656" on="1"/>
        <pt x="17" y="706" on="1"/>
        <pt x="332" y="706" on="1"/>
        <pt x="332" y="649" on="1"/>
        <pt x="245" y="634" on="1"/>
        <pt x="386" y="439" on="1"/>
        <pt x="530" y="641" on="1"/>
        <pt x="464" y="656" on="1"/>
        <pt x="464" y="706" on="1"/>
        <pt x="719" y="706" on="1"/>
        <pt x="719" y="649" on="1"/>
        <pt x="625" y="621" on="1"/>
        <pt x="438" y="366" on="1"/>
        <pt x="645" y="79" on="1"/>
        <pt x="746" y="57" on="1"/>
      </contour>
    </TTGlyph>
    <TTGlyph name="Y" xMin="-11" yMin="0" xMax="647" yMax="706">
      <contour>
        <pt x="478" y="0" on="1"/>
        <pt x="195" y="0" on="1"/>
        <pt x="195" y="44" on="1"/>
        <pt x="286" y="77" on="1"/>
        <pt x="286" y="247" on="1"/>
        <pt x="71" y="621" on="1"/>
        <pt x="-11" y="656" on="1"/>
        <pt x="-11" y="706" on="1"/>
        <pt x="266" y="706" on="1"/>
        <pt x="266" y="649" on="1"/>
        <pt x="179" y="639" on="1"/>
        <pt x="339" y="351" on="1"/>
        <pt x="471" y="624" on="1"/>
        <pt x="388" y="649" on="1"/>
        <pt x="388" y="706" on="1"/>
        <pt x="647" y="706" on="1"/>
        <pt x="647" y="649" on="1"/>
        <pt x="567" y="626" on="1"/>
        <pt x="387" y="276" on="1"/>
        <pt x="387" y="77" on="1"/>
        <pt x="478" y="44" on="1"/>
      </contour>
    </TTGlyph>
    <TTGlyph name="Yacute" xMin="-11" yMin="0" xMax="647" yMax="990">
      <component glyphName="Y" x="0" y="0" flags="0x1004"/>
      <component glyphName="acute" x="196" y="206" flags="0x1004"/>
    </TTGlyph>
    <TTGlyph name="Ydieresis" xMin="-11" yMin="0" xMax="647" yMax="904">
      <component glyphName="Y" x="0" y="0" flags="0x1004"/>
      <component glyphName="dieresis" x="116" y="206" flags="0x1004"/>
    </TTGlyph>
    <TTGlyph name="Z" xMin="55" yMin="0" xMax="613" yMax="706">
      <contour>
        <pt x="613" y="0" on="1"/>
        <pt x="57" y="0" on="1"/>
        <pt x="57" y="76" on="1"/>
        <pt x="447" y="570" on="0"/>
        <pt x="492" y="630" on="1"/>
        <pt x="159" y="630" on="1"/>
        <pt x="126" y="523" on="1"/>
        <pt x="55" y="523" on="1"/>
        <pt x="55" y="706" on="1"/>
        <pt x="613" y="706" on="1"/>
        <pt x="613" y="630" on="1"/>
        <pt x="177" y="76" on="1"/>
        <pt x="507" y="76" on="1"/>
        <pt x="540" y="187" on="1"/>
        <pt x="613" y="187" on="1"/>
      </contour>
    </TTGlyph>
    <TTGlyph name="Zcaron" xMin="55" yMin="0" xMax="613" yMax="990">
      <contour>
        <pt x="613" y="0" on="1"/>
        <pt x="57" y="0" on="1"/>
        <pt x="57" y="76" on="1"/>
        <pt x="447" y="570" on="0"/>
        <pt x="492" y="630" on="1"/>
        <pt x="159" y="630" on="1"/>
        <pt x="126" y="523" on="1"/>
        <pt x="55" y="523" on="1"/>
        <pt x="55" y="706" on="1"/>
        <pt x="613" y="706" on="1"/>
        <pt x="613" y="630" on="1"/>
        <pt x="177" y="76" on="1"/>
        <pt x="507" y="76" on="1"/>
        <pt x="540" y="187" on="1"/>
        <pt x="613" y="187" on="1"/>
      </contour>
      <contour>
        <pt x="503" y="990" on="1"/>
        <pt x="392" y="801" on="1"/>
        <pt x="294" y="801" on="1"/>
        <pt x="183" y="990" on="1"/>
        <pt x="272" y="990" on="1"/>
        <pt x="343" y="871" on="1"/>
        <pt x="414" y="990" on="1"/>
      </contour>
    </TTGlyph>
    <TTGlyph name="a" xMin="39" yMin="-11" xMax="542" yMax="512">
      <contour>
        <pt x="542" y="68" on="1"/>
        <pt x="542" y="8" on="1"/>
        <pt x="503" y="-11" on="0"/>
        <pt x="409" y="-11" on="0"/>
        <pt x="368" y="25" on="0"/>
        <pt x="365" y="59" on="1"/>
        <pt x="310" y="-11" on="0"/>
        <pt x="131" y="-11" on="0"/>
        <pt x="39" y="61" on="0"/>
        <pt x="39" y="126" on="1"/>
        <pt x="39" y="251" on="0"/>
        <pt x="213" y="270" on="1"/>
        <pt x="364" y="286" on="1"/>
        <pt x="364" y="315" on="1"/>
        <pt x="364" y="373" on="0"/>
        <pt x="316" y="433" on="0"/>
        <pt x="264" y="433" on="1"/>
        <pt x="168" y="433" on="0"/>
        <pt x="108" y="412" on="1"/>
        <pt x="88" y="405" on="1"/>
        <pt x="70" y="469" on="1"/>
        <pt x="98" y="485" on="0"/>
        <pt x="212" y="512" on="0"/>
        <pt x="261" y="512" on="1"/>
        <pt x="368" y="512" on="0"/>
        <pt x="458" y="427" on="0"/>
        <pt x="458" y="350" on="1"/>
        <pt x="458" y="68" on="1"/>
      </contour>
      <contour>
        <pt x="180" y="200" on="0"/>
        <pt x="135" y="164" on="0"/>
        <pt x="135" y="103" on="0"/>
        <pt x="184" y="68" on="0"/>
        <pt x="228" y="68" on="1"/>
        <pt x="311" y="68" on="0"/>
        <pt x="364" y="113" on="1"/>
        <pt x="364" y="221" on="1"/>
        <pt x="218" y="205" on="1"/>
      </contour>
    </TTGlyph>
    <TTGlyph name="aacute" xMin="39" yMin="-11" xMax="542" yMax="784">
      <component glyphName="a" x="0" y="0" flags="0x1004"/>
      <component glyphName="acute" x="163" y="0" flags="0x1004"/>
    </TTGlyph>
    <TTGlyph name="acircumflex" xMin="39" yMin="-11" xMax="542" yMax="784">
      <component glyphName="a" x="0" y="0" flags="0x1004"/>
      <component glyphName="circumflex" x="55" y="0" flags="0x1004"/>
    </TTGlyph>
    <TTGlyph name="acute" xMin="50" yMin="595" xMax="268" yMax="784">
      <contour>
        <pt x="139" y="595" on="1"/>
        <pt x="50" y="595" on="1"/>
        <pt x="151" y="784" on="1"/>
        <pt x="268" y="784" on="1"/>
      </contour>
    </TTGlyph>
    <TTGlyph name="adieresis" xMin="39" yMin="-11" xMax="542" yMax="698">
      <contour>
        <pt x="542" y="68" on="1"/>
        <pt x="542" y="8" on="1"/>
        <pt x="503" y="-11" on="0"/>
        <pt x="409" y="-11" on="0"/>
        <pt x="368" y="25" on="0"/>
        <pt x="365" y="59" on="1"/>
        <pt x="310" y="-11" on="0"/>
        <pt x="131" y="-11" on="0"/>
        <pt x="39" y="61" on="0"/>
        <pt x="39" y="126" on="1"/>
        <pt x="39" y="251" on="0"/>
        <pt x="213" y="270" on="1"/>
        <pt x="364" y="286" on="1"/>
        <pt x="364" y="315" on="1"/>
        <pt x="364" y="373" on="0"/>
        <pt x="316" y="433" on="0"/>
        <pt x="264" y="433" on="1"/>
        <pt x="168" y="433" on="0"/>
        <pt x="108" y="412" on="1"/>
        <pt x="88" y="405" on="1"/>
        <pt x="70" y="469" on="1"/>
        <pt x="98" y="485" on="0"/>
        <pt x="212" y="512" on="0"/>
        <pt x="261" y="512" on="1"/>
        <pt x="368" y="512" on="0"/>
        <pt x="458" y="427" on="0"/>
        <pt x="458" y="350" on="1"/>
        <pt x="458" y="68" on="1"/>
      </contour>
      <contour>
        <pt x="180" y="200" on="0"/>
        <pt x="135" y="164" on="0"/>
        <pt x="135" y="103" on="0"/>
        <pt x="184" y="68" on="0"/>
        <pt x="228" y="68" on="1"/>
        <pt x="311" y="68" on="0"/>
        <pt x="364" y="113" on="1"/>
        <pt x="364" y="221" on="1"/>
        <pt x="218" y="205" on="1"/>
      </contour>
      <contour>
        <pt x="242" y="662" on="0"/>
        <pt x="242" y="612" on="0"/>
        <pt x="207" y="577" on="0"/>
        <pt x="156" y="577" on="0"/>
        <pt x="121" y="612" on="0"/>
        <pt x="121" y="663" on="0"/>
        <pt x="156" y="698" on="0"/>
        <pt x="206" y="698" on="0"/>
      </contour>
      <contour>
        <pt x="458" y="662" on="0"/>
        <pt x="458" y="612" on="0"/>
        <pt x="423" y="577" on="0"/>
        <pt x="372" y="577" on="0"/>
        <pt x="337" y="612" on="0"/>
        <pt x="337" y="663" on="0"/>
        <pt x="372" y="698" on="0"/>
        <pt x="422" y="698" on="0"/>
      </contour>
    </TTGlyph>
    <TTGlyph name="ae" xMin="39" yMin="-11" xMax="834" yMax="512">
      <contour>
        <pt x="620" y="-10" on="1"/>
        <pt x="475" y="-10" on="0"/>
        <pt x="409" y="87" on="1"/>
        <pt x="399" y="70" on="0"/>
        <pt x="359" y="31" on="0"/>
        <pt x="268" y="-11" on="0"/>
        <pt x="214" y="-11" on="1"/>
        <pt x="131" y="-11" on="0"/>
        <pt x="39" y="61" on="0"/>
        <pt x="39" y="126" on="1"/>
        <pt x="39" y="251" on="0"/>
        <pt x="213" y="270" on="1"/>
        <pt x="364" y="286" on="1"/>
        <pt x="364" y="315" on="1"/>
        <pt x="364" y="373" on="0"/>
        <pt x="316" y="433" on="0"/>
        <pt x="264" y="433" on="1"/>
        <pt x="168" y="433" on="0"/>
        <pt x="108" y="412" on="1"/>
        <pt x="88" y="405" on="1"/>
        <pt x="70" y="469" on="1"/>
        <pt x="98" y="485" on="0"/>
        <pt x="212" y="512" on="0"/>
        <pt x="261" y="512" on="1"/>
        <pt x="395" y="512" on="0"/>
        <pt x="437" y="439" on="1"/>
        <pt x="507" y="512" on="0"/>
        <pt x="606" y="512" on="1"/>
        <pt x="834" y="512" on="0"/>
        <pt x="834" y="242" on="1"/>
        <pt x="463" y="242" on="1"/>
        <pt x="463" y="237" on="1"/>
        <pt x="463" y="166" on="0"/>
        <pt x="563" y="68" on="0"/>
        <pt x="649" y="68" on="1"/>
        <pt x="686" y="68" on="0"/>
        <pt x="752" y="85" on="0"/>
        <pt x="766" y="94" on="1"/>
        <pt x="781" y="102" on="1"/>
        <pt x="810" y="50" on="1"/>
        <pt x="807" y="48" on="0"/>
        <pt x="796" y="39" on="0"/>
        <pt x="760" y="19" on="0"/>
        <pt x="740" y="11" on="1"/>
        <pt x="686" y="-10" on="0"/>
      </contour>
      <contour>
        <pt x="180" y="200" on="0"/>
        <pt x="135" y="164" on="0"/>
        <pt x="135" y="103" on="0"/>
        <pt x="184" y="68" on="0"/>
        <pt x="228" y="68" on="1"/>
        <pt x="311" y="68" on="0"/>
        <pt x="364" y="113" on="1"/>
        <pt x="364" y="221" on="1"/>
        <pt x="218" y="205" on="1"/>
      </contour>
      <contour>
        <pt x="736" y="368" on="0"/>
        <pt x="665" y="433" on="0"/>
        <pt x="552" y="433" on="0"/>
        <pt x="478" y="370" on="0"/>
        <pt x="467" y="306" on="1"/>
        <pt x="741" y="306" on="1"/>
      </contour>
    </TTGlyph>
    <TTGlyph name="agrave" xMin="39" yMin="-11" xMax="542" yMax="784">
      <component glyphName="a" x="0" y="0" flags="0x1004"/>
      <component glyphName="grave" x="75" y="0" flags="0x1004"/>
    </TTGlyph>
    <TTGlyph name="ampersand" xMin="49" yMin="-7" xMax="617" yMax="724">
      <contour>
        <pt x="465" y="67" on="1"/>
        <pt x="394" y="-7" on="0"/>
        <pt x="171" y="-7" on="0"/>
        <pt x="49" y="116" on="0"/>
        <pt x="49" y="195" on="1"/>
        <pt x="49" y="288" on="0"/>
        <pt x="112" y="341" on="1"/>
        <pt x="161" y="382" on="0"/>
        <pt x="220" y="406" on="1"/>
        <pt x="152" y="485" on="0"/>
        <pt x="152" y="637" on="0"/>
        <pt x="247" y="724" on="0"/>
        <pt x="319" y="724" on="1"/>
        <pt x="419" y="724" on="0"/>
        <pt x="466" y="664" on="1"/>
        <pt x="477" y="650" on="0"/>
        <pt x="485" y="631" on="0"/>
        <pt x="484" y="631" on="1"/>
        <pt x="484" y="518" on="1"/>
        <pt x="422" y="518" on="1"/>
        <pt x="405" y="602" on="1"/>
        <pt x="399" y="617" on="0"/>
        <pt x="349" y="644" on="0"/>
        <pt x="287" y="644" on="0"/>
        <pt x="247" y="598" on="0"/>
        <pt x="247" y="526" on="0"/>
        <pt x="316" y="417" on="0"/>
        <pt x="464" y="212" on="0"/>
        <pt x="479" y="192" on="1"/>
        <pt x="504" y="232" on="0"/>
        <pt x="504" y="309" on="1"/>
        <pt x="504" y="329" on="1"/>
        <pt x="577" y="329" on="1"/>
        <pt x="577" y="309" on="1"/>
        <pt x="577" y="258" on="0"/>
        <pt x="552" y="166" on="0"/>
        <pt x="540" y="146" on="1"/>
        <pt x="527" y="125" on="1"/>
        <pt x="617" y="0" on="1"/>
        <pt x="514" y="0" on="1"/>
      </contour>
      <contour>
        <pt x="143" y="142" on="0"/>
        <pt x="227" y="74" on="0"/>
        <pt x="286" y="74" on="1"/>
        <pt x="370" y="74" on="0"/>
        <pt x="422" y="126" on="1"/>
        <pt x="264" y="347" on="1"/>
        <pt x="218" y="324" on="0"/>
        <pt x="193" y="303" on="1"/>
        <pt x="143" y="262" on="0"/>
      </contour>
    </TTGlyph>
    <TTGlyph name="apple" xMin="50" yMin="-57" xMax="1277" yMax="630">
      <contour>
        <pt x="879" y="358" on="1"/>
        <pt x="884" y="264" on="1"/>
        <pt x="771" y="264" on="1"/>
        <pt x="771" y="424" on="0"/>
        <pt x="779" y="477" on="1"/>
        <pt x="782" y="497" on="1"/>
        <pt x="858" y="497" on="1"/>
        <pt x="864" y="455" on="0"/>
        <pt x="864" y="423" on="1"/>
        <pt x="866" y="433" on="1"/>
        <pt x="884" y="501" on="0"/>
        <pt x="945" y="501" on="1"/>
        <pt x="985" y="501" on="0"/>
        <pt x="1018" y="454" on="0"/>
        <pt x="1019" y="400" on="1"/>
        <pt x="1021" y="264" on="1"/>
        <pt x="909" y="264" on="1"/>
        <pt x="911" y="358" on="1"/>
        <pt x="911" y="383" on="0"/>
        <pt x="896" y="383" on="1"/>
        <pt x="879" y="383" on="0"/>
      </contour>
      <contour>
        <pt x="168" y="264" on="1"/>
        <pt x="52" y="264" on="1"/>
        <pt x="52" y="402" on="0"/>
        <pt x="60" y="532" on="1"/>
        <pt x="63" y="571" on="1"/>
        <pt x="158" y="571" on="1"/>
        <pt x="168" y="434" on="0"/>
      </contour>
      <contour>
        <pt x="1225" y="501" on="0"/>
        <pt x="1277" y="435" on="0"/>
        <pt x="1277" y="322" on="0"/>
        <pt x="1216" y="258" on="0"/>
        <pt x="1097" y="258" on="0"/>
        <pt x="1036" y="322" on="0"/>
        <pt x="1036" y="377" on="1"/>
        <pt x="1036" y="501" on="0"/>
        <pt x="1156" y="501" on="1"/>
      </contour>
      <contour>
        <pt x="1133" y="336" on="0"/>
        <pt x="1180" y="336" on="0"/>
        <pt x="1180" y="393" on="0"/>
        <pt x="1133" y="393" on="0"/>
      </contour>
      <contour>
        <pt x="435" y="264" on="1"/>
        <pt x="359" y="264" on="1"/>
        <pt x="350" y="322" on="1"/>
        <pt x="338" y="258" on="0"/>
        <pt x="276" y="258" on="1"/>
        <pt x="187" y="258" on="0"/>
        <pt x="187" y="370" on="1"/>
        <pt x="187" y="435" on="0"/>
        <pt x="249" y="501" on="0"/>
        <pt x="319" y="501" on="1"/>
        <pt x="435" y="501" on="0"/>
        <pt x="435" y="389" on="1"/>
      </contour>
      <contour>
        <pt x="314" y="336" on="1"/>
        <pt x="338" y="336" on="0"/>
        <pt x="338" y="393" on="0"/>
        <pt x="314" y="393" on="1"/>
        <pt x="293" y="393" on="0"/>
        <pt x="293" y="336" on="0"/>
      </contour>
      <contour>
        <pt x="625" y="-57" on="1"/>
        <pt x="498" y="-57" on="1"/>
        <pt x="498" y="82" on="0"/>
        <pt x="506" y="192" on="1"/>
        <pt x="509" y="225" on="1"/>
        <pt x="587" y="225" on="1"/>
        <pt x="594" y="174" on="0"/>
        <pt x="594" y="150" on="1"/>
        <pt x="608" y="233" on="0"/>
        <pt x="672" y="233" on="1"/>
        <pt x="707" y="233" on="0"/>
        <pt x="750" y="174" on="0"/>
        <pt x="750" y="55" on="0"/>
        <pt x="684" y="-15" on="0"/>
        <pt x="623" y="-15" on="1"/>
        <pt x="625" y="-30" on="0"/>
      </contour>
      <contour>
        <pt x="646" y="102" on="1"/>
        <pt x="646" y="123" on="0"/>
        <pt x="627" y="123" on="1"/>
        <pt x="604" y="123" on="0"/>
        <pt x="604" y="93" on="1"/>
        <pt x="608" y="66" on="1"/>
        <pt x="622" y="66" on="0"/>
        <pt x="646" y="87" on="0"/>
      </contour>
      <contour>
        <pt x="931" y="59" on="1"/>
        <pt x="953" y="59" on="0"/>
        <pt x="972" y="74" on="1"/>
        <pt x="972" y="1" on="1"/>
        <pt x="951" y="-15" on="0"/>
        <pt x="833" y="-15" on="0"/>
        <pt x="767" y="50" on="0"/>
        <pt x="767" y="106" on="1"/>
        <pt x="767" y="233" on="0"/>
        <pt x="890" y="233" on="1"/>
        <pt x="942" y="233" on="0"/>
        <pt x="1002" y="172" on="0"/>
        <pt x="1002" y="119" on="1"/>
        <pt x="997" y="83" on="1"/>
        <pt x="877" y="83" on="1"/>
        <pt x="877" y="59" on="0"/>
      </contour>
      <contour>
        <pt x="871" y="108" on="1"/>
        <pt x="910" y="108" on="1"/>
        <pt x="911" y="111" on="0"/>
        <pt x="911" y="116" on="1"/>
        <pt x="911" y="135" on="0"/>
        <pt x="893" y="135" on="1"/>
        <pt x="871" y="135" on="0"/>
      </contour>
      <contour>
        <pt x="469" y="322" on="1"/>
        <pt x="471" y="408" on="1"/>
        <pt x="448" y="408" on="1"/>
        <pt x="448" y="491" on="1"/>
        <pt x="564" y="527" on="1"/>
        <pt x="568" y="497" on="1"/>
        <pt x="740" y="497" on="1"/>
        <pt x="748" y="434" on="0"/>
        <pt x="748" y="264" on="1"/>
        <pt x="634" y="264" on="1"/>
        <pt x="634" y="374" on="0"/>
        <pt x="636" y="408" on="1"/>
        <pt x="579" y="408" on="1"/>
        <pt x="581" y="345" on="1"/>
        <pt x="583" y="343" on="0"/>
        <pt x="592" y="343" on="1"/>
        <pt x="609" y="347" on="1"/>
        <pt x="609" y="275" on="1"/>
        <pt x="602" y="258" on="0"/>
        <pt x="547" y="258" on="1"/>
        <pt x="469" y="258" on="0"/>
      </contour>
      <contour>
        <pt x="716" y="510" on="0"/>
        <pt x="666" y="510" on="0"/>
        <pt x="632" y="545" on="0"/>
        <pt x="632" y="595" on="0"/>
        <pt x="666" y="630" on="0"/>
        <pt x="716" y="630" on="0"/>
        <pt x="750" y="595" on="0"/>
        <pt x="750" y="545" on="0"/>
      </contour>
      <contour>
        <pt x="479" y="9" on="0"/>
        <pt x="407" y="-57" on="0"/>
        <pt x="268" y="-57" on="0"/>
        <pt x="236" y="-36" on="1"/>
        <pt x="236" y="47" on="1"/>
        <pt x="261" y="28" on="0"/>
        <pt x="337" y="28" on="0"/>
        <pt x="373" y="46" on="0"/>
        <pt x="376" y="55" on="1"/>
        <pt x="380" y="64" on="1"/>
        <pt x="369" y="49" on="0"/>
        <pt x="323" y="49" on="1"/>
        <pt x="230" y="49" on="0"/>
        <pt x="230" y="123" on="1"/>
        <pt x="230" y="131" on="1"/>
        <pt x="185" y="131" on="1"/>
        <pt x="187" y="70" on="1"/>
        <pt x="203" y="70" on="0"/>
        <pt x="215" y="76" on="1"/>
        <pt x="215" y="2" on="1"/>
        <pt x="197" y="-15" on="0"/>
        <pt x="148" y="-15" on="1"/>
        <pt x="75" y="-15" on="0"/>
        <pt x="75" y="49" on="1"/>
        <pt x="77" y="131" on="1"/>
        <pt x="50" y="131" on="1"/>
        <pt x="50" y="214" on="1"/>
        <pt x="171" y="254" on="1"/>
        <pt x="175" y="225" on="1"/>
        <pt x="340" y="225" on="1"/>
        <pt x="338" y="123" on="0"/>
        <pt x="338" y="119" on="1"/>
        <pt x="338" y="93" on="0"/>
        <pt x="369" y="93" on="0"/>
        <pt x="369" y="119" on="1"/>
        <pt x="367" y="225" on="1"/>
        <pt x="473" y="225" on="1"/>
        <pt x="479" y="167" on="0"/>
      </contour>
      <contour>
        <pt x="1056" y="183" on="1"/>
        <pt x="1056" y="172" on="1"/>
        <pt x="1048" y="172" on="1"/>
        <pt x="1048" y="209" on="1"/>
        <pt x="1064" y="209" on="1"/>
        <pt x="1079" y="209" on="0"/>
        <pt x="1079" y="197" on="1"/>
        <pt x="1079" y="188" on="0"/>
        <pt x="1071" y="185" on="1"/>
        <pt x="1079" y="172" on="1"/>
        <pt x="1070" y="172" on="1"/>
        <pt x="1063" y="183" on="1"/>
      </contour>
      <contour>
        <pt x="1056" y="190" on="1"/>
        <pt x="1064" y="190" on="1"/>
        <pt x="1071" y="190" on="0"/>
        <pt x="1071" y="202" on="0"/>
        <pt x="1064" y="202" on="1"/>
        <pt x="1056" y="202" on="1"/>
      </contour>
      <contour>
        <pt x="1077" y="153" on="0"/>
        <pt x="1047" y="153" on="0"/>
        <pt x="1025" y="175" on="0"/>
        <pt x="1025" y="205" on="0"/>
        <pt x="1047" y="227" on="0"/>
        <pt x="1077" y="227" on="0"/>
        <pt x="1099" y="205" on="0"/>
        <pt x="1099" y="175" on="0"/>
      </contour>
      <contour>
        <pt x="1092" y="178" on="0"/>
        <pt x="1092" y="202" on="0"/>
        <pt x="1074" y="220" on="0"/>
        <pt x="1050" y="220" on="0"/>
        <pt x="1032" y="202" on="0"/>
        <pt x="1032" y="178" on="0"/>
        <pt x="1050" y="160" on="0"/>
        <pt x="1074" y="160" on="0"/>
      </contour>
    </TTGlyph>
    <TTGlyph name="aring" xMin="39" yMin="-11" xMax="542" yMax="747">
      <component glyphName="a" x="0" y="0" flags="0x1004"/>
      <component glyphName="ring" x="139" y="0" flags="0x1004"/>
    </TTGlyph>
    <TTGlyph name="asciicircum" xMin="50" yMin="595" xMax="370" yMax="784">
      <contour>
        <pt x="370" y="595" on="1"/>
        <pt x="281" y="595" on="1"/>
        <pt x="210" y="714" on="1"/>
        <pt x="139" y="595" on="1"/>
        <pt x="50" y="595" on="1"/>
        <pt x="161" y="784" on="1"/>
        <pt x="259" y="784" on="1"/>
      </contour>
    </TTGlyph>
    <TTGlyph name="asciitilde" xMin="65" yMin="311" xMax="447" yMax="445">
      <contour>
        <pt x="411" y="353" on="0"/>
        <pt x="345" y="311" on="0"/>
        <pt x="288" y="311" on="0"/>
        <pt x="201" y="363" on="0"/>
        <pt x="184" y="363" on="1"/>
        <pt x="153" y="363" on="0"/>
        <pt x="114" y="329" on="1"/>
        <pt x="102" y="318" on="1"/>
        <pt x="65" y="358" on="1"/>
        <pt x="63" y="358" on="0"/>
        <pt x="99" y="402" on="0"/>
        <pt x="164" y="445" on="0"/>
        <pt x="221" y="445" on="0"/>
        <pt x="308" y="393" on="0"/>
        <pt x="326" y="393" on="1"/>
        <pt x="356" y="393" on="0"/>
        <pt x="394" y="427" on="1"/>
        <pt x="407" y="438" on="1"/>
        <pt x="447" y="396" on="1"/>
        <pt x="449" y="396" on="0"/>
      </contour>
    </TTGlyph>
    <TTGlyph name="asterisk" xMin="52" yMin="483" xMax="390" yMax="810">
      <contour>
        <pt x="306" y="503" on="1"/>
        <pt x="261" y="483" on="1"/>
        <pt x="213" y="610" on="1"/>
        <pt x="134" y="503" on="1"/>
        <pt x="94" y="532" on="1"/>
        <pt x="187" y="635" on="1"/>
        <pt x="52" y="650" on="1"/>
        <pt x="58" y="698" on="1"/>
        <pt x="190" y="670" on="1"/>
        <pt x="135" y="790" on="1"/>
        <pt x="179" y="810" on="1"/>
        <pt x="225" y="682" on="1"/>
        <pt x="307" y="796" on="1"/>
        <pt x="346" y="766" on="1"/>
        <pt x="253" y="661" on="1"/>
        <pt x="390" y="646" on="1"/>
        <pt x="384" y="599" on="1"/>
        <pt x="248" y="625" on="1"/>
      </contour>
    </TTGlyph>
    <TTGlyph name="at" xMin="53" yMin="-126" xMax="760" yMax="625">
      <contour>
        <pt x="407" y="-126" on="1"/>
        <pt x="256" y="-126" on="0"/>
        <pt x="53" y="77" on="0"/>
        <pt x="53" y="392" on="0"/>
        <pt x="283" y="625" on="0"/>
        <pt x="588" y="625" on="0"/>
        <pt x="760" y="468" on="0"/>
        <pt x="760" y="222" on="0"/>
        <pt x="624" y="78" on="0"/>
        <pt x="539" y="78" on="1"/>
        <pt x="519" y="78" on="1"/>
        <pt x="479" y="78" on="0"/>
        <pt x="479" y="107" on="1"/>
        <pt x="479" y="111" on="0"/>
        <pt x="480" y="116" on="1"/>
        <pt x="483" y="141" on="1"/>
        <pt x="483" y="138" on="0"/>
        <pt x="461" y="109" on="0"/>
        <pt x="409" y="75" on="0"/>
        <pt x="379" y="75" on="1"/>
        <pt x="319" y="75" on="0"/>
        <pt x="235" y="158" on="0"/>
        <pt x="235" y="338" on="0"/>
        <pt x="350" y="454" on="0"/>
        <pt x="497" y="454" on="0"/>
        <pt x="520" y="408" on="1"/>
        <pt x="526" y="444" on="1"/>
        <pt x="579" y="444" on="1"/>
        <pt x="539" y="137" on="1"/>
        <pt x="561" y="137" on="1"/>
        <pt x="614" y="137" on="0"/>
        <pt x="696" y="250" on="0"/>
        <pt x="696" y="443" on="0"/>
        <pt x="557" y="558" on="0"/>
        <pt x="441" y="558" on="1"/>
        <pt x="306" y="558" on="0"/>
        <pt x="123" y="361" on="0"/>
        <pt x="123" y="104" on="0"/>
        <pt x="287" y="-58" on="0"/>
        <pt x="407" y="-58" on="1"/>
        <pt x="467" y="-58" on="0"/>
        <pt x="567" y="-40" on="0"/>
        <pt x="587" y="-30" on="1"/>
        <pt x="607" y="-21" on="1"/>
        <pt x="634" y="-78" on="1"/>
        <pt x="624" y="-83" on="0"/>
        <pt x="588" y="-99" on="0"/>
        <pt x="470" y="-126" on="0"/>
      </contour>
      <contour>
        <pt x="431" y="391" on="1"/>
        <pt x="381" y="391" on="0"/>
        <pt x="305" y="312" on="0"/>
        <pt x="305" y="195" on="0"/>
        <pt x="356" y="144" on="0"/>
        <pt x="425" y="144" on="0"/>
        <pt x="483" y="203" on="0"/>
        <pt x="486" y="231" on="1"/>
        <pt x="499" y="334" on="1"/>
        <pt x="496" y="360" on="0"/>
        <pt x="455" y="391" on="0"/>
      </contour>
    </TTGlyph>
    <TTGlyph name="atilde" xMin="39" yMin="-11" xMax="542" yMax="730">
      <contour>
        <pt x="542" y="68" on="1"/>
        <pt x="542" y="8" on="1"/>
        <pt x="503" y="-11" on="0"/>
        <pt x="409" y="-11" on="0"/>
        <pt x="368" y="25" on="0"/>
        <pt x="365" y="59" on="1"/>
        <pt x="310" y="-11" on="0"/>
        <pt x="131" y="-11" on="0"/>
        <pt x="39" y="61" on="0"/>
        <pt x="39" y="126" on="1"/>
        <pt x="39" y="251" on="0"/>
        <pt x="213" y="270" on="1"/>
        <pt x="364" y="286" on="1"/>
        <pt x="364" y="315" on="1"/>
        <pt x="364" y="373" on="0"/>
        <pt x="316" y="433" on="0"/>
        <pt x="264" y="433" on="1"/>
        <pt x="168" y="433" on="0"/>
        <pt x="108" y="412" on="1"/>
        <pt x="88" y="405" on="1"/>
        <pt x="70" y="469" on="1"/>
        <pt x="98" y="485" on="0"/>
        <pt x="212" y="512" on="0"/>
        <pt x="261" y="512" on="1"/>
        <pt x="368" y="512" on="0"/>
        <pt x="458" y="427" on="0"/>
        <pt x="458" y="350" on="1"/>
        <pt x="458" y="68" on="1"/>
      </contour>
      <contour>
        <pt x="180" y="200" on="0"/>
        <pt x="135" y="164" on="0"/>
        <pt x="135" y="103" on="0"/>
        <pt x="184" y="68" on="0"/>
        <pt x="228" y="68" on="1"/>
        <pt x="311" y="68" on="0"/>
        <pt x="364" y="113" on="1"/>
        <pt x="364" y="221" on="1"/>
        <pt x="218" y="205" on="1"/>
      </contour>
      <contour>
        <pt x="445" y="638" on="0"/>
        <pt x="379" y="596" on="0"/>
        <pt x="322" y="596" on="0"/>
        <pt x="235" y="648" on="0"/>
        <pt x="218" y="648" on="1"/>
        <pt x="185" y="648" on="0"/>
        <pt x="148" y="614" on="1"/>
        <pt x="136" y="603" on="1"/>
        <pt x="99" y="643" on="1"/>
        <pt x="97" y="643" on="0"/>
        <pt x="133" y="686" on="0"/>
        <pt x="198" y="730" on="0"/>
        <pt x="255" y="730" on="0"/>
        <pt x="342" y="678" on="0"/>
        <pt x="360" y="678" on="1"/>
        <pt x="392" y="678" on="0"/>
        <pt x="428" y="712" on="1"/>
        <pt x="441" y="723" on="1"/>
        <pt x="481" y="681" on="1"/>
        <pt x="483" y="681" on="0"/>
      </contour>
    </TTGlyph>
    <TTGlyph name="b" xMin="-2" yMin="-10" xMax="540" yMax="772">
      <contour>
        <pt x="82" y="693" on="1"/>
        <pt x="-2" y="693" on="1"/>
        <pt x="-2" y="753" on="1"/>
        <pt x="37" y="772" on="0"/>
        <pt x="140" y="772" on="0"/>
        <pt x="176" y="723" on="0"/>
        <pt x="176" y="673" on="1"/>
        <pt x="176" y="457" on="1"/>
        <pt x="224" y="512" on="0"/>
        <pt x="319" y="512" on="1"/>
        <pt x="398" y="512" on="0"/>
        <pt x="465" y="458" on="1"/>
        <pt x="499" y="430" on="0"/>
        <pt x="540" y="327" on="0"/>
        <pt x="540" y="191" on="0"/>
        <pt x="494" y="84" on="0"/>
        <pt x="455" y="53" on="1"/>
        <pt x="376" y="-10" on="0"/>
        <pt x="271" y="-10" on="1"/>
        <pt x="222" y="-10" on="0"/>
        <pt x="127" y="19" on="0"/>
        <pt x="104" y="34" on="1"/>
        <pt x="82" y="48" on="1"/>
      </contour>
      <contour>
        <pt x="271" y="68" on="1"/>
        <pt x="352" y="68" on="0"/>
        <pt x="443" y="163" on="0"/>
        <pt x="443" y="337" on="0"/>
        <pt x="355" y="434" on="0"/>
        <pt x="305" y="434" on="1"/>
        <pt x="222" y="434" on="0"/>
        <pt x="176" y="385" on="1"/>
        <pt x="176" y="85" on="1"/>
        <pt x="188" y="82" on="1"/>
        <pt x="241" y="68" on="0"/>
      </contour>
    </TTGlyph>
    <TTGlyph name="backslash" xMin="35" yMin="-279" xMax="407" yMax="715">
      <contour>
        <pt x="128" y="715" on="1"/>
        <pt x="407" y="-279" on="1"/>
        <pt x="314" y="-279" on="1"/>
        <pt x="35" y="715" on="1"/>
      </contour>
    </TTGlyph>
    <TTGlyph name="bar" xMin="99" yMin="-279" xMax="182" yMax="772">
      <contour>
        <pt x="182" y="-279" on="1"/>
        <pt x="99" y="-279" on="1"/>
        <pt x="99" y="772" on="1"/>
        <pt x="182" y="772" on="1"/>
      </contour>
    </TTGlyph>
    <TTGlyph name="braceleft" xMin="35" yMin="-272" xMax="294" yMax="772">
      <contour>
        <pt x="294" y="-195" on="1"/>
        <pt x="294" y="-272" on="1"/>
        <pt x="214" y="-272" on="0"/>
        <pt x="109" y="-191" on="0"/>
        <pt x="109" y="-96" on="1"/>
        <pt x="109" y="138" on="1"/>
        <pt x="109" y="171" on="0"/>
        <pt x="71" y="205" on="0"/>
        <pt x="45" y="205" on="1"/>
        <pt x="35" y="205" on="1"/>
        <pt x="35" y="277" on="1"/>
        <pt x="45" y="277" on="1"/>
        <pt x="71" y="277" on="0"/>
        <pt x="109" y="311" on="0"/>
        <pt x="109" y="344" on="1"/>
        <pt x="109" y="596" on="1"/>
        <pt x="109" y="697" on="0"/>
        <pt x="167" y="736" on="1"/>
        <pt x="219" y="772" on="0"/>
        <pt x="294" y="772" on="1"/>
        <pt x="294" y="696" on="1"/>
        <pt x="192" y="696" on="0"/>
        <pt x="192" y="584" on="1"/>
        <pt x="192" y="325" on="1"/>
        <pt x="192" y="296" on="0"/>
        <pt x="182" y="276" on="1"/>
        <pt x="166" y="246" on="0"/>
        <pt x="144" y="241" on="1"/>
        <pt x="163" y="238" on="0"/>
        <pt x="192" y="184" on="0"/>
        <pt x="192" y="157" on="1"/>
        <pt x="192" y="-83" on="1"/>
        <pt x="192" y="-195" on="0"/>
      </contour>
    </TTGlyph>
    <TTGlyph name="braceright" xMin="40" yMin="-272" xMax="299" yMax="772">
      <contour>
        <pt x="225" y="138" on="1"/>
        <pt x="225" y="-96" on="1"/>
        <pt x="225" y="-191" on="0"/>
        <pt x="120" y="-272" on="0"/>
        <pt x="40" y="-272" on="1"/>
        <pt x="40" y="-195" on="1"/>
        <pt x="142" y="-195" on="0"/>
        <pt x="142" y="-83" on="1"/>
        <pt x="142" y="157" on="1"/>
        <pt x="142" y="184" on="0"/>
        <pt x="152" y="204" on="1"/>
        <pt x="169" y="238" on="0"/>
        <pt x="190" y="241" on="1"/>
        <pt x="168" y="246" on="0"/>
        <pt x="142" y="296" on="0"/>
        <pt x="142" y="325" on="1"/>
        <pt x="142" y="584" on="1"/>
        <pt x="142" y="696" on="0"/>
        <pt x="40" y="696" on="1"/>
        <pt x="40" y="772" on="1"/>
        <pt x="115" y="772" on="0"/>
        <pt x="167" y="736" on="1"/>
        <pt x="225" y="697" on="0"/>
        <pt x="225" y="596" on="1"/>
        <pt x="225" y="344" on="1"/>
        <pt x="225" y="311" on="0"/>
        <pt x="263" y="277" on="0"/>
        <pt x="289" y="277" on="1"/>
        <pt x="299" y="277" on="1"/>
        <pt x="299" y="205" on="1"/>
        <pt x="289" y="205" on="1"/>
        <pt x="263" y="205" on="0"/>
        <pt x="225" y="171" on="0"/>
      </contour>
    </TTGlyph>
    <TTGlyph name="bracketleft" xMin="99" yMin="-271" xMax="325" yMax="772">
      <contour>
        <pt x="325" y="-271" on="1"/>
        <pt x="99" y="-271" on="1"/>
        <pt x="99" y="772" on="1"/>
        <pt x="325" y="772" on="1"/>
        <pt x="325" y="696" on="1"/>
        <pt x="190" y="696" on="1"/>
        <pt x="190" y="-195" on="1"/>
        <pt x="325" y="-195" on="1"/>
      </contour>
    </TTGlyph>
    <TTGlyph name="bracketright" xMin="35" yMin="-271" xMax="261" yMax="772">
      <contour>
        <pt x="261" y="-271" on="1"/>
        <pt x="35" y="-271" on="1"/>
        <pt x="35" y="-195" on="1"/>
        <pt x="170" y="-195" on="1"/>
        <pt x="170" y="696" on="1"/>
        <pt x="35" y="696" on="1"/>
        <pt x="35" y="772" on="1"/>
        <pt x="261" y="772" on="1"/>
      </contour>
    </TTGlyph>
    <TTGlyph name="breve" xMin="50" yMin="589" xMax="305" yMax="719">
      <contour>
        <pt x="235" y="719" on="1"/>
        <pt x="305" y="719" on="1"/>
        <pt x="305" y="660" on="0"/>
        <pt x="244" y="589" on="0"/>
        <pt x="111" y="589" on="0"/>
        <pt x="50" y="660" on="0"/>
        <pt x="50" y="719" on="1"/>
        <pt x="119" y="719" on="1"/>
        <pt x="119" y="652" on="0"/>
        <pt x="235" y="652" on="0"/>
      </contour>
    </TTGlyph>
    <TTGlyph name="brokenbar" xMin="101" yMin="-279" xMax="184" yMax="772">
      <contour>
        <pt x="184" y="-279" on="1"/>
        <pt x="101" y="-279" on="1"/>
        <pt x="101" y="180" on="1"/>
        <pt x="184" y="180" on="1"/>
      </contour>
      <contour>
        <pt x="184" y="369" on="1"/>
        <pt x="101" y="369" on="1"/>
        <pt x="101" y="772" on="1"/>
        <pt x="184" y="772" on="1"/>
      </contour>
    </TTGlyph>
    <TTGlyph name="bullet" xMin="85" yMin="234" xMax="313" yMax="462">
      <contour>
        <pt x="246" y="234" on="0"/>
        <pt x="152" y="234" on="0"/>
        <pt x="85" y="301" on="0"/>
        <pt x="85" y="395" on="0"/>
        <pt x="152" y="462" on="0"/>
        <pt x="246" y="462" on="0"/>
        <pt x="313" y="395" on="0"/>
        <pt x="313" y="301" on="0"/>
      </contour>
    </TTGlyph>
    <TTGlyph name="c" xMin="46" yMin="-10" xMax="490" yMax="512">
      <contour>
        <pt x="300" y="-10" on="1"/>
        <pt x="189" y="-10" on="0"/>
        <pt x="46" y="120" on="0"/>
        <pt x="46" y="243" on="1"/>
        <pt x="46" y="311" on="0"/>
        <pt x="100" y="418" on="0"/>
        <pt x="144" y="449" on="1"/>
        <pt x="235" y="512" on="0"/>
        <pt x="343" y="512" on="1"/>
        <pt x="376" y="512" on="0"/>
        <pt x="440" y="496" on="0"/>
        <pt x="456" y="488" on="1"/>
        <pt x="472" y="479" on="1"/>
        <pt x="472" y="361" on="1"/>
        <pt x="411" y="361" on="1"/>
        <pt x="397" y="422" on="1"/>
        <pt x="383" y="433" on="0"/>
        <pt x="343" y="433" on="1"/>
        <pt x="257" y="433" on="0"/>
        <pt x="143" y="329" on="0"/>
        <pt x="143" y="171" on="0"/>
        <pt x="242" y="68" on="0"/>
        <pt x="324" y="68" on="1"/>
        <pt x="364" y="68" on="0"/>
        <pt x="433" y="85" on="0"/>
        <pt x="447" y="94" on="1"/>
        <pt x="461" y="102" on="1"/>
        <pt x="490" y="50" on="1"/>
        <pt x="487" y="48" on="0"/>
        <pt x="476" y="39" on="0"/>
        <pt x="440" y="19" on="0"/>
        <pt x="420" y="11" on="1"/>
        <pt x="366" y="-10" on="0"/>
      </contour>
    </TTGlyph>
    <TTGlyph name="caron" xMin="50" yMin="595" xMax="370" yMax="784">
      <contour>
        <pt x="370" y="784" on="1"/>
        <pt x="259" y="595" on="1"/>
        <pt x="161" y="595" on="1"/>
        <pt x="50" y="784" on="1"/>
        <pt x="139" y="784" on="1"/>
        <pt x="210" y="665" on="1"/>
        <pt x="281" y="784" on="1"/>
      </contour>
    </TTGlyph>
    <TTGlyph name="ccedilla" xMin="46" yMin="-180" xMax="490" yMax="512">
      <contour>
        <pt x="221" y="-111" on="1"/>
        <pt x="244" y="-136" on="0"/>
        <pt x="322" y="-136" on="0"/>
        <pt x="322" y="-102" on="1"/>
        <pt x="322" y="-64" on="0"/>
        <pt x="250" y="-64" on="1"/>
        <pt x="271" y="-8" on="1"/>
        <pt x="171" y="0" on="0"/>
        <pt x="46" y="128" on="0"/>
        <pt x="46" y="243" on="1"/>
        <pt x="46" y="311" on="0"/>
        <pt x="100" y="418" on="0"/>
        <pt x="144" y="449" on="1"/>
        <pt x="235" y="512" on="0"/>
        <pt x="343" y="512" on="1"/>
        <pt x="376" y="512" on="0"/>
        <pt x="440" y="496" on="0"/>
        <pt x="456" y="488" on="1"/>
        <pt x="472" y="479" on="1"/>
        <pt x="472" y="361" on="1"/>
        <pt x="411" y="361" on="1"/>
        <pt x="397" y="422" on="1"/>
        <pt x="383" y="433" on="0"/>
        <pt x="343" y="433" on="1"/>
        <pt x="257" y="433" on="0"/>
        <pt x="143" y="329" on="0"/>
        <pt x="143" y="171" on="0"/>
        <pt x="242" y="68" on="0"/>
        <pt x="324" y="68" on="1"/>
        <pt x="364" y="68" on="0"/>
        <pt x="433" y="85" on="0"/>
        <pt x="447" y="94" on="1"/>
        <pt x="461" y="102" on="1"/>
        <pt x="490" y="50" on="1"/>
        <pt x="466" y="30" on="0"/>
        <pt x="366" y="-7" on="0"/>
        <pt x="317" y="-9" on="1"/>
        <pt x="307" y="-34" on="1"/>
        <pt x="334" y="-35" on="0"/>
        <pt x="372" y="-71" on="0"/>
        <pt x="372" y="-140" on="0"/>
        <pt x="321" y="-180" on="0"/>
        <pt x="289" y="-180" on="1"/>
        <pt x="234" y="-180" on="0"/>
        <pt x="208" y="-154" on="1"/>
        <pt x="200" y="-146" on="1"/>
      </contour>
    </TTGlyph>
    <TTGlyph name="cedilla" xMin="50" yMin="-180" xMax="222" yMax="4">
      <contour>
        <pt x="71" y="-111" on="1"/>
        <pt x="94" y="-136" on="0"/>
        <pt x="172" y="-136" on="0"/>
        <pt x="172" y="-102" on="1"/>
        <pt x="172" y="-64" on="0"/>
        <pt x="100" y="-64" on="1"/>
        <pt x="126" y="4" on="1"/>
        <pt x="173" y="4" on="1"/>
        <pt x="157" y="-34" on="1"/>
        <pt x="184" y="-35" on="0"/>
        <pt x="222" y="-71" on="0"/>
        <pt x="222" y="-140" on="0"/>
        <pt x="171" y="-180" on="0"/>
        <pt x="139" y="-180" on="1"/>
        <pt x="84" y="-180" on="0"/>
        <pt x="58" y="-154" on="1"/>
        <pt x="50" y="-146" on="1"/>
      </contour>
    </TTGlyph>
    <TTGlyph name="cent" xMin="54" yMin="-90" xMax="483" yMax="606">
      <contour>
        <pt x="327" y="-90" on="1"/>
        <pt x="244" y="-90" on="1"/>
        <pt x="244" y="-6" on="1"/>
        <pt x="159" y="8" on="0"/>
        <pt x="54" y="135" on="0"/>
        <pt x="54" y="345" on="0"/>
        <pt x="162" y="474" on="0"/>
        <pt x="244" y="498" on="1"/>
        <pt x="244" y="606" on="1"/>
        <pt x="327" y="606" on="1"/>
        <pt x="327" y="512" on="1"/>
        <pt x="336" y="512" on="1"/>
        <pt x="368" y="512" on="0"/>
        <pt x="430" y="496" on="0"/>
        <pt x="445" y="488" on="1"/>
        <pt x="460" y="479" on="1"/>
        <pt x="432" y="404" on="1"/>
        <pt x="405" y="433" on="0"/>
        <pt x="336" y="433" on="1"/>
        <pt x="327" y="433" on="1"/>
        <pt x="327" y="68" on="1"/>
        <pt x="402" y="70" on="0"/>
        <pt x="442" y="86" on="1"/>
        <pt x="456" y="92" on="1"/>
        <pt x="483" y="50" on="1"/>
        <pt x="461" y="31" on="0"/>
        <pt x="371" y="-4" on="0"/>
        <pt x="327" y="-8" on="1"/>
      </contour>
      <contour>
        <pt x="201" y="391" on="0"/>
        <pt x="151" y="304" on="0"/>
        <pt x="151" y="189" on="0"/>
        <pt x="200" y="101" on="0"/>
        <pt x="244" y="81" on="1"/>
        <pt x="244" y="411" on="1"/>
      </contour>
    </TTGlyph>
    <TTGlyph name="circumflex" xMin="50" yMin="595" xMax="370" yMax="784">
      <contour>
        <pt x="370" y="595" on="1"/>
        <pt x="281" y="595" on="1"/>
        <pt x="210" y="714" on="1"/>
        <pt x="139" y="595" on="1"/>
        <pt x="50" y="595" on="1"/>
        <pt x="161" y="784" on="1"/>
        <pt x="259" y="784" on="1"/>
      </contour>
    </TTGlyph>
    <TTGlyph name="colon" xMin="73" yMin="-11" xMax="191" yMax="512">
      <contour>
        <pt x="157" y="-11" on="0"/>
        <pt x="107" y="-11" on="0"/>
        <pt x="73" y="23" on="0"/>
        <pt x="73" y="73" on="0"/>
        <pt x="107" y="107" on="0"/>
        <pt x="157" y="107" on="0"/>
        <pt x="191" y="73" on="0"/>
        <pt x="191" y="23" on="0"/>
      </contour>
      <contour>
        <pt x="157" y="394" on="0"/>
        <pt x="107" y="394" on="0"/>
        <pt x="73" y="428" on="0"/>
        <pt x="73" y="478" on="0"/>
        <pt x="107" y="512" on="0"/>
        <pt x="157" y="512" on="0"/>
        <pt x="191" y="478" on="0"/>
        <pt x="191" y="428" on="0"/>
      </contour>
    </TTGlyph>
    <TTGlyph name="comma" xMin="71" yMin="-120" xMax="199" yMax="107">
      <contour>
        <pt x="89" y="-120" on="1"/>
        <pt x="89" y="-72" on="1"/>
        <pt x="107" y="-72" on="0"/>
        <pt x="135" y="-45" on="0"/>
        <pt x="135" y="-19" on="1"/>
        <pt x="135" y="-11" on="1"/>
        <pt x="130" y="-11" on="1"/>
        <pt x="105" y="-11" on="0"/>
        <pt x="71" y="23" on="0"/>
        <pt x="71" y="73" on="0"/>
        <pt x="105" y="107" on="0"/>
        <pt x="166" y="107" on="0"/>
        <pt x="199" y="54" on="0"/>
        <pt x="199" y="13" on="1"/>
        <pt x="199" y="-56" on="0"/>
        <pt x="137" y="-120" on="0"/>
      </contour>
    </TTGlyph>
    <TTGlyph name="copyright" xMin="57" yMin="24" xMax="705" yMax="672">
      <contour>
        <pt x="705" y="479" on="0"/>
        <pt x="705" y="217" on="0"/>
        <pt x="512" y="24" on="0"/>
        <pt x="250" y="24" on="0"/>
        <pt x="57" y="217" on="0"/>
        <pt x="57" y="479" on="0"/>
        <pt x="250" y="672" on="0"/>
        <pt x="512" y="672" on="0"/>
      </contour>
      <contour>
        <pt x="273" y="88" on="0"/>
        <pt x="489" y="88" on="0"/>
        <pt x="641" y="240" on="0"/>
        <pt x="641" y="456" on="0"/>
        <pt x="489" y="608" on="0"/>
        <pt x="273" y="608" on="0"/>
        <pt x="121" y="456" on="0"/>
        <pt x="121" y="240" on="0"/>
      </contour>
      <contour>
        <pt x="385" y="171" on="1"/>
        <pt x="314" y="171" on="0"/>
        <pt x="210" y="263" on="0"/>
        <pt x="210" y="434" on="0"/>
        <pt x="320" y="534" on="0"/>
        <pt x="394" y="534" on="1"/>
        <pt x="413" y="534" on="0"/>
        <pt x="425" y="531" on="1"/>
        <pt x="444" y="526" on="1"/>
        <pt x="451" y="524" on="0"/>
        <pt x="464" y="518" on="0"/>
        <pt x="475" y="513" on="0"/>
        <pt x="483" y="509" on="0"/>
        <pt x="492" y="503" on="1"/>
        <pt x="492" y="436" on="1"/>
        <pt x="446" y="436" on="1"/>
        <pt x="437" y="471" on="1"/>
        <pt x="427" y="482" on="0"/>
        <pt x="395" y="482" on="1"/>
        <pt x="340" y="482" on="0"/>
        <pt x="278" y="406" on="0"/>
        <pt x="278" y="293" on="0"/>
        <pt x="343" y="226" on="0"/>
        <pt x="392" y="226" on="1"/>
        <pt x="438" y="226" on="0"/>
        <pt x="471" y="246" on="1"/>
        <pt x="482" y="252" on="1"/>
        <pt x="510" y="210" on="1"/>
        <pt x="491" y="195" on="0"/>
        <pt x="421" y="171" on="0"/>
      </contour>
    </TTGlyph>
    <TTGlyph name="currency" xMin="59" yMin="78" xMax="525" yMax="544">
      <contour>
        <pt x="400" y="142" on="1"/>
        <pt x="353" y="112" on="0"/>
        <pt x="235" y="112" on="0"/>
        <pt x="186" y="144" on="1"/>
        <pt x="120" y="78" on="1"/>
        <pt x="60" y="138" on="1"/>
        <pt x="126" y="204" on="1"/>
        <pt x="95" y="252" on="0"/>
        <pt x="95" y="366" on="0"/>
        <pt x="124" y="416" on="1"/>
        <pt x="59" y="481" on="1"/>
        <pt x="122" y="544" on="1"/>
        <pt x="186" y="479" on="1"/>
        <pt x="235" y="512" on="0"/>
        <pt x="352" y="512" on="0"/>
        <pt x="402" y="480" on="1"/>
        <pt x="465" y="543" on="1"/>
        <pt x="525" y="483" on="1"/>
        <pt x="463" y="420" on="1"/>
        <pt x="495" y="370" on="0"/>
        <pt x="495" y="253" on="0"/>
        <pt x="461" y="201" on="1"/>
        <pt x="525" y="138" on="1"/>
        <pt x="465" y="78" on="1"/>
      </contour>
      <contour>
        <pt x="340" y="202" on="0"/>
        <pt x="405" y="266" on="0"/>
        <pt x="405" y="357" on="0"/>
        <pt x="340" y="422" on="0"/>
        <pt x="249" y="422" on="0"/>
        <pt x="185" y="357" on="0"/>
        <pt x="185" y="266" on="0"/>
        <pt x="249" y="202" on="0"/>
      </contour>
    </TTGlyph>
    <TTGlyph name="d" xMin="47" yMin="-11" xMax="589" yMax="772">
      <contour>
        <pt x="589" y="68" on="1"/>
        <pt x="589" y="8" on="1"/>
        <pt x="550" y="-11" on="0"/>
        <pt x="457" y="-11" on="0"/>
        <pt x="416" y="23" on="0"/>
        <pt x="412" y="56" on="1"/>
        <pt x="366" y="-10" on="0"/>
        <pt x="268" y="-10" on="1"/>
        <pt x="189" y="-10" on="0"/>
        <pt x="122" y="44" on="1"/>
        <pt x="88" y="72" on="0"/>
        <pt x="47" y="175" on="0"/>
        <pt x="47" y="311" on="0"/>
        <pt x="101" y="418" on="0"/>
        <pt x="145" y="449" on="1"/>
        <pt x="234" y="512" on="0"/>
        <pt x="342" y="512" on="1"/>
        <pt x="374" y="512" on="0"/>
        <pt x="411" y="498" on="1"/>
        <pt x="411" y="693" on="1"/>
        <pt x="327" y="693" on="1"/>
        <pt x="327" y="753" on="1"/>
        <pt x="366" y="772" on="0"/>
        <pt x="469" y="772" on="0"/>
        <pt x="505" y="723" on="0"/>
        <pt x="505" y="673" on="1"/>
        <pt x="505" y="68" on="1"/>
      </contour>
      <contour>
        <pt x="342" y="433" on="1"/>
        <pt x="253" y="433" on="0"/>
        <pt x="144" y="336" on="0"/>
        <pt x="144" y="160" on="0"/>
        <pt x="231" y="63" on="0"/>
        <pt x="282" y="63" on="1"/>
        <pt x="368" y="63" on="0"/>
        <pt x="411" y="126" on="1"/>
        <pt x="411" y="418" on="1"/>
        <pt x="366" y="433" on="0"/>
      </contour>
    </TTGlyph>
    <TTGlyph name="dagger" xMin="52" yMin="-279" xMax="322" yMax="772">
      <contour>
        <pt x="228" y="-279" on="1"/>
        <pt x="145" y="-279" on="1"/>
        <pt x="145" y="516" on="1"/>
        <pt x="52" y="501" on="1"/>
        <pt x="52" y="611" on="1"/>
        <pt x="145" y="591" on="1"/>
        <pt x="145" y="772" on="1"/>
        <pt x="228" y="772" on="1"/>
        <pt x="228" y="590" on="1"/>
        <pt x="322" y="611" on="1"/>
        <pt x="322" y="501" on="1"/>
        <pt x="228" y="517" on="1"/>
      </contour>
    </TTGlyph>
    <TTGlyph name="daggerdbl" xMin="54" yMin="-279" xMax="324" yMax="772">
      <contour>
        <pt x="230" y="-279" on="1"/>
        <pt x="147" y="-279" on="1"/>
        <pt x="147" y="-60" on="1"/>
        <pt x="54" y="-76" on="1"/>
        <pt x="54" y="34" on="1"/>
        <pt x="147" y="14" on="1"/>
        <pt x="147" y="516" on="1"/>
        <pt x="54" y="501" on="1"/>
        <pt x="54" y="611" on="1"/>
        <pt x="147" y="591" on="1"/>
        <pt x="147" y="772" on="1"/>
        <pt x="230" y="772" on="1"/>
        <pt x="230" y="590" on="1"/>
        <pt x="324" y="611" on="1"/>
        <pt x="324" y="501" on="1"/>
        <pt x="230" y="517" on="1"/>
        <pt x="230" y="13" on="1"/>
        <pt x="324" y="34" on="1"/>
        <pt x="324" y="-76" on="1"/>
        <pt x="230" y="-60" on="1"/>
      </contour>
    </TTGlyph>
    <TTGlyph name="degree" xMin="57" yMin="462" xMax="307" yMax="713">
      <contour>
        <pt x="307" y="639" on="0"/>
        <pt x="307" y="535" on="0"/>
        <pt x="233" y="462" on="0"/>
        <pt x="129" y="462" on="0"/>
        <pt x="57" y="535" on="0"/>
        <pt x="57" y="639" on="0"/>
        <pt x="129" y="713" on="0"/>
        <pt x="233" y="713" on="0"/>
      </contour>
      <contour>
        <pt x="258" y="555" on="0"/>
        <pt x="258" y="619" on="0"/>
        <pt x="213" y="664" on="0"/>
        <pt x="150" y="664" on="0"/>
        <pt x="106" y="619" on="0"/>
        <pt x="106" y="555" on="0"/>
        <pt x="150" y="511" on="0"/>
        <pt x="213" y="511" on="0"/>
      </contour>
    </TTGlyph>
    <TTGlyph name="dieresis" xMin="50" yMin="577" xMax="387" yMax="698">
      <contour>
        <pt x="171" y="662" on="0"/>
        <pt x="171" y="612" on="0"/>
        <pt x="136" y="577" on="0"/>
        <pt x="84" y="577" on="0"/>
        <pt x="50" y="612" on="0"/>
        <pt x="50" y="663" on="0"/>
        <pt x="85" y="698" on="0"/>
        <pt x="136" y="698" on="0"/>
      </contour>
      <contour>
        <pt x="387" y="662" on="0"/>
        <pt x="387" y="612" on="0"/>
        <pt x="352" y="577" on="0"/>
        <pt x="300" y="577" on="0"/>
        <pt x="266" y="612" on="0"/>
        <pt x="266" y="663" on="0"/>
        <pt x="301" y="698" on="0"/>
        <pt x="352" y="698" on="0"/>
      </contour>
    </TTGlyph>
    <TTGlyph name="divide" xMin="71" yMin="-11" xMax="468" yMax="512">
      <contour>
        <pt x="468" y="234" on="1"/>
        <pt x="71" y="234" on="1"/>
        <pt x="71" y="305" on="1"/>
        <pt x="468" y="305" on="1"/>
      </contour>
      <contour>
        <pt x="290" y="-11" on="0"/>
        <pt x="240" y="-11" on="0"/>
        <pt x="206" y="23" on="0"/>
        <pt x="206" y="73" on="0"/>
        <pt x="240" y="107" on="0"/>
        <pt x="290" y="107" on="0"/>
        <pt x="324" y="73" on="0"/>
        <pt x="324" y="23" on="0"/>
      </contour>
      <contour>
        <pt x="290" y="394" on="0"/>
        <pt x="240" y="394" on="0"/>
        <pt x="206" y="428" on="0"/>
        <pt x="206" y="478" on="0"/>
        <pt x="240" y="512" on="0"/>
        <pt x="290" y="512" on="0"/>
        <pt x="324" y="478" on="0"/>
        <pt x="324" y="428" on="0"/>
      </contour>
    </TTGlyph>
    <TTGlyph name="dollar" xMin="51" yMin="-149" xMax="487" yMax="857">
      <contour>
        <pt x="309" y="713" on="1"/>
        <pt x="422" y="703" on="0"/>
        <pt x="473" y="669" on="1"/>
        <pt x="473" y="532" on="1"/>
        <pt x="414" y="530" on="1"/>
        <pt x="391" y="611" on="1"/>
        <pt x="350" y="632" on="0"/>
        <pt x="284" y="632" on="1"/>
        <pt x="149" y="632" on="0"/>
        <pt x="149" y="546" on="1"/>
        <pt x="149" y="498" on="0"/>
        <pt x="222" y="435" on="0"/>
        <pt x="299" y="407" on="1"/>
        <pt x="487" y="338" on="0"/>
        <pt x="487" y="187" on="1"/>
        <pt x="487" y="110" on="0"/>
        <pt x="397" y="5" on="0"/>
        <pt x="310" y="-7" on="1"/>
        <pt x="326" y="-149" on="1"/>
        <pt x="215" y="-149" on="1"/>
        <pt x="231" y="-10" on="1"/>
        <pt x="185" y="-7" on="0"/>
        <pt x="142" y="6" on="1"/>
        <pt x="75" y="26" on="0"/>
        <pt x="51" y="47" on="1"/>
        <pt x="51" y="190" on="1"/>
        <pt x="111" y="190" on="1"/>
        <pt x="139" y="97" on="1"/>
        <pt x="178" y="66" on="0"/>
        <pt x="266" y="66" on="1"/>
        <pt x="323" y="66" on="0"/>
        <pt x="392" y="126" on="0"/>
        <pt x="392" y="217" on="0"/>
        <pt x="317" y="298" on="0"/>
        <pt x="226" y="332" on="1"/>
        <pt x="54" y="397" on="0"/>
        <pt x="54" y="514" on="1"/>
        <pt x="54" y="601" on="0"/>
        <pt x="154" y="702" on="0"/>
        <pt x="231" y="712" on="1"/>
        <pt x="215" y="857" on="1"/>
        <pt x="326" y="857" on="1"/>
      </contour>
    </TTGlyph>
    <TTGlyph name="e" xMin="47" yMin="-10" xMax="515" yMax="512">
      <contour>
        <pt x="301" y="-10" on="1"/>
        <pt x="188" y="-10" on="0"/>
        <pt x="47" y="119" on="0"/>
        <pt x="47" y="367" on="0"/>
        <pt x="191" y="512" on="0"/>
        <pt x="287" y="512" on="1"/>
        <pt x="515" y="512" on="0"/>
        <pt x="515" y="242" on="1"/>
        <pt x="144" y="242" on="1"/>
        <pt x="144" y="237" on="1"/>
        <pt x="144" y="166" on="0"/>
        <pt x="244" y="68" on="0"/>
        <pt x="330" y="68" on="1"/>
        <pt x="367" y="68" on="0"/>
        <pt x="433" y="85" on="0"/>
        <pt x="448" y="94" on="1"/>
        <pt x="462" y="102" on="1"/>
        <pt x="491" y="50" on="1"/>
        <pt x="488" y="48" on="0"/>
        <pt x="477" y="39" on="0"/>
        <pt x="441" y="19" on="0"/>
        <pt x="420" y="11" on="1"/>
        <pt x="367" y="-10" on="0"/>
      </contour>
      <contour>
        <pt x="417" y="368" on="0"/>
        <pt x="346" y="433" on="0"/>
        <pt x="233" y="433" on="0"/>
        <pt x="159" y="370" on="0"/>
        <pt x="148" y="306" on="1"/>
        <pt x="422" y="306" on="1"/>
      </contour>
    </TTGlyph>
    <TTGlyph name="eacute" xMin="47" yMin="-10" xMax="515" yMax="784">
      <contour>
        <pt x="301" y="-10" on="1"/>
        <pt x="188" y="-10" on="0"/>
        <pt x="47" y="119" on="0"/>
        <pt x="47" y="367" on="0"/>
        <pt x="191" y="512" on="0"/>
        <pt x="287" y="512" on="1"/>
        <pt x="515" y="512" on="0"/>
        <pt x="515" y="242" on="1"/>
        <pt x="144" y="242" on="1"/>
        <pt x="144" y="237" on="1"/>
        <pt x="144" y="166" on="0"/>
        <pt x="244" y="68" on="0"/>
        <pt x="330" y="68" on="1"/>
        <pt x="367" y="68" on="0"/>
        <pt x="433" y="85" on="0"/>
        <pt x="448" y="94" on="1"/>
        <pt x="462" y="102" on="1"/>
        <pt x="491" y="50" on="1"/>
        <pt x="488" y="48" on="0"/>
        <pt x="477" y="39" on="0"/>
        <pt x="441" y="19" on="0"/>
        <pt x="420" y="11" on="1"/>
        <pt x="367" y="-10" on="0"/>
      </contour>
      <contour>
        <pt x="417" y="368" on="0"/>
        <pt x="346" y="433" on="0"/>
        <pt x="233" y="433" on="0"/>
        <pt x="159" y="370" on="0"/>
        <pt x="148" y="306" on="1"/>
        <pt x="422" y="306" on="1"/>
      </contour>
      <contour>
        <pt x="325" y="595" on="1"/>
        <pt x="236" y="595" on="1"/>
        <pt x="337" y="784" on="1"/>
        <pt x="454" y="784" on="1"/>
      </contour>
    </TTGlyph>
    <TTGlyph name="ecircumflex" xMin="47" yMin="-10" xMax="515" yMax="784">
      <contour>
        <pt x="301" y="-10" on="1"/>
        <pt x="188" y="-10" on="0"/>
        <pt x="47" y="119" on="0"/>
        <pt x="47" y="367" on="0"/>
        <pt x="191" y="512" on="0"/>
        <pt x="287" y="512" on="1"/>
        <pt x="515" y="512" on="0"/>
        <pt x="515" y="242" on="1"/>
        <pt x="144" y="242" on="1"/>
        <pt x="144" y="237" on="1"/>
        <pt x="144" y="166" on="0"/>
        <pt x="244" y="68" on="0"/>
        <pt x="330" y="68" on="1"/>
        <pt x="367" y="68" on="0"/>
        <pt x="433" y="85" on="0"/>
        <pt x="448" y="94" on="1"/>
        <pt x="462" y="102" on="1"/>
        <pt x="491" y="50" on="1"/>
        <pt x="488" y="48" on="0"/>
        <pt x="477" y="39" on="0"/>
        <pt x="441" y="19" on="0"/>
        <pt x="420" y="11" on="1"/>
        <pt x="367" y="-10" on="0"/>
      </contour>
      <contour>
        <pt x="417" y="368" on="0"/>
        <pt x="346" y="433" on="0"/>
        <pt x="233" y="433" on="0"/>
        <pt x="159" y="370" on="0"/>
        <pt x="148" y="306" on="1"/>
        <pt x="422" y="306" on="1"/>
      </contour>
      <contour>
        <pt x="451" y="595" on="1"/>
        <pt x="362" y="595" on="1"/>
        <pt x="291" y="714" on="1"/>
        <pt x="220" y="595" on="1"/>
        <pt x="131" y="595" on="1"/>
        <pt x="242" y="784" on="1"/>
        <pt x="340" y="784" on="1"/>
      </contour>
    </TTGlyph>
    <TTGlyph name="edieresis" xMin="47" yMin="-10" xMax="515" yMax="698">
      <component glyphName="e" x="0" y="0" flags="0x1004"/>
      <component glyphName="dieresis" x="60" y="0" flags="0x1004"/>
    </TTGlyph>
    <TTGlyph name="egrave" xMin="47" yMin="-10" xMax="515" yMax="784">
      <component glyphName="e" x="0" y="0" flags="0x1004"/>
      <component glyphName="grave" x="72" y="0" flags="0x1004"/>
    </TTGlyph>
    <TTGlyph name="eight" xMin="58" yMin="-11" xMax="590" yMax="715">
      <contour>
        <pt x="460" y="388" on="1"/>
        <pt x="460" y="387" on="1"/>
        <pt x="490" y="387" on="0"/>
        <pt x="535" y="350" on="1"/>
        <pt x="558" y="331" on="0"/>
        <pt x="590" y="255" on="0"/>
        <pt x="590" y="206" on="1"/>
        <pt x="590" y="110" on="0"/>
        <pt x="443" y="-11" on="0"/>
        <pt x="206" y="-11" on="0"/>
        <pt x="58" y="110" on="0"/>
        <pt x="58" y="206" on="1"/>
        <pt x="58" y="255" on="0"/>
        <pt x="90" y="331" on="0"/>
        <pt x="112" y="350" on="1"/>
        <pt x="156" y="387" on="0"/>
        <pt x="188" y="387" on="1"/>
        <pt x="188" y="388" on="1"/>
        <pt x="160" y="388" on="0"/>
        <pt x="82" y="465" on="0"/>
        <pt x="82" y="604" on="0"/>
        <pt x="202" y="714" on="0"/>
        <pt x="446" y="715" on="0"/>
        <pt x="566" y="604" on="0"/>
        <pt x="566" y="465" on="0"/>
        <pt x="487" y="388" on="0"/>
      </contour>
      <contour>
        <pt x="352" y="341" on="1"/>
        <pt x="296" y="341" on="1"/>
        <pt x="231" y="341" on="0"/>
        <pt x="148" y="271" on="0"/>
        <pt x="148" y="147" on="0"/>
        <pt x="244" y="70" on="0"/>
        <pt x="404" y="70" on="0"/>
        <pt x="499" y="148" on="0"/>
        <pt x="499" y="271" on="0"/>
        <pt x="416" y="341" on="0"/>
      </contour>
      <contour>
        <pt x="398" y="417" on="0"/>
        <pt x="476" y="471" on="0"/>
        <pt x="476" y="570" on="0"/>
        <pt x="397" y="635" on="0"/>
        <pt x="251" y="635" on="0"/>
        <pt x="172" y="570" on="0"/>
        <pt x="172" y="470" on="0"/>
        <pt x="252" y="416" on="0"/>
        <pt x="300" y="416" on="1"/>
        <pt x="302" y="416" on="0"/>
        <pt x="304" y="416" on="1"/>
        <pt x="346" y="416" on="1"/>
      </contour>
    </TTGlyph>
    <TTGlyph name="ellipsis" xMin="71" yMin="-11" xMax="539" yMax="107">
      <contour>
        <pt x="155" y="-11" on="0"/>
        <pt x="105" y="-11" on="0"/>
        <pt x="71" y="23" on="0"/>
        <pt x="71" y="73" on="0"/>
        <pt x="105" y="107" on="0"/>
        <pt x="155" y="107" on="0"/>
        <pt x="189" y="73" on="0"/>
        <pt x="189" y="23" on="0"/>
      </contour>
      <contour>
        <pt x="330" y="-11" on="0"/>
        <pt x="280" y="-11" on="0"/>
        <pt x="246" y="23" on="0"/>
        <pt x="246" y="73" on="0"/>
        <pt x="280" y="107" on="0"/>
        <pt x="330" y="107" on="0"/>
        <pt x="364" y="73" on="0"/>
        <pt x="364" y="23" on="0"/>
      </contour>
      <contour>
        <pt x="505" y="-11" on="0"/>
        <pt x="455" y="-11" on="0"/>
        <pt x="421" y="23" on="0"/>
        <pt x="421" y="73" on="0"/>
        <pt x="455" y="107" on="0"/>
        <pt x="505" y="107" on="0"/>
        <pt x="539" y="73" on="0"/>
        <pt x="539" y="23" on="0"/>
      </contour>
    </TTGlyph>
    <TTGlyph name="emdash" xMin="73" yMin="235" xMax="915" yMax="298">
      <contour>
        <pt x="915" y="235" on="1"/>
        <pt x="73" y="235" on="1"/>
        <pt x="73" y="298" on="1"/>
        <pt x="915" y="298" on="1"/>
      </contour>
    </TTGlyph>
    <TTGlyph name="endash" xMin="73" yMin="235" xMax="594" yMax="298">
      <contour>
        <pt x="594" y="235" on="1"/>
        <pt x="73" y="235" on="1"/>
        <pt x="73" y="298" on="1"/>
        <pt x="594" y="298" on="1"/>
      </contour>
    </TTGlyph>
    <TTGlyph name="equal" xMin="76" yMin="165" xMax="473" yMax="443">
      <contour>
        <pt x="473" y="165" on="1"/>
        <pt x="76" y="165" on="1"/>
        <pt x="76" y="236" on="1"/>
        <pt x="473" y="236" on="1"/>
      </contour>
      <contour>
        <pt x="473" y="372" on="1"/>
        <pt x="76" y="372" on="1"/>
        <pt x="76" y="443" on="1"/>
        <pt x="473" y="443" on="1"/>
      </contour>
    </TTGlyph>
    <TTGlyph name="eth" xMin="50" yMin="-11" xMax="570" yMax="715">
      <contour>
        <pt x="503" y="608" on="1"/>
        <pt x="568" y="510" on="0"/>
        <pt x="568" y="159" on="0"/>
        <pt x="427" y="-11" on="0"/>
        <pt x="180" y="-11" on="0"/>
        <pt x="50" y="113" on="0"/>
        <pt x="50" y="324" on="0"/>
        <pt x="187" y="446" on="0"/>
        <pt x="290" y="446" on="1"/>
        <pt x="325" y="446" on="0"/>
        <pt x="393" y="425" on="0"/>
        <pt x="429" y="404" on="0"/>
        <pt x="448" y="390" on="1"/>
        <pt x="467" y="376" on="1"/>
        <pt x="463" y="492" on="0"/>
        <pt x="427" y="556" on="1"/>
        <pt x="308" y="476" on="1"/>
        <pt x="272" y="532" on="1"/>
        <pt x="382" y="607" on="1"/>
        <pt x="346" y="633" on="0"/>
        <pt x="251" y="633" on="0"/>
        <pt x="187" y="612" on="0"/>
        <pt x="176" y="602" on="1"/>
        <pt x="165" y="592" on="1"/>
        <pt x="145" y="518" on="1"/>
        <pt x="69" y="518" on="1"/>
        <pt x="69" y="621" on="1"/>
        <pt x="99" y="668" on="0"/>
        <pt x="224" y="715" on="0"/>
        <pt x="287" y="715" on="1"/>
        <pt x="392" y="715" on="0"/>
        <pt x="458" y="658" on="1"/>
        <pt x="534" y="710" on="1"/>
        <pt x="570" y="654" on="1"/>
      </contour>
      <contour>
        <pt x="228" y="365" on="0"/>
        <pt x="145" y="287" on="0"/>
        <pt x="145" y="150" on="0"/>
        <pt x="228" y="70" on="0"/>
        <pt x="366" y="70" on="0"/>
        <pt x="458" y="182" on="0"/>
        <pt x="464" y="281" on="1"/>
        <pt x="463" y="282" on="0"/>
        <pt x="442" y="304" on="0"/>
        <pt x="416" y="325" on="0"/>
        <pt x="397" y="338" on="1"/>
        <pt x="355" y="365" on="0"/>
      </contour>
    </TTGlyph>
    <TTGlyph name="exclam" xMin="86" yMin="-10" xMax="213" yMax="768">
      <contour>
        <pt x="187" y="216" on="1"/>
        <pt x="120" y="216" on="1"/>
        <pt x="99" y="768" on="1"/>
        <pt x="213" y="768" on="1"/>
      </contour>
      <contour>
        <pt x="174" y="115" on="0"/>
        <pt x="211" y="80" on="0"/>
        <pt x="211" y="27" on="0"/>
        <pt x="173" y="-10" on="0"/>
        <pt x="120" y="-10" on="0"/>
        <pt x="86" y="26" on="0"/>
        <pt x="86" y="78" on="0"/>
        <pt x="120" y="115" on="0"/>
      </contour>
    </TTGlyph>
    <TTGlyph name="exclamdown" xMin="72" yMin="-267" xMax="199" yMax="511">
      <contour>
        <pt x="173" y="285" on="1"/>
        <pt x="199" y="-267" on="1"/>
        <pt x="85" y="-267" on="1"/>
        <pt x="106" y="285" on="1"/>
      </contour>
      <contour>
        <pt x="159" y="511" on="0"/>
        <pt x="197" y="474" on="0"/>
        <pt x="197" y="421" on="0"/>
        <pt x="160" y="386" on="0"/>
        <pt x="106" y="386" on="0"/>
        <pt x="72" y="423" on="0"/>
        <pt x="72" y="475" on="0"/>
        <pt x="106" y="511" on="0"/>
      </contour>
    </TTGlyph>
    <TTGlyph name="f" xMin="40" yMin="0" xMax="439" yMax="773">
      <contour>
        <pt x="305" y="0" on="1"/>
        <pt x="40" y="0" on="1"/>
        <pt x="40" y="43" on="1"/>
        <pt x="124" y="76" on="1"/>
        <pt x="124" y="419" on="1"/>
        <pt x="46" y="419" on="1"/>
        <pt x="46" y="479" on="1"/>
        <pt x="124" y="511" on="1"/>
        <pt x="124" y="571" on="1"/>
        <pt x="124" y="670" on="0"/>
        <pt x="225" y="773" on="0"/>
        <pt x="317" y="773" on="1"/>
        <pt x="353" y="773" on="0"/>
        <pt x="414" y="752" on="0"/>
        <pt x="426" y="741" on="1"/>
        <pt x="439" y="730" on="1"/>
        <pt x="412" y="678" on="1"/>
        <pt x="384" y="694" on="0"/>
        <pt x="273" y="694" on="0"/>
        <pt x="220" y="629" on="0"/>
        <pt x="220" y="543" on="1"/>
        <pt x="220" y="500" on="1"/>
        <pt x="381" y="500" on="1"/>
        <pt x="381" y="419" on="1"/>
        <pt x="220" y="419" on="1"/>
        <pt x="220" y="76" on="1"/>
        <pt x="305" y="43" on="1"/>
      </contour>
    </TTGlyph>
    <TTGlyph name="fi" xMin="40" yMin="0" xMax="703" yMax="773">
      <contour>
        <pt x="703" y="0" on="1"/>
        <pt x="440" y="0" on="1"/>
        <pt x="440" y="43" on="1"/>
        <pt x="524" y="76" on="1"/>
        <pt x="524" y="419" on="1"/>
        <pt x="220" y="419" on="1"/>
        <pt x="220" y="76" on="1"/>
        <pt x="305" y="43" on="1"/>
        <pt x="305" y="0" on="1"/>
        <pt x="40" y="0" on="1"/>
        <pt x="40" y="43" on="1"/>
        <pt x="124" y="76" on="1"/>
        <pt x="124" y="419" on="1"/>
        <pt x="46" y="419" on="1"/>
        <pt x="46" y="479" on="1"/>
        <pt x="124" y="511" on="1"/>
        <pt x="124" y="571" on="1"/>
        <pt x="124" y="670" on="0"/>
        <pt x="225" y="773" on="0"/>
        <pt x="317" y="773" on="1"/>
        <pt x="353" y="773" on="0"/>
        <pt x="414" y="752" on="0"/>
        <pt x="426" y="741" on="1"/>
        <pt x="439" y="730" on="1"/>
        <pt x="412" y="678" on="1"/>
        <pt x="384" y="694" on="0"/>
        <pt x="273" y="694" on="0"/>
        <pt x="220" y="629" on="0"/>
        <pt x="220" y="543" on="1"/>
        <pt x="220" y="500" on="1"/>
        <pt x="524" y="500" on="1"/>
        <pt x="582" y="500" on="0"/>
        <pt x="618" y="451" on="0"/>
        <pt x="618" y="401" on="1"/>
        <pt x="618" y="76" on="1"/>
        <pt x="703" y="43" on="1"/>
      </contour>
      <contour>
        <pt x="599" y="604" on="0"/>
        <pt x="533" y="604" on="0"/>
        <pt x="487" y="650" on="0"/>
        <pt x="487" y="716" on="0"/>
        <pt x="533" y="762" on="0"/>
        <pt x="599" y="762" on="0"/>
        <pt x="645" y="716" on="0"/>
        <pt x="645" y="650" on="0"/>
      </contour>
    </TTGlyph>
    <TTGlyph name="five" xMin="66" yMin="-11" xMax="572" yMax="704">
      <contour>
        <pt x="310" y="70" on="1"/>
        <pt x="382" y="70" on="0"/>
        <pt x="467" y="160" on="0"/>
        <pt x="467" y="293" on="0"/>
        <pt x="376" y="371" on="0"/>
        <pt x="313" y="371" on="1"/>
        <pt x="270" y="371" on="0"/>
        <pt x="204" y="348" on="0"/>
        <pt x="192" y="337" on="1"/>
        <pt x="181" y="326" on="1"/>
        <pt x="84" y="326" on="1"/>
        <pt x="84" y="704" on="1"/>
        <pt x="541" y="704" on="1"/>
        <pt x="541" y="527" on="1"/>
        <pt x="478" y="527" on="1"/>
        <pt x="445" y="628" on="1"/>
        <pt x="185" y="628" on="1"/>
        <pt x="185" y="423" on="1"/>
        <pt x="225" y="453" on="0"/>
        <pt x="316" y="453" on="1"/>
        <pt x="431" y="453" on="0"/>
        <pt x="572" y="322" on="0"/>
        <pt x="572" y="122" on="0"/>
        <pt x="425" y="-11" on="0"/>
        <pt x="308" y="-11" on="1"/>
        <pt x="179" y="-11" on="0"/>
        <pt x="100" y="49" on="1"/>
        <pt x="81" y="63" on="0"/>
        <pt x="74" y="72" on="1"/>
        <pt x="66" y="82" on="1"/>
        <pt x="66" y="200" on="1"/>
        <pt x="142" y="200" on="1"/>
        <pt x="162" y="111" on="1"/>
        <pt x="174" y="96" on="0"/>
        <pt x="261" y="70" on="0"/>
      </contour>
    </TTGlyph>
    <TTGlyph name="fl" xMin="40" yMin="0" xMax="702" yMax="773">
      <contour>
        <pt x="305" y="0" on="1"/>
        <pt x="40" y="0" on="1"/>
        <pt x="40" y="43" on="1"/>
        <pt x="124" y="76" on="1"/>
        <pt x="124" y="419" on="1"/>
        <pt x="46" y="419" on="1"/>
        <pt x="46" y="479" on="1"/>
        <pt x="124" y="511" on="1"/>
        <pt x="124" y="571" on="1"/>
        <pt x="124" y="670" on="0"/>
        <pt x="225" y="773" on="0"/>
        <pt x="317" y="773" on="1"/>
        <pt x="353" y="773" on="0"/>
        <pt x="414" y="752" on="0"/>
        <pt x="426" y="741" on="1"/>
        <pt x="439" y="730" on="1"/>
        <pt x="412" y="678" on="1"/>
        <pt x="384" y="694" on="0"/>
        <pt x="273" y="694" on="0"/>
        <pt x="220" y="629" on="0"/>
        <pt x="220" y="543" on="1"/>
        <pt x="220" y="500" on="1"/>
        <pt x="381" y="500" on="1"/>
        <pt x="381" y="419" on="1"/>
        <pt x="220" y="419" on="1"/>
        <pt x="220" y="76" on="1"/>
        <pt x="305" y="43" on="1"/>
      </contour>
      <contour>
        <pt x="702" y="0" on="1"/>
        <pt x="439" y="0" on="1"/>
        <pt x="439" y="43" on="1"/>
        <pt x="523" y="76" on="1"/>
        <pt x="523" y="693" on="1"/>
        <pt x="474" y="693" on="1"/>
        <pt x="474" y="763" on="1"/>
        <pt x="498" y="772" on="0"/>
        <pt x="523" y="772" on="1"/>
        <pt x="581" y="772" on="0"/>
        <pt x="617" y="723" on="0"/>
        <pt x="617" y="673" on="1"/>
        <pt x="617" y="76" on="1"/>
        <pt x="702" y="43" on="1"/>
      </contour>
    </TTGlyph>
    <TTGlyph name="florin" xMin="28" yMin="-275" xMax="663" yMax="773">
      <contour>
        <pt x="146" y="-275" on="1"/>
        <pt x="110" y="-275" on="0"/>
        <pt x="51" y="-254" on="0"/>
        <pt x="40" y="-243" on="1"/>
        <pt x="28" y="-232" on="1"/>
        <pt x="61" y="-180" on="1"/>
        <pt x="87" y="-196" on="0"/>
        <pt x="198" y="-196" on="0"/>
        <pt x="258" y="-131" on="0"/>
        <pt x="267" y="-45" on="1"/>
        <pt x="316" y="419" on="1"/>
        <pt x="238" y="419" on="1"/>
        <pt x="244" y="479" on="1"/>
        <pt x="326" y="511" on="1"/>
        <pt x="332" y="571" on="1"/>
        <pt x="342" y="670" on="0"/>
        <pt x="455" y="773" on="0"/>
        <pt x="546" y="773" on="1"/>
        <pt x="582" y="773" on="0"/>
        <pt x="641" y="752" on="0"/>
        <pt x="652" y="741" on="1"/>
        <pt x="663" y="730" on="1"/>
        <pt x="631" y="678" on="1"/>
        <pt x="605" y="694" on="0"/>
        <pt x="494" y="694" on="0"/>
        <pt x="435" y="629" on="0"/>
        <pt x="425" y="543" on="1"/>
        <pt x="420" y="500" on="1"/>
        <pt x="581" y="500" on="1"/>
        <pt x="573" y="419" on="1"/>
        <pt x="412" y="419" on="1"/>
        <pt x="360" y="-73" on="1"/>
        <pt x="350" y="-172" on="0"/>
        <pt x="237" y="-275" on="0"/>
      </contour>
    </TTGlyph>
    <TTGlyph name="four" xMin="30" yMin="0" xMax="583" yMax="706">
      <contour>
        <pt x="583" y="0" on="1"/>
        <pt x="194" y="0" on="1"/>
        <pt x="194" y="45" on="1"/>
        <pt x="353" y="73" on="1"/>
        <pt x="353" y="226" on="1"/>
        <pt x="30" y="226" on="1"/>
        <pt x="30" y="302" on="1"/>
        <pt x="360" y="706" on="1"/>
        <pt x="454" y="706" on="1"/>
        <pt x="454" y="302" on="1"/>
        <pt x="572" y="302" on="1"/>
        <pt x="572" y="226" on="1"/>
        <pt x="454" y="226" on="1"/>
        <pt x="454" y="73" on="1"/>
        <pt x="583" y="45" on="1"/>
      </contour>
      <contour>
        <pt x="353" y="302" on="1"/>
        <pt x="353" y="574" on="1"/>
        <pt x="139" y="302" on="1"/>
      </contour>
    </TTGlyph>
    <TTGlyph name="g" xMin="25" yMin="-279" xMax="568" yMax="512">
      <contour>
        <pt x="503" y="323" on="1"/>
        <pt x="503" y="239" on="0"/>
        <pt x="374" y="137" on="0"/>
        <pt x="283" y="137" on="1"/>
        <pt x="233" y="137" on="0"/>
        <pt x="188" y="154" on="1"/>
        <pt x="142" y="71" on="1"/>
        <pt x="336" y="71" on="1"/>
        <pt x="443" y="71" on="0"/>
        <pt x="539" y="-11" on="0"/>
        <pt x="539" y="-169" on="0"/>
        <pt x="401" y="-279" on="0"/>
        <pt x="153" y="-279" on="0"/>
        <pt x="25" y="-183" on="0"/>
        <pt x="25" y="-36" on="0"/>
        <pt x="97" y="-4" on="1"/>
        <pt x="55" y="10" on="0"/>
        <pt x="55" y="56" on="1"/>
        <pt x="59" y="81" on="1"/>
        <pt x="116" y="168" on="0"/>
        <pt x="128" y="188" on="1"/>
        <pt x="63" y="240" on="0"/>
        <pt x="63" y="407" on="0"/>
        <pt x="193" y="512" on="0"/>
        <pt x="283" y="512" on="1"/>
        <pt x="340" y="512" on="0"/>
        <pt x="393" y="488" on="1"/>
        <pt x="568" y="511" on="1"/>
        <pt x="565" y="424" on="1"/>
        <pt x="464" y="433" on="1"/>
        <pt x="503" y="386" on="0"/>
      </contour>
      <contour>
        <pt x="113" y="-99" on="1"/>
        <pt x="113" y="-145" on="0"/>
        <pt x="198" y="-200" on="0"/>
        <pt x="352" y="-200" on="0"/>
        <pt x="443" y="-142" on="0"/>
        <pt x="443" y="-91" on="1"/>
        <pt x="443" y="-9" on="0"/>
        <pt x="338" y="-9" on="1"/>
        <pt x="160" y="-10" on="1"/>
        <pt x="113" y="-36" on="0"/>
      </contour>
      <contour>
        <pt x="345" y="212" on="0"/>
        <pt x="415" y="278" on="0"/>
        <pt x="415" y="370" on="0"/>
        <pt x="345" y="438" on="0"/>
        <pt x="220" y="438" on="0"/>
        <pt x="152" y="371" on="0"/>
        <pt x="152" y="278" on="0"/>
        <pt x="221" y="212" on="0"/>
      </contour>
    </TTGlyph>
    <TTGlyph name="germandbls" xMin="26" yMin="-147" xMax="648" yMax="773">
      <contour>
        <pt x="291" y="-147" on="1"/>
        <pt x="26" y="-147" on="1"/>
        <pt x="26" y="-104" on="1"/>
        <pt x="110" y="-71" on="1"/>
        <pt x="110" y="419" on="1"/>
        <pt x="32" y="419" on="1"/>
        <pt x="32" y="479" on="1"/>
        <pt x="110" y="511" on="1"/>
        <pt x="110" y="541" on="1"/>
        <pt x="110" y="653" on="0"/>
        <pt x="225" y="773" on="0"/>
        <pt x="415" y="773" on="0"/>
        <pt x="537" y="672" on="0"/>
        <pt x="537" y="603" on="1"/>
        <pt x="537" y="520" on="0"/>
        <pt x="492" y="472" on="1"/>
        <pt x="473" y="451" on="0"/>
        <pt x="454" y="434" on="1"/>
        <pt x="410" y="393" on="0"/>
        <pt x="410" y="358" on="1"/>
        <pt x="410" y="315" on="0"/>
        <pt x="494" y="277" on="1"/>
        <pt x="529" y="261" on="0"/>
        <pt x="599" y="225" on="0"/>
        <pt x="648" y="170" on="0"/>
        <pt x="648" y="136" on="1"/>
        <pt x="648" y="64" on="0"/>
        <pt x="538" y="-11" on="0"/>
        <pt x="454" y="-11" on="1"/>
        <pt x="413" y="-11" on="0"/>
        <pt x="343" y="23" on="0"/>
        <pt x="329" y="40" on="1"/>
        <pt x="315" y="57" on="1"/>
        <pt x="315" y="154" on="1"/>
        <pt x="375" y="154" on="1"/>
        <pt x="396" y="82" on="1"/>
        <pt x="424" y="68" on="0"/>
        <pt x="466" y="68" on="1"/>
        <pt x="558" y="68" on="0"/>
        <pt x="558" y="133" on="1"/>
        <pt x="558" y="169" on="0"/>
        <pt x="476" y="203" on="1"/>
        <pt x="442" y="217" on="0"/>
        <pt x="375" y="249" on="0"/>
        <pt x="327" y="302" on="0"/>
        <pt x="327" y="378" on="0"/>
        <pt x="352" y="435" on="0"/>
        <pt x="387" y="468" on="0"/>
        <pt x="404" y="484" on="1"/>
        <pt x="446" y="525" on="0"/>
        <pt x="446" y="603" on="1"/>
        <pt x="446" y="644" on="0"/>
        <pt x="383" y="696" on="0"/>
        <pt x="271" y="696" on="0"/>
        <pt x="206" y="618" on="0"/>
        <pt x="206" y="513" on="1"/>
        <pt x="206" y="-71" on="1"/>
        <pt x="291" y="-104" on="1"/>
      </contour>
    </TTGlyph>
    <TTGlyph name="grave" xMin="50" yMin="595" xMax="268" yMax="784">
      <contour>
        <pt x="167" y="784" on="1"/>
        <pt x="268" y="595" on="1"/>
        <pt x="179" y="595" on="1"/>
        <pt x="50" y="784" on="1"/>
      </contour>
    </TTGlyph>
    <TTGlyph name="greater" xMin="63" yMin="-21" xMax="373" yMax="518">
      <contour>
        <pt x="373" y="289" on="1"/>
        <pt x="373" y="208" on="1"/>
        <pt x="63" y="-21" on="1"/>
        <pt x="63" y="90" on="1"/>
        <pt x="280" y="248" on="1"/>
        <pt x="63" y="407" on="1"/>
        <pt x="63" y="518" on="1"/>
      </contour>
    </TTGlyph>
    <TTGlyph name="guillemotleft" xMin="47" yMin="-21" xMax="545" yMax="518">
      <contour>
        <pt x="282" y="-21" on="1"/>
        <pt x="47" y="208" on="1"/>
        <pt x="47" y="289" on="1"/>
        <pt x="282" y="518" on="1"/>
        <pt x="282" y="407" on="1"/>
        <pt x="128" y="248" on="1"/>
        <pt x="282" y="90" on="1"/>
      </contour>
      <contour>
        <pt x="545" y="-21" on="1"/>
        <pt x="310" y="208" on="1"/>
        <pt x="310" y="289" on="1"/>
        <pt x="545" y="518" on="1"/>
        <pt x="545" y="407" on="1"/>
        <pt x="391" y="248" on="1"/>
        <pt x="545" y="90" on="1"/>
      </contour>
    </TTGlyph>
    <TTGlyph name="guillemotright" xMin="63" yMin="-21" xMax="561" yMax="518">
      <contour>
        <pt x="561" y="289" on="1"/>
        <pt x="561" y="208" on="1"/>
        <pt x="326" y="-21" on="1"/>
        <pt x="326" y="90" on="1"/>
        <pt x="480" y="248" on="1"/>
        <pt x="326" y="407" on="1"/>
        <pt x="326" y="518" on="1"/>
      </contour>
      <contour>
        <pt x="298" y="289" on="1"/>
        <pt x="298" y="208" on="1"/>
        <pt x="63" y="-21" on="1"/>
        <pt x="63" y="90" on="1"/>
        <pt x="217" y="248" on="1"/>
        <pt x="63" y="407" on="1"/>
        <pt x="63" y="518" on="1"/>
      </contour>
    </TTGlyph>
    <TTGlyph name="guilsinglleft" xMin="47" yMin="-21" xMax="282" yMax="518">
      <contour>
        <pt x="282" y="-21" on="1"/>
        <pt x="47" y="208" on="1"/>
        <pt x="47" y="289" on="1"/>
        <pt x="282" y="518" on="1"/>
        <pt x="282" y="407" on="1"/>
        <pt x="128" y="248" on="1"/>
        <pt x="282" y="90" on="1"/>
      </contour>
    </TTGlyph>
    <TTGlyph name="guilsinglright" xMin="63" yMin="-21" xMax="298" yMax="518">
      <contour>
        <pt x="298" y="289" on="1"/>
        <pt x="298" y="208" on="1"/>
        <pt x="63" y="-21" on="1"/>
        <pt x="63" y="90" on="1"/>
        <pt x="217" y="248" on="1"/>
        <pt x="63" y="407" on="1"/>
        <pt x="63" y="518" on="1"/>
      </contour>
    </TTGlyph>
    <TTGlyph name="h" xMin="29" yMin="0" xMax="627" yMax="772">
      <contour>
        <pt x="627" y="0" on="1"/>
        <pt x="364" y="0" on="1"/>
        <pt x="364" y="43" on="1"/>
        <pt x="444" y="76" on="1"/>
        <pt x="444" y="315" on="1"/>
        <pt x="444" y="374" on="0"/>
        <pt x="405" y="432" on="0"/>
        <pt x="354" y="432" on="1"/>
        <pt x="262" y="432" on="0"/>
        <pt x="207" y="377" on="1"/>
        <pt x="207" y="76" on="1"/>
        <pt x="292" y="43" on="1"/>
        <pt x="292" y="0" on="1"/>
        <pt x="29" y="0" on="1"/>
        <pt x="29" y="43" on="1"/>
        <pt x="113" y="76" on="1"/>
        <pt x="113" y="693" on="1"/>
        <pt x="29" y="693" on="1"/>
        <pt x="29" y="753" on="1"/>
        <pt x="68" y="772" on="0"/>
        <pt x="171" y="772" on="0"/>
        <pt x="207" y="723" on="0"/>
        <pt x="207" y="673" on="1"/>
        <pt x="207" y="434" on="1"/>
        <pt x="228" y="464" on="0"/>
        <pt x="335" y="512" on="0"/>
        <pt x="382" y="512" on="1"/>
        <pt x="460" y="512" on="0"/>
        <pt x="538" y="425" on="0"/>
        <pt x="538" y="350" on="1"/>
        <pt x="538" y="76" on="1"/>
        <pt x="627" y="43" on="1"/>
      </contour>
    </TTGlyph>
    <TTGlyph name="hungarumlaut" xMin="50" yMin="595" xMax="433" yMax="784">
      <contour>
        <pt x="139" y="595" on="1"/>
        <pt x="50" y="595" on="1"/>
        <pt x="151" y="784" on="1"/>
        <pt x="268" y="784" on="1"/>
      </contour>
      <contour>
        <pt x="304" y="595" on="1"/>
        <pt x="215" y="595" on="1"/>
        <pt x="316" y="784" on="1"/>
        <pt x="433" y="784" on="1"/>
      </contour>
    </TTGlyph>
    <TTGlyph name="hyphen" xMin="73" yMin="235" xMax="343" yMax="298">
      <contour>
        <pt x="343" y="235" on="1"/>
        <pt x="73" y="235" on="1"/>
        <pt x="73" y="298" on="1"/>
        <pt x="343" y="298" on="1"/>
      </contour>
    </TTGlyph>
    <TTGlyph name="i" xMin="43" yMin="0" xMax="306" yMax="762">
      <contour>
        <pt x="306" y="0" on="1"/>
        <pt x="43" y="0" on="1"/>
        <pt x="43" y="43" on="1"/>
        <pt x="127" y="76" on="1"/>
        <pt x="127" y="433" on="1"/>
        <pt x="43" y="433" on="1"/>
        <pt x="43" y="493" on="1"/>
        <pt x="82" y="512" on="0"/>
        <pt x="185" y="512" on="0"/>
        <pt x="221" y="463" on="0"/>
        <pt x="221" y="413" on="1"/>
        <pt x="221" y="76" on="1"/>
        <pt x="306" y="43" on="1"/>
      </contour>
      <contour>
        <pt x="202" y="604" on="0"/>
        <pt x="136" y="604" on="0"/>
        <pt x="90" y="650" on="0"/>
        <pt x="90" y="716" on="0"/>
        <pt x="136" y="762" on="0"/>
        <pt x="202" y="762" on="0"/>
        <pt x="248" y="716" on="0"/>
        <pt x="248" y="650" on="0"/>
      </contour>
    </TTGlyph>
    <TTGlyph name="iacute" xMin="43" yMin="0" xMax="339" yMax="784">
      <contour>
        <pt x="306" y="0" on="1"/>
        <pt x="43" y="0" on="1"/>
        <pt x="43" y="43" on="1"/>
        <pt x="127" y="76" on="1"/>
        <pt x="127" y="433" on="1"/>
        <pt x="43" y="433" on="1"/>
        <pt x="43" y="493" on="1"/>
        <pt x="82" y="512" on="0"/>
        <pt x="185" y="512" on="0"/>
        <pt x="221" y="463" on="0"/>
        <pt x="221" y="413" on="1"/>
        <pt x="221" y="76" on="1"/>
        <pt x="306" y="43" on="1"/>
      </contour>
      <contour>
        <pt x="210" y="595" on="1"/>
        <pt x="121" y="595" on="1"/>
        <pt x="222" y="784" on="1"/>
        <pt x="339" y="784" on="1"/>
      </contour>
    </TTGlyph>
    <TTGlyph name="icircumflex" xMin="3" yMin="0" xMax="323" yMax="784">
      <contour>
        <pt x="306" y="0" on="1"/>
        <pt x="43" y="0" on="1"/>
        <pt x="43" y="43" on="1"/>
        <pt x="127" y="76" on="1"/>
        <pt x="127" y="433" on="1"/>
        <pt x="43" y="433" on="1"/>
        <pt x="43" y="493" on="1"/>
        <pt x="82" y="512" on="0"/>
        <pt x="185" y="512" on="0"/>
        <pt x="221" y="463" on="0"/>
        <pt x="221" y="413" on="1"/>
        <pt x="221" y="76" on="1"/>
        <pt x="306" y="43" on="1"/>
      </contour>
      <contour>
        <pt x="323" y="595" on="1"/>
        <pt x="234" y="595" on="1"/>
        <pt x="163" y="714" on="1"/>
        <pt x="92" y="595" on="1"/>
        <pt x="3" y="595" on="1"/>
        <pt x="114" y="784" on="1"/>
        <pt x="212" y="784" on="1"/>
      </contour>
    </TTGlyph>
    <TTGlyph name="idieresis" xMin="-9" yMin="0" xMax="328" yMax="698">
      <contour>
        <pt x="306" y="0" on="1"/>
        <pt x="43" y="0" on="1"/>
        <pt x="43" y="43" on="1"/>
        <pt x="127" y="76" on="1"/>
        <pt x="127" y="433" on="1"/>
        <pt x="43" y="433" on="1"/>
        <pt x="43" y="493" on="1"/>
        <pt x="82" y="512" on="0"/>
        <pt x="185" y="512" on="0"/>
        <pt x="221" y="463" on="0"/>
        <pt x="221" y="413" on="1"/>
        <pt x="221" y="76" on="1"/>
        <pt x="306" y="43" on="1"/>
      </contour>
      <contour>
        <pt x="112" y="662" on="0"/>
        <pt x="112" y="612" on="0"/>
        <pt x="77" y="577" on="0"/>
        <pt x="26" y="577" on="0"/>
        <pt x="-9" y="612" on="0"/>
        <pt x="-9" y="663" on="0"/>
        <pt x="26" y="698" on="0"/>
        <pt x="76" y="698" on="0"/>
      </contour>
      <contour>
        <pt x="328" y="662" on="0"/>
        <pt x="328" y="612" on="0"/>
        <pt x="293" y="577" on="0"/>
        <pt x="242" y="577" on="0"/>
        <pt x="207" y="612" on="0"/>
        <pt x="207" y="663" on="0"/>
        <pt x="242" y="698" on="0"/>
        <pt x="292" y="698" on="0"/>
      </contour>
    </TTGlyph>
    <TTGlyph name="igrave" xMin="4" yMin="0" xMax="306" yMax="784">
      <contour>
        <pt x="306" y="0" on="1"/>
        <pt x="43" y="0" on="1"/>
        <pt x="43" y="43" on="1"/>
        <pt x="127" y="76" on="1"/>
        <pt x="127" y="433" on="1"/>
        <pt x="43" y="433" on="1"/>
        <pt x="43" y="493" on="1"/>
        <pt x="82" y="512" on="0"/>
        <pt x="185" y="512" on="0"/>
        <pt x="221" y="463" on="0"/>
        <pt x="221" y="413" on="1"/>
        <pt x="221" y="76" on="1"/>
        <pt x="306" y="43" on="1"/>
      </contour>
      <contour>
        <pt x="121" y="784" on="1"/>
        <pt x="222" y="595" on="1"/>
        <pt x="133" y="595" on="1"/>
        <pt x="4" y="784" on="1"/>
      </contour>
    </TTGlyph>
    <TTGlyph name="j" xMin="-106" yMin="-272" xMax="234" yMax="762">
      <contour>
        <pt x="113" y="-42" on="1"/>
        <pt x="113" y="433" on="1"/>
        <pt x="29" y="433" on="1"/>
        <pt x="29" y="493" on="1"/>
        <pt x="68" y="512" on="0"/>
        <pt x="171" y="512" on="0"/>
        <pt x="207" y="463" on="0"/>
        <pt x="207" y="413" on="1"/>
        <pt x="207" y="-70" on="1"/>
        <pt x="207" y="-169" on="0"/>
        <pt x="107" y="-272" on="0"/>
        <pt x="16" y="-272" on="1"/>
        <pt x="-20" y="-272" on="0"/>
        <pt x="-81" y="-250" on="0"/>
        <pt x="-94" y="-240" on="1"/>
        <pt x="-106" y="-229" on="1"/>
        <pt x="-79" y="-174" on="1"/>
        <pt x="-51" y="-190" on="0"/>
        <pt x="61" y="-190" on="0"/>
        <pt x="113" y="-128" on="0"/>
      </contour>
      <contour>
        <pt x="188" y="604" on="0"/>
        <pt x="122" y="604" on="0"/>
        <pt x="76" y="650" on="0"/>
        <pt x="76" y="716" on="0"/>
        <pt x="122" y="762" on="0"/>
        <pt x="188" y="762" on="0"/>
        <pt x="234" y="716" on="0"/>
        <pt x="234" y="650" on="0"/>
      </contour>
    </TTGlyph>
    <TTGlyph name="k" xMin="29" yMin="0" xMax="635" yMax="772">
      <contour>
        <pt x="635" y="0" on="1"/>
        <pt x="395" y="0" on="1"/>
        <pt x="395" y="43" on="1"/>
        <pt x="447" y="62" on="1"/>
        <pt x="209" y="296" on="1"/>
        <pt x="394" y="447" on="1"/>
        <pt x="323" y="457" on="1"/>
        <pt x="323" y="500" on="1"/>
        <pt x="574" y="500" on="1"/>
        <pt x="574" y="457" on="1"/>
        <pt x="499" y="438" on="1"/>
        <pt x="323" y="296" on="1"/>
        <pt x="560" y="62" on="1"/>
        <pt x="635" y="43" on="1"/>
      </contour>
      <contour>
        <pt x="292" y="0" on="1"/>
        <pt x="29" y="0" on="1"/>
        <pt x="29" y="43" on="1"/>
        <pt x="113" y="76" on="1"/>
        <pt x="113" y="693" on="1"/>
        <pt x="29" y="693" on="1"/>
        <pt x="29" y="753" on="1"/>
        <pt x="68" y="772" on="0"/>
        <pt x="171" y="772" on="0"/>
        <pt x="207" y="723" on="0"/>
        <pt x="207" y="673" on="1"/>
        <pt x="207" y="76" on="1"/>
        <pt x="292" y="43" on="1"/>
      </contour>
    </TTGlyph>
    <TTGlyph name="l" xMin="29" yMin="0" xMax="292" yMax="772">
      <contour>
        <pt x="292" y="0" on="1"/>
        <pt x="29" y="0" on="1"/>
        <pt x="29" y="43" on="1"/>
        <pt x="113" y="76" on="1"/>
        <pt x="113" y="693" on="1"/>
        <pt x="29" y="693" on="1"/>
        <pt x="29" y="753" on="1"/>
        <pt x="68" y="772" on="0"/>
        <pt x="171" y="772" on="0"/>
        <pt x="207" y="723" on="0"/>
        <pt x="207" y="673" on="1"/>
        <pt x="207" y="76" on="1"/>
        <pt x="292" y="43" on="1"/>
      </contour>
    </TTGlyph>
    <TTGlyph name="less" xMin="48" yMin="-21" xMax="358" yMax="518">
      <contour>
        <pt x="358" y="-21" on="1"/>
        <pt x="48" y="208" on="1"/>
        <pt x="48" y="289" on="1"/>
        <pt x="358" y="518" on="1"/>
        <pt x="358" y="407" on="1"/>
        <pt x="141" y="248" on="1"/>
        <pt x="358" y="90" on="1"/>
      </contour>
    </TTGlyph>
    <TTGlyph name="logicalnot" xMin="69" yMin="217" xMax="466" yMax="451">
      <contour>
        <pt x="466" y="217" on="1"/>
        <pt x="395" y="217" on="1"/>
        <pt x="395" y="380" on="1"/>
        <pt x="69" y="380" on="1"/>
        <pt x="69" y="451" on="1"/>
        <pt x="466" y="451" on="1"/>
      </contour>
    </TTGlyph>
    <TTGlyph name="lslash" xMin="16" yMin="0" xMax="329" yMax="772">
      <contour>
        <pt x="310" y="0" on="1"/>
        <pt x="47" y="0" on="1"/>
        <pt x="47" y="43" on="1"/>
        <pt x="131" y="76" on="1"/>
        <pt x="131" y="287" on="1"/>
        <pt x="16" y="248" on="1"/>
        <pt x="16" y="320" on="1"/>
        <pt x="131" y="359" on="1"/>
        <pt x="131" y="693" on="1"/>
        <pt x="47" y="693" on="1"/>
        <pt x="47" y="753" on="1"/>
        <pt x="86" y="772" on="0"/>
        <pt x="189" y="772" on="0"/>
        <pt x="225" y="723" on="0"/>
        <pt x="225" y="673" on="1"/>
        <pt x="225" y="391" on="1"/>
        <pt x="329" y="427" on="1"/>
        <pt x="329" y="355" on="1"/>
        <pt x="225" y="319" on="1"/>
        <pt x="225" y="76" on="1"/>
        <pt x="310" y="43" on="1"/>
      </contour>
    </TTGlyph>
    <TTGlyph name="m" xMin="41" yMin="0" xMax="957" yMax="512">
      <contour>
        <pt x="957" y="0" on="1"/>
        <pt x="694" y="0" on="1"/>
        <pt x="694" y="43" on="1"/>
        <pt x="774" y="76" on="1"/>
        <pt x="774" y="315" on="1"/>
        <pt x="774" y="374" on="0"/>
        <pt x="735" y="432" on="0"/>
        <pt x="684" y="432" on="1"/>
        <pt x="604" y="432" on="0"/>
        <pt x="547" y="375" on="1"/>
        <pt x="550" y="363" on="0"/>
        <pt x="550" y="350" on="1"/>
        <pt x="550" y="76" on="1"/>
        <pt x="639" y="43" on="1"/>
        <pt x="639" y="0" on="1"/>
        <pt x="376" y="0" on="1"/>
        <pt x="376" y="43" on="1"/>
        <pt x="456" y="76" on="1"/>
        <pt x="456" y="315" on="1"/>
        <pt x="456" y="374" on="0"/>
        <pt x="417" y="432" on="0"/>
        <pt x="366" y="432" on="1"/>
        <pt x="284" y="432" on="0"/>
        <pt x="219" y="367" on="1"/>
        <pt x="219" y="76" on="1"/>
        <pt x="304" y="43" on="1"/>
        <pt x="304" y="0" on="1"/>
        <pt x="41" y="0" on="1"/>
        <pt x="41" y="43" on="1"/>
        <pt x="125" y="76" on="1"/>
        <pt x="125" y="433" on="1"/>
        <pt x="41" y="433" on="1"/>
        <pt x="41" y="493" on="1"/>
        <pt x="80" y="512" on="0"/>
        <pt x="180" y="512" on="0"/>
        <pt x="217" y="468" on="0"/>
        <pt x="219" y="424" on="1"/>
        <pt x="233" y="442" on="0"/>
        <pt x="261" y="465" on="1"/>
        <pt x="320" y="512" on="0"/>
        <pt x="394" y="512" on="1"/>
        <pt x="504" y="512" on="0"/>
        <pt x="538" y="424" on="1"/>
        <pt x="611" y="512" on="0"/>
        <pt x="712" y="512" on="1"/>
        <pt x="790" y="512" on="0"/>
        <pt x="868" y="425" on="0"/>
        <pt x="868" y="350" on="1"/>
        <pt x="868" y="76" on="1"/>
        <pt x="957" y="43" on="1"/>
      </contour>
    </TTGlyph>
    <TTGlyph name="mu" xMin="95" yMin="-273" xMax="514" yMax="500">
      <contour>
        <pt x="514" y="0" on="1"/>
        <pt x="420" y="0" on="1"/>
        <pt x="420" y="70" on="1"/>
        <pt x="407" y="55" on="0"/>
        <pt x="373" y="25" on="0"/>
        <pt x="294" y="-11" on="0"/>
        <pt x="216" y="-11" on="0"/>
        <pt x="189" y="-2" on="1"/>
        <pt x="189" y="-273" on="1"/>
        <pt x="95" y="-273" on="1"/>
        <pt x="95" y="500" on="1"/>
        <pt x="189" y="500" on="1"/>
        <pt x="189" y="186" on="1"/>
        <pt x="189" y="127" on="0"/>
        <pt x="228" y="69" on="0"/>
        <pt x="279" y="69" on="1"/>
        <pt x="367" y="69" on="0"/>
        <pt x="420" y="119" on="1"/>
        <pt x="420" y="500" on="1"/>
        <pt x="514" y="500" on="1"/>
      </contour>
    </TTGlyph>
    <TTGlyph name="multiply" xMin="69" yMin="182" xMax="400" yMax="513">
      <contour>
        <pt x="350" y="182" on="1"/>
        <pt x="234" y="297" on="1"/>
        <pt x="119" y="182" on="1"/>
        <pt x="69" y="232" on="1"/>
        <pt x="184" y="347" on="1"/>
        <pt x="69" y="463" on="1"/>
        <pt x="119" y="513" on="1"/>
        <pt x="234" y="398" on="1"/>
        <pt x="350" y="513" on="1"/>
        <pt x="400" y="463" on="1"/>
        <pt x="285" y="347" on="1"/>
        <pt x="400" y="232" on="1"/>
      </contour>
    </TTGlyph>
    <TTGlyph name="n" xMin="41" yMin="0" xMax="639" yMax="512">
      <contour>
        <pt x="639" y="0" on="1"/>
        <pt x="376" y="0" on="1"/>
        <pt x="376" y="43" on="1"/>
        <pt x="456" y="76" on="1"/>
        <pt x="456" y="315" on="1"/>
        <pt x="456" y="374" on="0"/>
        <pt x="417" y="432" on="0"/>
        <pt x="366" y="432" on="1"/>
        <pt x="284" y="432" on="0"/>
        <pt x="219" y="367" on="1"/>
        <pt x="219" y="76" on="1"/>
        <pt x="304" y="43" on="1"/>
        <pt x="304" y="0" on="1"/>
        <pt x="41" y="0" on="1"/>
        <pt x="41" y="43" on="1"/>
        <pt x="125" y="76" on="1"/>
        <pt x="125" y="433" on="1"/>
        <pt x="41" y="433" on="1"/>
        <pt x="41" y="493" on="1"/>
        <pt x="80" y="512" on="0"/>
        <pt x="180" y="512" on="0"/>
        <pt x="217" y="468" on="0"/>
        <pt x="219" y="424" on="1"/>
        <pt x="233" y="442" on="0"/>
        <pt x="261" y="465" on="1"/>
        <pt x="320" y="512" on="0"/>
        <pt x="472" y="512" on="0"/>
        <pt x="550" y="425" on="0"/>
        <pt x="550" y="350" on="1"/>
        <pt x="550" y="76" on="1"/>
        <pt x="639" y="43" on="1"/>
      </contour>
    </TTGlyph>
    <TTGlyph name="nine" xMin="58" yMin="-11" xMax="576" yMax="715">
      <contour>
        <pt x="466" y="522" on="0"/>
        <pt x="374" y="634" on="0"/>
        <pt x="236" y="634" on="0"/>
        <pt x="153" y="554" on="0"/>
        <pt x="153" y="417" on="0"/>
        <pt x="236" y="339" on="0"/>
        <pt x="308" y="339" on="1"/>
        <pt x="363" y="339" on="0"/>
        <pt x="405" y="366" on="1"/>
        <pt x="440" y="390" on="0"/>
        <pt x="471" y="422" on="0"/>
        <pt x="472" y="423" on="1"/>
      </contour>
      <contour>
        <pt x="77" y="186" on="1"/>
        <pt x="153" y="186" on="1"/>
        <pt x="173" y="112" on="1"/>
        <pt x="177" y="107" on="0"/>
        <pt x="193" y="94" on="0"/>
        <pt x="259" y="71" on="0"/>
        <pt x="301" y="71" on="1"/>
        <pt x="466" y="71" on="0"/>
        <pt x="475" y="328" on="1"/>
        <pt x="456" y="314" on="1"/>
        <pt x="437" y="300" on="0"/>
        <pt x="401" y="279" on="0"/>
        <pt x="333" y="258" on="0"/>
        <pt x="298" y="258" on="1"/>
        <pt x="195" y="258" on="0"/>
        <pt x="58" y="380" on="0"/>
        <pt x="58" y="591" on="0"/>
        <pt x="188" y="715" on="0"/>
        <pt x="435" y="715" on="0"/>
        <pt x="576" y="545" on="0"/>
        <pt x="576" y="379" on="1"/>
        <pt x="576" y="185" on="0"/>
        <pt x="433" y="-11" on="0"/>
        <pt x="295" y="-11" on="1"/>
        <pt x="232" y="-11" on="0"/>
        <pt x="107" y="36" on="0"/>
        <pt x="77" y="83" on="1"/>
      </contour>
    </TTGlyph>
    <TTGlyph name="notequal" xMin="65" yMin="42" xMax="462" yMax="558">
      <contour>
        <pt x="462" y="165" on="1"/>
        <pt x="265" y="165" on="1"/>
        <pt x="231" y="42" on="1"/>
        <pt x="138" y="42" on="1"/>
        <pt x="172" y="165" on="1"/>
        <pt x="65" y="165" on="1"/>
        <pt x="65" y="236" on="1"/>
        <pt x="192" y="236" on="1"/>
        <pt x="230" y="372" on="1"/>
        <pt x="65" y="372" on="1"/>
        <pt x="65" y="443" on="1"/>
        <pt x="250" y="443" on="1"/>
        <pt x="282" y="558" on="1"/>
        <pt x="375" y="558" on="1"/>
        <pt x="343" y="443" on="1"/>
        <pt x="462" y="443" on="1"/>
        <pt x="462" y="372" on="1"/>
        <pt x="323" y="372" on="1"/>
        <pt x="285" y="236" on="1"/>
        <pt x="462" y="236" on="1"/>
      </contour>
    </TTGlyph>
    <TTGlyph name="ntilde" xMin="41" yMin="0" xMax="639" yMax="730">
      <component glyphName="n" x="0" y="0" flags="0x1004"/>
      <component glyphName="tilde" x="92" y="0" flags="0x1004"/>
    </TTGlyph>
    <TTGlyph name="numbersign" xMin="48" yMin="59" xMax="601" yMax="562">
      <contour>
        <pt x="523" y="165" on="1"/>
        <pt x="443" y="165" on="1"/>
        <pt x="414" y="59" on="1"/>
        <pt x="321" y="59" on="1"/>
        <pt x="350" y="165" on="1"/>
        <pt x="229" y="165" on="1"/>
        <pt x="200" y="59" on="1"/>
        <pt x="107" y="59" on="1"/>
        <pt x="136" y="165" on="1"/>
        <pt x="48" y="165" on="1"/>
        <pt x="48" y="236" on="1"/>
        <pt x="156" y="236" on="1"/>
        <pt x="194" y="372" on="1"/>
        <pt x="126" y="372" on="1"/>
        <pt x="126" y="443" on="1"/>
        <pt x="214" y="443" on="1"/>
        <pt x="248" y="562" on="1"/>
        <pt x="341" y="562" on="1"/>
        <pt x="307" y="443" on="1"/>
        <pt x="428" y="443" on="1"/>
        <pt x="462" y="562" on="1"/>
        <pt x="555" y="562" on="1"/>
        <pt x="521" y="443" on="1"/>
        <pt x="601" y="443" on="1"/>
        <pt x="601" y="372" on="1"/>
        <pt x="501" y="372" on="1"/>
        <pt x="463" y="236" on="1"/>
        <pt x="523" y="236" on="1"/>
      </contour>
      <contour>
        <pt x="370" y="236" on="1"/>
        <pt x="408" y="372" on="1"/>
        <pt x="287" y="372" on="1"/>
        <pt x="249" y="236" on="1"/>
      </contour>
    </TTGlyph>
    <TTGlyph name="o" xMin="46" yMin="-11" xMax="560" yMax="512">
      <contour>
        <pt x="414" y="-11" on="0"/>
        <pt x="192" y="-11" on="0"/>
        <pt x="46" y="134" on="0"/>
        <pt x="46" y="366" on="0"/>
        <pt x="192" y="512" on="0"/>
        <pt x="414" y="512" on="0"/>
        <pt x="560" y="366" on="0"/>
        <pt x="560" y="134" on="0"/>
      </contour>
      <contour>
        <pt x="233" y="68" on="0"/>
        <pt x="373" y="68" on="0"/>
        <pt x="463" y="165" on="0"/>
        <pt x="463" y="329" on="0"/>
        <pt x="372" y="433" on="0"/>
        <pt x="234" y="433" on="0"/>
        <pt x="143" y="329" on="0"/>
        <pt x="143" y="165" on="0"/>
      </contour>
    </TTGlyph>
    <TTGlyph name="oacute" xMin="46" yMin="-11" xMax="560" yMax="784">
      <component glyphName="o" x="0" y="0" flags="0x1004"/>
      <component glyphName="acute" x="180" y="0" flags="0x1004"/>
    </TTGlyph>
    <TTGlyph name="ocircumflex" xMin="46" yMin="-11" xMax="560" yMax="784">
      <component glyphName="o" x="0" y="0" flags="0x1004"/>
      <component glyphName="circumflex" x="99" y="0" flags="0x1004"/>
    </TTGlyph>
    <TTGlyph name="odieresis" xMin="46" yMin="-11" xMax="560" yMax="698">
      <component glyphName="o" x="0" y="0" flags="0x1004"/>
      <component glyphName="dieresis" x="89" y="0" flags="0x1004"/>
    </TTGlyph>
    <TTGlyph name="oe" xMin="46" yMin="-11" xMax="936" yMax="512">
      <contour>
        <pt x="722" y="-10" on="1"/>
        <pt x="577" y="-10" on="0"/>
        <pt x="510" y="88" on="1"/>
        <pt x="475" y="41" on="0"/>
        <pt x="367" y="-11" on="0"/>
        <pt x="303" y="-11" on="1"/>
        <pt x="192" y="-11" on="0"/>
        <pt x="46" y="134" on="0"/>
        <pt x="46" y="366" on="0"/>
        <pt x="192" y="512" on="0"/>
        <pt x="303" y="512" on="1"/>
        <pt x="369" y="512" on="0"/>
        <pt x="479" y="457" on="0"/>
        <pt x="514" y="407" on="1"/>
        <pt x="548" y="457" on="0"/>
        <pt x="651" y="512" on="0"/>
        <pt x="708" y="512" on="1"/>
        <pt x="936" y="512" on="0"/>
        <pt x="936" y="242" on="1"/>
        <pt x="565" y="242" on="1"/>
        <pt x="565" y="237" on="1"/>
        <pt x="565" y="166" on="0"/>
        <pt x="665" y="68" on="0"/>
        <pt x="751" y="68" on="1"/>
        <pt x="788" y="68" on="0"/>
        <pt x="854" y="85" on="0"/>
        <pt x="868" y="94" on="1"/>
        <pt x="883" y="102" on="1"/>
        <pt x="912" y="50" on="1"/>
        <pt x="909" y="48" on="0"/>
        <pt x="898" y="39" on="0"/>
        <pt x="862" y="19" on="0"/>
        <pt x="842" y="11" on="1"/>
        <pt x="788" y="-10" on="0"/>
      </contour>
      <contour>
        <pt x="233" y="68" on="0"/>
        <pt x="373" y="68" on="0"/>
        <pt x="463" y="165" on="0"/>
        <pt x="463" y="329" on="0"/>
        <pt x="372" y="433" on="0"/>
        <pt x="234" y="433" on="0"/>
        <pt x="143" y="329" on="0"/>
        <pt x="143" y="165" on="0"/>
      </contour>
      <contour>
        <pt x="838" y="368" on="0"/>
        <pt x="767" y="433" on="0"/>
        <pt x="654" y="433" on="0"/>
        <pt x="580" y="370" on="0"/>
        <pt x="569" y="306" on="1"/>
        <pt x="843" y="306" on="1"/>
      </contour>
    </TTGlyph>
    <TTGlyph name="ogonek" xMin="50" yMin="-172" xMax="212" yMax="20">
      <contour>
        <pt x="140" y="-133" on="1"/>
        <pt x="170" y="-133" on="0"/>
        <pt x="191" y="-110" on="1"/>
        <pt x="212" y="-140" on="1"/>
        <pt x="186" y="-172" on="0"/>
        <pt x="99" y="-172" on="0"/>
        <pt x="50" y="-132" on="0"/>
        <pt x="50" y="-55" on="0"/>
        <pt x="110" y="2" on="0"/>
        <pt x="140" y="11" on="1"/>
        <pt x="169" y="20" on="1"/>
        <pt x="177" y="1" on="1"/>
        <pt x="93" y="-27" on="0"/>
        <pt x="93" y="-86" on="1"/>
        <pt x="93" y="-133" on="0"/>
      </contour>
    </TTGlyph>
    <TTGlyph name="ograve" xMin="46" yMin="-11" xMax="560" yMax="784">
      <component glyphName="o" x="0" y="0" flags="0x1004"/>
      <component glyphName="grave" x="96" y="0" flags="0x1004"/>
    </TTGlyph>
    <TTGlyph name="one" xMin="37" yMin="0" xMax="485" yMax="706">
      <contour>
        <pt x="485" y="0" on="1"/>
        <pt x="65" y="0" on="1"/>
        <pt x="65" y="45" on="1"/>
        <pt x="224" y="79" on="1"/>
        <pt x="224" y="603" on="1"/>
        <pt x="79" y="502" on="1"/>
        <pt x="37" y="569" on="1"/>
        <pt x="231" y="706" on="1"/>
        <pt x="325" y="706" on="1"/>
        <pt x="325" y="79" on="1"/>
        <pt x="485" y="45" on="1"/>
      </contour>
    </TTGlyph>
    <TTGlyph name="onehalf" xMin="37" yMin="-11" xMax="817" yMax="715">
      <contour>
        <pt x="301" y="-11" on="1"/>
        <pt x="208" y="-11" on="1"/>
        <pt x="585" y="715" on="1"/>
        <pt x="678" y="715" on="1"/>
      </contour>
      <contour>
        <pt x="335" y="320" on="1"/>
        <pt x="73" y="320" on="1"/>
        <pt x="73" y="370" on="1"/>
        <pt x="161" y="388" on="1"/>
        <pt x="161" y="616" on="1"/>
        <pt x="81" y="561" on="1"/>
        <pt x="37" y="616" on="1"/>
        <pt x="164" y="708" on="1"/>
        <pt x="247" y="708" on="1"/>
        <pt x="247" y="388" on="1"/>
        <pt x="335" y="370" on="1"/>
      </contour>
      <contour>
        <pt x="817" y="0" on="1"/>
        <pt x="546" y="0" on="1"/>
        <pt x="546" y="57" on="1"/>
        <pt x="564" y="66" on="0"/>
        <pt x="643" y="124" on="0"/>
        <pt x="692" y="170" on="0"/>
        <pt x="732" y="233" on="0"/>
        <pt x="732" y="289" on="0"/>
        <pt x="697" y="324" on="0"/>
        <pt x="672" y="324" on="1"/>
        <pt x="628" y="324" on="0"/>
        <pt x="613" y="310" on="1"/>
        <pt x="608" y="306" on="1"/>
        <pt x="597" y="257" on="1"/>
        <pt x="545" y="257" on="1"/>
        <pt x="545" y="337" on="1"/>
        <pt x="548" y="343" on="0"/>
        <pt x="564" y="362" on="0"/>
        <pt x="625" y="393" on="0"/>
        <pt x="664" y="393" on="1"/>
        <pt x="734" y="393" on="0"/>
        <pt x="816" y="320" on="0"/>
        <pt x="816" y="260" on="1"/>
        <pt x="816" y="227" on="0"/>
        <pt x="773" y="153" on="0"/>
        <pt x="742" y="125" on="1"/>
        <pt x="681" y="68" on="0"/>
        <pt x="648" y="52" on="1"/>
        <pt x="751" y="52" on="1"/>
        <pt x="769" y="103" on="1"/>
        <pt x="817" y="103" on="1"/>
      </contour>
    </TTGlyph>
    <TTGlyph name="onequarter" xMin="39" yMin="-11" xMax="820" yMax="715">
      <contour>
        <pt x="303" y="-11" on="1"/>
        <pt x="210" y="-11" on="1"/>
        <pt x="587" y="715" on="1"/>
        <pt x="680" y="715" on="1"/>
      </contour>
      <contour>
        <pt x="337" y="320" on="1"/>
        <pt x="75" y="320" on="1"/>
        <pt x="75" y="370" on="1"/>
        <pt x="163" y="388" on="1"/>
        <pt x="163" y="616" on="1"/>
        <pt x="83" y="561" on="1"/>
        <pt x="39" y="616" on="1"/>
        <pt x="166" y="708" on="1"/>
        <pt x="249" y="708" on="1"/>
        <pt x="249" y="388" on="1"/>
        <pt x="337" y="370" on="1"/>
      </contour>
      <contour>
        <pt x="820" y="-1" on="1"/>
        <pt x="558" y="-1" on="1"/>
        <pt x="558" y="49" on="1"/>
        <pt x="646" y="67" on="1"/>
        <pt x="646" y="123" on="1"/>
        <pt x="485" y="123" on="1"/>
        <pt x="485" y="185" on="1"/>
        <pt x="650" y="387" on="1"/>
        <pt x="732" y="387" on="1"/>
        <pt x="732" y="185" on="1"/>
        <pt x="797" y="185" on="1"/>
        <pt x="797" y="123" on="1"/>
        <pt x="732" y="123" on="1"/>
        <pt x="732" y="67" on="1"/>
        <pt x="820" y="49" on="1"/>
      </contour>
      <contour>
        <pt x="646" y="185" on="1"/>
        <pt x="646" y="281" on="1"/>
        <pt x="568" y="185" on="1"/>
      </contour>
    </TTGlyph>
    <TTGlyph name="onesuperior" xMin="54" yMin="320" xMax="352" yMax="708">
      <contour>
        <pt x="352" y="320" on="1"/>
        <pt x="90" y="320" on="1"/>
        <pt x="90" y="370" on="1"/>
        <pt x="178" y="388" on="1"/>
        <pt x="178" y="616" on="1"/>
        <pt x="98" y="561" on="1"/>
        <pt x="54" y="616" on="1"/>
        <pt x="181" y="708" on="1"/>
        <pt x="264" y="708" on="1"/>
        <pt x="264" y="388" on="1"/>
        <pt x="352" y="370" on="1"/>
      </contour>
    </TTGlyph>
    <TTGlyph name="ordfeminine" xMin="59" yMin="428" xMax="332" yMax="715">
      <contour>
        <pt x="332" y="481" on="1"/>
        <pt x="332" y="438" on="1"/>
        <pt x="311" y="428" on="0"/>
        <pt x="286" y="428" on="1"/>
        <pt x="238" y="428" on="0"/>
        <pt x="235" y="466" on="1"/>
        <pt x="206" y="428" on="0"/>
        <pt x="108" y="428" on="0"/>
        <pt x="59" y="467" on="0"/>
        <pt x="59" y="503" on="1"/>
        <pt x="59" y="576" on="0"/>
        <pt x="159" y="587" on="1"/>
        <pt x="234" y="596" on="1"/>
        <pt x="234" y="607" on="1"/>
        <pt x="234" y="633" on="0"/>
        <pt x="210" y="660" on="0"/>
        <pt x="183" y="660" on="1"/>
        <pt x="133" y="660" on="0"/>
        <pt x="102" y="648" on="1"/>
        <pt x="91" y="644" on="1"/>
        <pt x="81" y="692" on="1"/>
        <pt x="124" y="715" on="0"/>
        <pt x="183" y="715" on="1"/>
        <pt x="296" y="715" on="0"/>
        <pt x="296" y="626" on="1"/>
        <pt x="296" y="481" on="1"/>
      </contour>
      <contour>
        <pt x="162" y="544" on="1"/>
        <pt x="127" y="539" on="0"/>
        <pt x="127" y="486" on="0"/>
        <pt x="203" y="486" on="0"/>
        <pt x="234" y="508" on="1"/>
        <pt x="234" y="553" on="1"/>
      </contour>
    </TTGlyph>
    <TTGlyph name="ordmasculine" xMin="55" yMin="428" xMax="357" yMax="715">
      <contour>
        <pt x="272" y="715" on="0"/>
        <pt x="357" y="636" on="0"/>
        <pt x="357" y="507" on="0"/>
        <pt x="271" y="428" on="0"/>
        <pt x="141" y="428" on="0"/>
        <pt x="55" y="507" on="0"/>
        <pt x="55" y="636" on="0"/>
        <pt x="140" y="715" on="0"/>
      </contour>
      <contour>
        <pt x="169" y="478" on="0"/>
        <pt x="243" y="478" on="0"/>
        <pt x="289" y="528" on="0"/>
        <pt x="289" y="612" on="0"/>
        <pt x="242" y="665" on="0"/>
        <pt x="170" y="665" on="0"/>
        <pt x="123" y="612" on="0"/>
        <pt x="123" y="528" on="0"/>
      </contour>
    </TTGlyph>
    <TTGlyph name="oslash" xMin="46" yMin="-11" xMax="560" yMax="512">
      <contour>
        <pt x="303" y="-11" on="1"/>
        <pt x="250" y="-11" on="0"/>
        <pt x="199" y="8" on="1"/>
        <pt x="188" y="-11" on="1"/>
        <pt x="95" y="-11" on="1"/>
        <pt x="131" y="50" on="1"/>
        <pt x="46" y="124" on="0"/>
        <pt x="46" y="366" on="0"/>
        <pt x="192" y="512" on="0"/>
        <pt x="303" y="512" on="1"/>
        <pt x="351" y="512" on="0"/>
        <pt x="396" y="496" on="1"/>
        <pt x="406" y="512" on="1"/>
        <pt x="499" y="512" on="1"/>
        <pt x="466" y="457" on="1"/>
        <pt x="560" y="382" on="0"/>
        <pt x="560" y="250" on="1"/>
        <pt x="560" y="134" on="0"/>
        <pt x="414" y="-11" on="0"/>
      </contour>
      <contour>
        <pt x="303" y="68" on="1"/>
        <pt x="373" y="68" on="0"/>
        <pt x="463" y="165" on="0"/>
        <pt x="463" y="326" on="0"/>
        <pt x="419" y="378" on="1"/>
        <pt x="241" y="79" on="1"/>
        <pt x="271" y="68" on="0"/>
      </contour>
      <contour>
        <pt x="234" y="433" on="0"/>
        <pt x="143" y="329" on="0"/>
        <pt x="143" y="176" on="0"/>
        <pt x="178" y="128" on="1"/>
        <pt x="354" y="424" on="1"/>
        <pt x="330" y="433" on="0"/>
        <pt x="303" y="433" on="1"/>
      </contour>
    </TTGlyph>
    <TTGlyph name="otilde" xMin="46" yMin="-11" xMax="560" yMax="730">
      <contour>
        <pt x="414" y="-11" on="0"/>
        <pt x="192" y="-11" on="0"/>
        <pt x="46" y="134" on="0"/>
        <pt x="46" y="366" on="0"/>
        <pt x="192" y="512" on="0"/>
        <pt x="414" y="512" on="0"/>
        <pt x="560" y="366" on="0"/>
        <pt x="560" y="134" on="0"/>
      </contour>
      <contour>
        <pt x="233" y="68" on="0"/>
        <pt x="373" y="68" on="0"/>
        <pt x="463" y="165" on="0"/>
        <pt x="463" y="329" on="0"/>
        <pt x="372" y="433" on="0"/>
        <pt x="234" y="433" on="0"/>
        <pt x="143" y="329" on="0"/>
        <pt x="143" y="165" on="0"/>
      </contour>
      <contour>
        <pt x="462" y="638" on="0"/>
        <pt x="396" y="596" on="0"/>
        <pt x="339" y="596" on="0"/>
        <pt x="252" y="648" on="0"/>
        <pt x="234" y="648" on="1"/>
        <pt x="202" y="648" on="0"/>
        <pt x="166" y="614" on="1"/>
        <pt x="153" y="603" on="1"/>
        <pt x="116" y="643" on="1"/>
        <pt x="114" y="643" on="0"/>
        <pt x="150" y="686" on="0"/>
        <pt x="215" y="730" on="0"/>
        <pt x="272" y="730" on="0"/>
        <pt x="359" y="678" on="0"/>
        <pt x="376" y="678" on="1"/>
        <pt x="409" y="678" on="0"/>
        <pt x="446" y="712" on="1"/>
        <pt x="458" y="723" on="1"/>
        <pt x="498" y="681" on="1"/>
        <pt x="500" y="681" on="0"/>
      </contour>
    </TTGlyph>
    <TTGlyph name="p" xMin="28" yMin="-271" xMax="572" yMax="512">
      <contour>
        <pt x="291" y="-271" on="1"/>
        <pt x="28" y="-271" on="1"/>
        <pt x="28" y="-228" on="1"/>
        <pt x="113" y="-195" on="1"/>
        <pt x="113" y="437" on="1"/>
        <pt x="29" y="437" on="1"/>
        <pt x="29" y="492" on="1"/>
        <pt x="68" y="511" on="0"/>
        <pt x="161" y="511" on="0"/>
        <pt x="201" y="477" on="0"/>
        <pt x="205" y="444" on="1"/>
        <pt x="254" y="512" on="0"/>
        <pt x="351" y="512" on="1"/>
        <pt x="430" y="512" on="0"/>
        <pt x="497" y="458" on="1"/>
        <pt x="531" y="430" on="0"/>
        <pt x="572" y="327" on="0"/>
        <pt x="572" y="191" on="0"/>
        <pt x="526" y="84" on="0"/>
        <pt x="487" y="53" on="1"/>
        <pt x="408" y="-10" on="0"/>
        <pt x="303" y="-10" on="1"/>
        <pt x="261" y="-10" on="0"/>
        <pt x="207" y="4" on="1"/>
        <pt x="207" y="-195" on="1"/>
        <pt x="291" y="-228" on="1"/>
      </contour>
      <contour>
        <pt x="303" y="69" on="1"/>
        <pt x="384" y="69" on="0"/>
        <pt x="475" y="165" on="0"/>
        <pt x="475" y="337" on="0"/>
        <pt x="387" y="434" on="0"/>
        <pt x="337" y="434" on="1"/>
        <pt x="250" y="434" on="0"/>
        <pt x="207" y="379" on="1"/>
        <pt x="207" y="87" on="1"/>
        <pt x="263" y="69" on="0"/>
      </contour>
    </TTGlyph>
    <TTGlyph name="paragraph" xMin="38" yMin="0" xMax="745" yMax="706">
      <contour>
        <pt x="319" y="318" on="1"/>
        <pt x="366" y="318" on="1"/>
        <pt x="366" y="631" on="1"/>
        <pt x="319" y="631" on="1"/>
        <pt x="136" y="631" on="0"/>
        <pt x="136" y="476" on="1"/>
        <pt x="136" y="396" on="0"/>
        <pt x="241" y="318" on="0"/>
      </contour>
      <contour>
        <pt x="654" y="0" on="1"/>
        <pt x="553" y="0" on="1"/>
        <pt x="553" y="631" on="1"/>
        <pt x="468" y="631" on="1"/>
        <pt x="468" y="0" on="1"/>
        <pt x="367" y="0" on="1"/>
        <pt x="367" y="245" on="1"/>
        <pt x="272" y="245" on="1"/>
        <pt x="172" y="245" on="0"/>
        <pt x="38" y="366" on="0"/>
        <pt x="38" y="585" on="0"/>
        <pt x="180" y="706" on="0"/>
        <pt x="272" y="706" on="1"/>
        <pt x="745" y="706" on="1"/>
        <pt x="745" y="672" on="1"/>
        <pt x="654" y="639" on="1"/>
      </contour>
    </TTGlyph>
    <TTGlyph name="parenleft" xMin="50" yMin="-274" xMax="274" yMax="776">
      <contour>
        <pt x="82" y="-29" on="0"/>
        <pt x="50" y="148" on="0"/>
        <pt x="50" y="338" on="0"/>
        <pt x="81" y="519" on="0"/>
        <pt x="103" y="580" on="1"/>
        <pt x="149" y="707" on="0"/>
        <pt x="184" y="754" on="1"/>
        <pt x="199" y="776" on="1"/>
        <pt x="274" y="741" on="1"/>
        <pt x="258" y="723" on="0"/>
        <pt x="203" y="611" on="0"/>
        <pt x="167" y="504" on="0"/>
        <pt x="137" y="332" on="0"/>
        <pt x="137" y="153" on="0"/>
        <pt x="165" y="-10" on="0"/>
        <pt x="185" y="-64" on="1"/>
        <pt x="225" y="-173" on="0"/>
        <pt x="260" y="-220" on="1"/>
        <pt x="274" y="-239" on="1"/>
        <pt x="199" y="-274" on="1"/>
        <pt x="181" y="-253" on="0"/>
        <pt x="121" y="-139" on="0"/>
      </contour>
    </TTGlyph>
    <TTGlyph name="parenright" xMin="31" yMin="-274" xMax="255" yMax="776">
      <contour>
        <pt x="138" y="-12" on="0"/>
        <pt x="168" y="153" on="0"/>
        <pt x="168" y="332" on="0"/>
        <pt x="140" y="502" on="0"/>
        <pt x="120" y="558" on="1"/>
        <pt x="79" y="672" on="0"/>
        <pt x="45" y="721" on="1"/>
        <pt x="31" y="741" on="1"/>
        <pt x="106" y="776" on="1"/>
        <pt x="128" y="746" on="0"/>
        <pt x="184" y="636" on="0"/>
        <pt x="223" y="521" on="0"/>
        <pt x="255" y="338" on="0"/>
        <pt x="255" y="148" on="0"/>
        <pt x="224" y="-27" on="0"/>
        <pt x="202" y="-85" on="1"/>
        <pt x="155" y="-209" on="0"/>
        <pt x="122" y="-254" on="1"/>
        <pt x="106" y="-274" on="1"/>
        <pt x="31" y="-239" on="1"/>
        <pt x="49" y="-219" on="0"/>
        <pt x="102" y="-115" on="0"/>
      </contour>
    </TTGlyph>
    <TTGlyph name="percent" xMin="37" yMin="-11" xMax="895" yMax="715">
      <contour>
        <pt x="291" y="316" on="0"/>
        <pt x="135" y="316" on="0"/>
        <pt x="37" y="423" on="0"/>
        <pt x="37" y="605" on="0"/>
        <pt x="135" y="715" on="0"/>
        <pt x="291" y="715" on="0"/>
        <pt x="391" y="605" on="0"/>
        <pt x="391" y="423" on="0"/>
      </contour>
      <contour>
        <pt x="170" y="385" on="0"/>
        <pt x="258" y="385" on="0"/>
        <pt x="307" y="460" on="0"/>
        <pt x="307" y="569" on="0"/>
        <pt x="258" y="645" on="0"/>
        <pt x="168" y="645" on="0"/>
        <pt x="120" y="569" on="0"/>
        <pt x="120" y="460" on="0"/>
      </contour>
      <contour>
        <pt x="324" y="-11" on="1"/>
        <pt x="231" y="-11" on="1"/>
        <pt x="608" y="715" on="1"/>
        <pt x="701" y="715" on="1"/>
      </contour>
      <contour>
        <pt x="795" y="-11" on="0"/>
        <pt x="639" y="-11" on="0"/>
        <pt x="541" y="96" on="0"/>
        <pt x="541" y="278" on="0"/>
        <pt x="639" y="388" on="0"/>
        <pt x="795" y="388" on="0"/>
        <pt x="895" y="278" on="0"/>
        <pt x="895" y="96" on="0"/>
      </contour>
      <contour>
        <pt x="674" y="58" on="0"/>
        <pt x="762" y="58" on="0"/>
        <pt x="811" y="133" on="0"/>
        <pt x="811" y="242" on="0"/>
        <pt x="762" y="318" on="0"/>
        <pt x="672" y="318" on="0"/>
        <pt x="624" y="242" on="0"/>
        <pt x="624" y="133" on="0"/>
      </contour>
    </TTGlyph>
    <TTGlyph name="period" xMin="71" yMin="-11" xMax="189" yMax="107">
      <contour>
        <pt x="155" y="-11" on="0"/>
        <pt x="105" y="-11" on="0"/>
        <pt x="71" y="23" on="0"/>
        <pt x="71" y="73" on="0"/>
        <pt x="105" y="107" on="0"/>
        <pt x="155" y="107" on="0"/>
        <pt x="189" y="73" on="0"/>
        <pt x="189" y="23" on="0"/>
      </contour>
    </TTGlyph>
    <TTGlyph name="periodcentered" xMin="72" yMin="328" xMax="190" yMax="446">
      <contour>
        <pt x="156" y="328" on="0"/>
        <pt x="106" y="328" on="0"/>
        <pt x="72" y="362" on="0"/>
        <pt x="72" y="412" on="0"/>
        <pt x="106" y="446" on="0"/>
        <pt x="156" y="446" on="0"/>
        <pt x="190" y="412" on="0"/>
        <pt x="190" y="362" on="0"/>
      </contour>
    </TTGlyph>
    <TTGlyph name="perthousand" xMin="38" yMin="-11" xMax="1314" yMax="715">
      <contour>
        <pt x="292" y="316" on="0"/>
        <pt x="136" y="316" on="0"/>
        <pt x="38" y="423" on="0"/>
        <pt x="38" y="605" on="0"/>
        <pt x="136" y="715" on="0"/>
        <pt x="292" y="715" on="0"/>
        <pt x="392" y="605" on="0"/>
        <pt x="392" y="423" on="0"/>
      </contour>
      <contour>
        <pt x="171" y="385" on="0"/>
        <pt x="259" y="385" on="0"/>
        <pt x="308" y="460" on="0"/>
        <pt x="308" y="569" on="0"/>
        <pt x="259" y="645" on="0"/>
        <pt x="169" y="645" on="0"/>
        <pt x="121" y="569" on="0"/>
        <pt x="121" y="460" on="0"/>
      </contour>
      <contour>
        <pt x="325" y="-11" on="1"/>
        <pt x="232" y="-11" on="1"/>
        <pt x="609" y="715" on="1"/>
        <pt x="702" y="715" on="1"/>
      </contour>
      <contour>
        <pt x="796" y="-11" on="0"/>
        <pt x="640" y="-11" on="0"/>
        <pt x="542" y="96" on="0"/>
        <pt x="542" y="278" on="0"/>
        <pt x="640" y="388" on="0"/>
        <pt x="796" y="388" on="0"/>
        <pt x="896" y="278" on="0"/>
        <pt x="896" y="96" on="0"/>
      </contour>
      <contour>
        <pt x="675" y="58" on="0"/>
        <pt x="763" y="58" on="0"/>
        <pt x="812" y="133" on="0"/>
        <pt x="812" y="242" on="0"/>
        <pt x="763" y="318" on="0"/>
        <pt x="673" y="318" on="0"/>
        <pt x="625" y="242" on="0"/>
        <pt x="625" y="133" on="0"/>
      </contour>
      <contour>
        <pt x="1214" y="-11" on="0"/>
        <pt x="1058" y="-11" on="0"/>
        <pt x="960" y="96" on="0"/>
        <pt x="960" y="278" on="0"/>
        <pt x="1058" y="388" on="0"/>
        <pt x="1214" y="388" on="0"/>
        <pt x="1314" y="278" on="0"/>
        <pt x="1314" y="96" on="0"/>
      </contour>
      <contour>
        <pt x="1093" y="58" on="0"/>
        <pt x="1181" y="58" on="0"/>
        <pt x="1230" y="133" on="0"/>
        <pt x="1230" y="242" on="0"/>
        <pt x="1181" y="318" on="0"/>
        <pt x="1091" y="318" on="0"/>
        <pt x="1043" y="242" on="0"/>
        <pt x="1043" y="133" on="0"/>
      </contour>
    </TTGlyph>
    <TTGlyph name="plus" xMin="50" yMin="149" xMax="447" yMax="546">
      <contour>
        <pt x="447" y="312" on="1"/>
        <pt x="284" y="312" on="1"/>
        <pt x="284" y="149" on="1"/>
        <pt x="213" y="149" on="1"/>
        <pt x="213" y="312" on="1"/>
        <pt x="50" y="312" on="1"/>
        <pt x="50" y="383" on="1"/>
        <pt x="213" y="383" on="1"/>
        <pt x="213" y="546" on="1"/>
        <pt x="284" y="546" on="1"/>
        <pt x="284" y="383" on="1"/>
        <pt x="447" y="383" on="1"/>
      </contour>
    </TTGlyph>
    <TTGlyph name="plusminus" xMin="77" yMin="62" xMax="474" yMax="589">
      <contour>
        <pt x="474" y="355" on="1"/>
        <pt x="311" y="355" on="1"/>
        <pt x="311" y="192" on="1"/>
        <pt x="240" y="192" on="1"/>
        <pt x="240" y="355" on="1"/>
        <pt x="77" y="355" on="1"/>
        <pt x="77" y="426" on="1"/>
        <pt x="240" y="426" on="1"/>
        <pt x="240" y="589" on="1"/>
        <pt x="311" y="589" on="1"/>
        <pt x="311" y="426" on="1"/>
        <pt x="474" y="426" on="1"/>
      </contour>
      <contour>
        <pt x="474" y="62" on="1"/>
        <pt x="77" y="62" on="1"/>
        <pt x="77" y="133" on="1"/>
        <pt x="474" y="133" on="1"/>
      </contour>
    </TTGlyph>
    <TTGlyph name="q" xMin="47" yMin="-271" xMax="590" yMax="512">
      <contour>
        <pt x="590" y="-271" on="1"/>
        <pt x="327" y="-271" on="1"/>
        <pt x="327" y="-228" on="1"/>
        <pt x="411" y="-195" on="1"/>
        <pt x="411" y="55" on="1"/>
        <pt x="364" y="-10" on="0"/>
        <pt x="268" y="-10" on="1"/>
        <pt x="189" y="-10" on="0"/>
        <pt x="122" y="44" on="1"/>
        <pt x="88" y="72" on="0"/>
        <pt x="47" y="175" on="0"/>
        <pt x="47" y="311" on="0"/>
        <pt x="101" y="418" on="0"/>
        <pt x="145" y="449" on="1"/>
        <pt x="234" y="512" on="0"/>
        <pt x="342" y="512" on="1"/>
        <pt x="391" y="512" on="0"/>
        <pt x="473" y="483" on="0"/>
        <pt x="489" y="468" on="1"/>
        <pt x="505" y="454" on="1"/>
        <pt x="505" y="-195" on="1"/>
        <pt x="590" y="-228" on="1"/>
      </contour>
      <contour>
        <pt x="342" y="433" on="1"/>
        <pt x="253" y="433" on="0"/>
        <pt x="144" y="336" on="0"/>
        <pt x="144" y="165" on="0"/>
        <pt x="232" y="68" on="0"/>
        <pt x="282" y="68" on="1"/>
        <pt x="368" y="68" on="0"/>
        <pt x="411" y="126" on="1"/>
        <pt x="411" y="418" on="1"/>
        <pt x="366" y="433" on="0"/>
      </contour>
    </TTGlyph>
    <TTGlyph name="question" xMin="41" yMin="-10" xMax="472" yMax="762">
      <contour>
        <pt x="244" y="177" on="1"/>
        <pt x="149" y="177" on="1"/>
        <pt x="149" y="335" on="1"/>
        <pt x="255" y="335" on="0"/>
        <pt x="381" y="436" on="0"/>
        <pt x="381" y="536" on="1"/>
        <pt x="381" y="601" on="0"/>
        <pt x="294" y="681" on="0"/>
        <pt x="218" y="682" on="1"/>
        <pt x="161" y="682" on="0"/>
        <pt x="140" y="670" on="1"/>
        <pt x="133" y="665" on="1"/>
        <pt x="115" y="577" on="1"/>
        <pt x="41" y="577" on="1"/>
        <pt x="41" y="684" on="1"/>
        <pt x="44" y="687" on="0"/>
        <pt x="53" y="698" on="0"/>
        <pt x="87" y="725" on="0"/>
        <pt x="106" y="735" on="1"/>
        <pt x="157" y="762" on="0"/>
        <pt x="217" y="762" on="1"/>
        <pt x="333" y="762" on="0"/>
        <pt x="472" y="637" on="0"/>
        <pt x="472" y="543" on="1"/>
        <pt x="472" y="478" on="0"/>
        <pt x="425" y="372" on="0"/>
        <pt x="389" y="342" on="1"/>
        <pt x="315" y="279" on="0"/>
        <pt x="244" y="279" on="1"/>
      </contour>
      <contour>
        <pt x="219" y="115" on="0"/>
        <pt x="256" y="80" on="0"/>
        <pt x="256" y="27" on="0"/>
        <pt x="218" y="-10" on="0"/>
        <pt x="165" y="-10" on="0"/>
        <pt x="131" y="26" on="0"/>
        <pt x="131" y="78" on="0"/>
        <pt x="165" y="115" on="0"/>
      </contour>
    </TTGlyph>
    <TTGlyph name="questiondown" xMin="35" yMin="-260" xMax="466" yMax="512">
      <contour>
        <pt x="466" y="-80" on="1"/>
        <pt x="466" y="-182" on="1"/>
        <pt x="463" y="-185" on="0"/>
        <pt x="454" y="-196" on="0"/>
        <pt x="420" y="-223" on="0"/>
        <pt x="401" y="-233" on="1"/>
        <pt x="350" y="-260" on="0"/>
        <pt x="290" y="-260" on="1"/>
        <pt x="174" y="-260" on="0"/>
        <pt x="35" y="-135" on="0"/>
        <pt x="35" y="-41" on="1"/>
        <pt x="35" y="24" on="0"/>
        <pt x="82" y="130" on="0"/>
        <pt x="118" y="160" on="1"/>
        <pt x="192" y="223" on="0"/>
        <pt x="263" y="223" on="1"/>
        <pt x="263" y="325" on="1"/>
        <pt x="358" y="325" on="1"/>
        <pt x="358" y="167" on="1"/>
        <pt x="252" y="167" on="0"/>
        <pt x="126" y="66" on="0"/>
        <pt x="126" y="-34" on="1"/>
        <pt x="126" y="-99" on="0"/>
        <pt x="213" y="-179" on="0"/>
        <pt x="289" y="-180" on="1"/>
        <pt x="348" y="-180" on="0"/>
        <pt x="367" y="-168" on="1"/>
        <pt x="374" y="-163" on="1"/>
        <pt x="392" y="-80" on="1"/>
      </contour>
      <contour>
        <pt x="376" y="424" on="0"/>
        <pt x="342" y="387" on="0"/>
        <pt x="288" y="387" on="0"/>
        <pt x="251" y="422" on="0"/>
        <pt x="251" y="475" on="0"/>
        <pt x="289" y="512" on="0"/>
        <pt x="342" y="512" on="0"/>
        <pt x="376" y="476" on="0"/>
      </contour>
    </TTGlyph>
    <TTGlyph name="quotedbl" xMin="68" yMin="603" xMax="299" yMax="831">
      <contour>
        <pt x="144" y="603" on="1"/>
        <pt x="78" y="603" on="1"/>
        <pt x="68" y="831" on="1"/>
        <pt x="154" y="831" on="1"/>
      </contour>
      <contour>
        <pt x="289" y="603" on="1"/>
        <pt x="223" y="603" on="1"/>
        <pt x="213" y="831" on="1"/>
        <pt x="299" y="831" on="1"/>
      </contour>
    </TTGlyph>
    <TTGlyph name="quotedblbase" xMin="71" yMin="-120" xMax="373" yMax="107">
      <contour>
        <pt x="89" y="-120" on="1"/>
        <pt x="89" y="-72" on="1"/>
        <pt x="107" y="-72" on="0"/>
        <pt x="135" y="-45" on="0"/>
        <pt x="135" y="-19" on="1"/>
        <pt x="135" y="-11" on="1"/>
        <pt x="130" y="-11" on="1"/>
        <pt x="105" y="-11" on="0"/>
        <pt x="71" y="23" on="0"/>
        <pt x="71" y="73" on="0"/>
        <pt x="105" y="107" on="0"/>
        <pt x="166" y="107" on="0"/>
        <pt x="199" y="54" on="0"/>
        <pt x="199" y="13" on="1"/>
        <pt x="199" y="-56" on="0"/>
        <pt x="137" y="-120" on="0"/>
      </contour>
      <contour>
        <pt x="263" y="-120" on="1"/>
        <pt x="263" y="-72" on="1"/>
        <pt x="281" y="-72" on="0"/>
        <pt x="309" y="-45" on="0"/>
        <pt x="309" y="-19" on="1"/>
        <pt x="309" y="-11" on="1"/>
        <pt x="304" y="-11" on="1"/>
        <pt x="279" y="-11" on="0"/>
        <pt x="245" y="23" on="0"/>
        <pt x="245" y="73" on="0"/>
        <pt x="279" y="107" on="0"/>
        <pt x="340" y="107" on="0"/>
        <pt x="373" y="54" on="0"/>
        <pt x="373" y="13" on="1"/>
        <pt x="373" y="-56" on="0"/>
        <pt x="311" y="-120" on="0"/>
      </contour>
    </TTGlyph>
    <TTGlyph name="quotedblleft" xMin="36" yMin="656" xMax="329" yMax="883">
      <contour>
        <pt x="100" y="774" on="1"/>
        <pt x="105" y="774" on="1"/>
        <pt x="130" y="774" on="0"/>
        <pt x="164" y="740" on="0"/>
        <pt x="164" y="690" on="0"/>
        <pt x="130" y="656" on="0"/>
        <pt x="69" y="656" on="0"/>
        <pt x="36" y="709" on="0"/>
        <pt x="36" y="750" on="1"/>
        <pt x="36" y="819" on="0"/>
        <pt x="98" y="883" on="0"/>
        <pt x="146" y="883" on="1"/>
        <pt x="146" y="835" on="1"/>
        <pt x="128" y="835" on="0"/>
        <pt x="100" y="808" on="0"/>
        <pt x="100" y="782" on="1"/>
      </contour>
      <contour>
        <pt x="265" y="774" on="1"/>
        <pt x="270" y="774" on="1"/>
        <pt x="295" y="774" on="0"/>
        <pt x="329" y="740" on="0"/>
        <pt x="329" y="690" on="0"/>
        <pt x="295" y="656" on="0"/>
        <pt x="234" y="656" on="0"/>
        <pt x="201" y="709" on="0"/>
        <pt x="201" y="750" on="1"/>
        <pt x="201" y="819" on="0"/>
        <pt x="263" y="883" on="0"/>
        <pt x="311" y="883" on="1"/>
        <pt x="311" y="835" on="1"/>
        <pt x="293" y="835" on="0"/>
        <pt x="265" y="808" on="0"/>
        <pt x="265" y="782" on="1"/>
      </contour>
    </TTGlyph>
    <TTGlyph name="quotedblright" xMin="61" yMin="548" xMax="363" yMax="775">
      <contour>
        <pt x="79" y="548" on="1"/>
        <pt x="79" y="596" on="1"/>
        <pt x="97" y="596" on="0"/>
        <pt x="125" y="623" on="0"/>
        <pt x="125" y="649" on="1"/>
        <pt x="125" y="657" on="1"/>
        <pt x="120" y="657" on="1"/>
        <pt x="95" y="657" on="0"/>
        <pt x="61" y="691" on="0"/>
        <pt x="61" y="741" on="0"/>
        <pt x="95" y="775" on="0"/>
        <pt x="156" y="775" on="0"/>
        <pt x="189" y="722" on="0"/>
        <pt x="189" y="681" on="1"/>
        <pt x="189" y="612" on="0"/>
        <pt x="127" y="548" on="0"/>
      </contour>
      <contour>
        <pt x="253" y="548" on="1"/>
        <pt x="253" y="596" on="1"/>
        <pt x="271" y="596" on="0"/>
        <pt x="299" y="623" on="0"/>
        <pt x="299" y="649" on="1"/>
        <pt x="299" y="657" on="1"/>
        <pt x="294" y="657" on="1"/>
        <pt x="269" y="657" on="0"/>
        <pt x="235" y="691" on="0"/>
        <pt x="235" y="741" on="0"/>
        <pt x="269" y="775" on="0"/>
        <pt x="330" y="775" on="0"/>
        <pt x="363" y="722" on="0"/>
        <pt x="363" y="681" on="1"/>
        <pt x="363" y="612" on="0"/>
        <pt x="301" y="548" on="0"/>
      </contour>
    </TTGlyph>
    <TTGlyph name="quoteleft" xMin="36" yMin="656" xMax="164" yMax="883">
      <contour>
        <pt x="100" y="774" on="1"/>
        <pt x="105" y="774" on="1"/>
        <pt x="130" y="774" on="0"/>
        <pt x="164" y="740" on="0"/>
        <pt x="164" y="690" on="0"/>
        <pt x="130" y="656" on="0"/>
        <pt x="69" y="656" on="0"/>
        <pt x="36" y="709" on="0"/>
        <pt x="36" y="750" on="1"/>
        <pt x="36" y="819" on="0"/>
        <pt x="98" y="883" on="0"/>
        <pt x="146" y="883" on="1"/>
        <pt x="146" y="835" on="1"/>
        <pt x="128" y="835" on="0"/>
        <pt x="100" y="808" on="0"/>
        <pt x="100" y="782" on="1"/>
      </contour>
    </TTGlyph>
    <TTGlyph name="quoteright" xMin="61" yMin="548" xMax="189" yMax="775">
      <contour>
        <pt x="79" y="548" on="1"/>
        <pt x="79" y="596" on="1"/>
        <pt x="97" y="596" on="0"/>
        <pt x="125" y="623" on="0"/>
        <pt x="125" y="649" on="1"/>
        <pt x="125" y="657" on="1"/>
        <pt x="120" y="657" on="1"/>
        <pt x="95" y="657" on="0"/>
        <pt x="61" y="691" on="0"/>
        <pt x="61" y="741" on="0"/>
        <pt x="95" y="775" on="0"/>
        <pt x="156" y="775" on="0"/>
        <pt x="189" y="722" on="0"/>
        <pt x="189" y="681" on="1"/>
        <pt x="189" y="612" on="0"/>
        <pt x="127" y="548" on="0"/>
      </contour>
    </TTGlyph>
    <TTGlyph name="quotesinglbase" xMin="71" yMin="-120" xMax="199" yMax="107">
      <contour>
        <pt x="89" y="-120" on="1"/>
        <pt x="89" y="-72" on="1"/>
        <pt x="107" y="-72" on="0"/>
        <pt x="135" y="-45" on="0"/>
        <pt x="135" y="-19" on="1"/>
        <pt x="135" y="-11" on="1"/>
        <pt x="130" y="-11" on="1"/>
        <pt x="105" y="-11" on="0"/>
        <pt x="71" y="23" on="0"/>
        <pt x="71" y="73" on="0"/>
        <pt x="105" y="107" on="0"/>
        <pt x="166" y="107" on="0"/>
        <pt x="199" y="54" on="0"/>
        <pt x="199" y="13" on="1"/>
        <pt x="199" y="-56" on="0"/>
        <pt x="137" y="-120" on="0"/>
      </contour>
    </TTGlyph>
    <TTGlyph name="quotesingle" xMin="68" yMin="603" xMax="154" yMax="831">
      <contour>
        <pt x="144" y="603" on="1"/>
        <pt x="78" y="603" on="1"/>
        <pt x="68" y="831" on="1"/>
        <pt x="154" y="831" on="1"/>
      </contour>
    </TTGlyph>
    <TTGlyph name="r" xMin="41" yMin="0" xMax="456" yMax="512">
      <contour>
        <pt x="304" y="0" on="1"/>
        <pt x="41" y="0" on="1"/>
        <pt x="41" y="43" on="1"/>
        <pt x="125" y="76" on="1"/>
        <pt x="125" y="433" on="1"/>
        <pt x="41" y="433" on="1"/>
        <pt x="41" y="493" on="1"/>
        <pt x="80" y="512" on="0"/>
        <pt x="178" y="512" on="0"/>
        <pt x="216" y="470" on="0"/>
        <pt x="218" y="429" on="1"/>
        <pt x="228" y="459" on="0"/>
        <pt x="259" y="483" on="1"/>
        <pt x="296" y="512" on="0"/>
        <pt x="357" y="512" on="1"/>
        <pt x="384" y="512" on="0"/>
        <pt x="433" y="498" on="0"/>
        <pt x="444" y="491" on="1"/>
        <pt x="456" y="484" on="1"/>
        <pt x="456" y="366" on="1"/>
        <pt x="396" y="366" on="1"/>
        <pt x="383" y="426" on="1"/>
        <pt x="377" y="432" on="0"/>
        <pt x="323" y="432" on="0"/>
        <pt x="273" y="417" on="0"/>
        <pt x="259" y="406" on="1"/>
        <pt x="231" y="382" on="0"/>
        <pt x="219" y="357" on="1"/>
        <pt x="219" y="76" on="1"/>
        <pt x="304" y="43" on="1"/>
      </contour>
    </TTGlyph>
    <TTGlyph name="registered" xMin="57" yMin="24" xMax="705" yMax="672">
      <contour>
        <pt x="705" y="479" on="0"/>
        <pt x="705" y="217" on="0"/>
        <pt x="512" y="24" on="0"/>
        <pt x="250" y="24" on="0"/>
        <pt x="57" y="217" on="0"/>
        <pt x="57" y="479" on="0"/>
        <pt x="250" y="672" on="0"/>
        <pt x="512" y="672" on="0"/>
      </contour>
      <contour>
        <pt x="273" y="88" on="0"/>
        <pt x="489" y="88" on="0"/>
        <pt x="641" y="240" on="0"/>
        <pt x="641" y="456" on="0"/>
        <pt x="489" y="608" on="0"/>
        <pt x="273" y="608" on="0"/>
        <pt x="121" y="456" on="0"/>
        <pt x="121" y="240" on="0"/>
      </contour>
      <contour>
        <pt x="553" y="176" on="1"/>
        <pt x="412" y="176" on="1"/>
        <pt x="412" y="210" on="1"/>
        <pt x="444" y="223" on="1"/>
        <pt x="377" y="321" on="1"/>
        <pt x="334" y="321" on="1"/>
        <pt x="334" y="225" on="1"/>
        <pt x="370" y="208" on="1"/>
        <pt x="370" y="176" on="1"/>
        <pt x="228" y="176" on="1"/>
        <pt x="228" y="208" on="1"/>
        <pt x="274" y="225" on="1"/>
        <pt x="274" y="481" on="1"/>
        <pt x="228" y="497" on="1"/>
        <pt x="228" y="529" on="1"/>
        <pt x="384" y="529" on="1"/>
        <pt x="435" y="529" on="0"/>
        <pt x="501" y="477" on="0"/>
        <pt x="501" y="424" on="1"/>
        <pt x="501" y="353" on="0"/>
        <pt x="435" y="330" on="1"/>
        <pt x="508" y="227" on="1"/>
        <pt x="553" y="210" on="1"/>
      </contour>
      <contour>
        <pt x="335" y="372" on="1"/>
        <pt x="383" y="372" on="1"/>
        <pt x="408" y="372" on="0"/>
        <pt x="442" y="399" on="0"/>
        <pt x="442" y="451" on="0"/>
        <pt x="395" y="476" on="0"/>
        <pt x="361" y="476" on="1"/>
        <pt x="335" y="476" on="1"/>
      </contour>
    </TTGlyph>
    <TTGlyph name="ring" xMin="50" yMin="569" xMax="228" yMax="747">
      <contour>
        <pt x="177" y="569" on="0"/>
        <pt x="101" y="569" on="0"/>
        <pt x="50" y="620" on="0"/>
        <pt x="50" y="696" on="0"/>
        <pt x="101" y="747" on="0"/>
        <pt x="177" y="747" on="0"/>
        <pt x="228" y="696" on="0"/>
        <pt x="228" y="620" on="0"/>
      </contour>
      <contour>
        <pt x="178" y="641" on="0"/>
        <pt x="178" y="675" on="0"/>
        <pt x="156" y="697" on="0"/>
        <pt x="121" y="697" on="0"/>
        <pt x="100" y="675" on="0"/>
        <pt x="100" y="641" on="0"/>
        <pt x="121" y="619" on="0"/>
        <pt x="156" y="619" on="0"/>
      </contour>
    </TTGlyph>
    <TTGlyph name="s" xMin="50" yMin="-11" xMax="428" yMax="512">
      <contour>
        <pt x="415" y="357" on="1"/>
        <pt x="352" y="357" on="1"/>
        <pt x="338" y="407" on="1"/>
        <pt x="312" y="432" on="0"/>
        <pt x="204" y="432" on="0"/>
        <pt x="145" y="404" on="0"/>
        <pt x="145" y="357" on="0"/>
        <pt x="189" y="316" on="0"/>
        <pt x="235" y="296" on="0"/>
        <pt x="353" y="256" on="0"/>
        <pt x="428" y="190" on="0"/>
        <pt x="428" y="136" on="1"/>
        <pt x="428" y="64" on="0"/>
        <pt x="323" y="-11" on="0"/>
        <pt x="188" y="-11" on="0"/>
        <pt x="91" y="23" on="0"/>
        <pt x="70" y="40" on="1"/>
        <pt x="50" y="57" on="1"/>
        <pt x="50" y="164" on="1"/>
        <pt x="110" y="164" on="1"/>
        <pt x="131" y="102" on="1"/>
        <pt x="132" y="99" on="0"/>
        <pt x="147" y="92" on="1"/>
        <pt x="194" y="68" on="0"/>
        <pt x="288" y="68" on="0"/>
        <pt x="338" y="97" on="0"/>
        <pt x="338" y="150" on="0"/>
        <pt x="282" y="198" on="0"/>
        <pt x="151" y="237" on="0"/>
        <pt x="62" y="312" on="0"/>
        <pt x="62" y="362" on="1"/>
        <pt x="62" y="437" on="0"/>
        <pt x="167" y="512" on="0"/>
        <pt x="250" y="512" on="1"/>
        <pt x="291" y="512" on="0"/>
        <pt x="373" y="492" on="0"/>
        <pt x="394" y="482" on="1"/>
        <pt x="415" y="472" on="1"/>
      </contour>
    </TTGlyph>
    <TTGlyph name="scaron" xMin="50" yMin="-11" xMax="428" yMax="784">
      <component glyphName="s" x="0" y="0" flags="0x1004"/>
      <component glyphName="caron" x="39" y="0" flags="0x1004"/>
    </TTGlyph>
    <TTGlyph name="section" xMin="66" yMin="-253" xMax="502" yMax="715">
      <contour>
        <pt x="502" y="187" on="1"/>
        <pt x="502" y="116" on="0"/>
        <pt x="463" y="66" on="1"/>
        <pt x="502" y="14" on="0"/>
        <pt x="502" y="-55" on="1"/>
        <pt x="502" y="-143" on="0"/>
        <pt x="384" y="-253" on="0"/>
        <pt x="272" y="-253" on="1"/>
        <pt x="221" y="-253" on="0"/>
        <pt x="171" y="-240" on="1"/>
        <pt x="98" y="-220" on="0"/>
        <pt x="66" y="-195" on="1"/>
        <pt x="66" y="-52" on="1"/>
        <pt x="126" y="-52" on="1"/>
        <pt x="154" y="-145" on="1"/>
        <pt x="193" y="-176" on="0"/>
        <pt x="281" y="-176" on="1"/>
        <pt x="338" y="-176" on="0"/>
        <pt x="407" y="-116" on="0"/>
        <pt x="407" y="-25" on="0"/>
        <pt x="332" y="56" on="0"/>
        <pt x="240" y="90" on="1"/>
        <pt x="69" y="155" on="0"/>
        <pt x="69" y="272" on="1"/>
        <pt x="69" y="354" on="0"/>
        <pt x="116" y="406" on="1"/>
        <pt x="69" y="453" on="0"/>
        <pt x="69" y="514" on="1"/>
        <pt x="69" y="612" on="0"/>
        <pt x="193" y="715" on="0"/>
        <pt x="283" y="715" on="1"/>
        <pt x="393" y="715" on="0"/>
        <pt x="472" y="678" on="1"/>
        <pt x="480" y="674" on="0"/>
        <pt x="488" y="669" on="1"/>
        <pt x="488" y="532" on="1"/>
        <pt x="429" y="530" on="1"/>
        <pt x="406" y="611" on="1"/>
        <pt x="365" y="632" on="0"/>
        <pt x="300" y="632" on="1"/>
        <pt x="164" y="632" on="0"/>
        <pt x="164" y="546" on="1"/>
        <pt x="164" y="498" on="0"/>
        <pt x="237" y="435" on="0"/>
        <pt x="314" y="407" on="1"/>
        <pt x="502" y="338" on="0"/>
      </contour>
      <contour>
        <pt x="164" y="304" on="1"/>
        <pt x="164" y="256" on="0"/>
        <pt x="237" y="193" on="0"/>
        <pt x="364" y="146" on="0"/>
        <pt x="397" y="125" on="1"/>
        <pt x="407" y="145" on="0"/>
        <pt x="407" y="165" on="1"/>
        <pt x="407" y="217" on="0"/>
        <pt x="332" y="298" on="0"/>
        <pt x="228" y="337" on="1"/>
        <pt x="204" y="346" on="0"/>
        <pt x="184" y="356" on="1"/>
        <pt x="164" y="336" on="0"/>
      </contour>
    </TTGlyph>
    <TTGlyph name="semicolon" xMin="78" yMin="-120" xMax="206" yMax="512">
      <contour>
        <pt x="162" y="394" on="0"/>
        <pt x="112" y="394" on="0"/>
        <pt x="78" y="428" on="0"/>
        <pt x="78" y="478" on="0"/>
        <pt x="112" y="512" on="0"/>
        <pt x="162" y="512" on="0"/>
        <pt x="196" y="478" on="0"/>
        <pt x="196" y="428" on="0"/>
      </contour>
      <contour>
        <pt x="96" y="-120" on="1"/>
        <pt x="96" y="-72" on="1"/>
        <pt x="114" y="-72" on="0"/>
        <pt x="142" y="-45" on="0"/>
        <pt x="142" y="-19" on="1"/>
        <pt x="142" y="-11" on="1"/>
        <pt x="137" y="-11" on="1"/>
        <pt x="112" y="-11" on="0"/>
        <pt x="78" y="23" on="0"/>
        <pt x="78" y="73" on="0"/>
        <pt x="112" y="107" on="0"/>
        <pt x="173" y="107" on="0"/>
        <pt x="206" y="54" on="0"/>
        <pt x="206" y="13" on="1"/>
        <pt x="206" y="-56" on="0"/>
        <pt x="144" y="-120" on="0"/>
      </contour>
    </TTGlyph>
    <TTGlyph name="seven" xMin="41" yMin="0" xMax="553" yMax="707">
      <contour>
        <pt x="293" y="0" on="1"/>
        <pt x="186" y="0" on="1"/>
        <pt x="186" y="151" on="0"/>
        <pt x="238" y="286" on="1"/>
        <pt x="289" y="416" on="0"/>
        <pt x="348" y="500" on="1"/>
        <pt x="404" y="579" on="0"/>
        <pt x="438" y="616" on="1"/>
        <pt x="452" y="631" on="1"/>
        <pt x="147" y="631" on="1"/>
        <pt x="114" y="495" on="1"/>
        <pt x="41" y="495" on="1"/>
        <pt x="41" y="707" on="1"/>
        <pt x="553" y="707" on="1"/>
        <pt x="553" y="632" on="1"/>
        <pt x="521" y="600" on="0"/>
        <pt x="418" y="444" on="0"/>
        <pt x="349" y="304" on="0"/>
        <pt x="293" y="99" on="0"/>
      </contour>
    </TTGlyph>
    <TTGlyph name="six" xMin="61" yMin="-11" xMax="579" yMax="715">
      <contour>
        <pt x="171" y="182" on="0"/>
        <pt x="263" y="70" on="0"/>
        <pt x="401" y="70" on="0"/>
        <pt x="484" y="150" on="0"/>
        <pt x="484" y="287" on="0"/>
        <pt x="401" y="365" on="0"/>
        <pt x="329" y="365" on="1"/>
        <pt x="274" y="365" on="0"/>
        <pt x="232" y="338" on="1"/>
        <pt x="197" y="314" on="0"/>
        <pt x="166" y="282" on="0"/>
        <pt x="165" y="281" on="1"/>
      </contour>
      <contour>
        <pt x="560" y="518" on="1"/>
        <pt x="484" y="518" on="1"/>
        <pt x="464" y="592" on="1"/>
        <pt x="460" y="597" on="0"/>
        <pt x="444" y="610" on="0"/>
        <pt x="378" y="633" on="0"/>
        <pt x="336" y="633" on="1"/>
        <pt x="171" y="633" on="0"/>
        <pt x="162" y="376" on="1"/>
        <pt x="164" y="377" on="0"/>
        <pt x="198" y="402" on="0"/>
        <pt x="237" y="425" on="0"/>
        <pt x="304" y="446" on="0"/>
        <pt x="339" y="446" on="1"/>
        <pt x="442" y="446" on="0"/>
        <pt x="579" y="324" on="0"/>
        <pt x="579" y="113" on="0"/>
        <pt x="449" y="-11" on="0"/>
        <pt x="202" y="-11" on="0"/>
        <pt x="61" y="159" on="0"/>
        <pt x="61" y="325" on="1"/>
        <pt x="61" y="519" on="0"/>
        <pt x="204" y="715" on="0"/>
        <pt x="342" y="715" on="1"/>
        <pt x="405" y="715" on="0"/>
        <pt x="530" y="668" on="0"/>
        <pt x="560" y="621" on="1"/>
      </contour>
    </TTGlyph>
    <TTGlyph name="slash" xMin="36" yMin="-279" xMax="408" yMax="715">
      <contour>
        <pt x="129" y="-279" on="1"/>
        <pt x="36" y="-279" on="1"/>
        <pt x="315" y="715" on="1"/>
        <pt x="408" y="715" on="1"/>
      </contour>
    </TTGlyph>
    <TTGlyph name="sterling" xMin="52" yMin="-11" xMax="456" yMax="773">
      <contour>
        <pt x="232" y="177" on="1"/>
        <pt x="232" y="109" on="0"/>
        <pt x="219" y="90" on="1"/>
        <pt x="237" y="90" on="0"/>
        <pt x="302" y="71" on="0"/>
        <pt x="356" y="71" on="0"/>
        <pt x="403" y="90" on="0"/>
        <pt x="412" y="100" on="1"/>
        <pt x="420" y="109" on="1"/>
        <pt x="456" y="45" on="1"/>
        <pt x="450" y="39" on="0"/>
        <pt x="428" y="20" on="0"/>
        <pt x="358" y="-11" on="0"/>
        <pt x="298" y="-11" on="0"/>
        <pt x="199" y="19" on="0"/>
        <pt x="172" y="19" on="1"/>
        <pt x="115" y="19" on="0"/>
        <pt x="68" y="5" on="1"/>
        <pt x="52" y="0" on="1"/>
        <pt x="52" y="43" on="1"/>
        <pt x="55" y="44" on="0"/>
        <pt x="67" y="47" on="0"/>
        <pt x="96" y="67" on="0"/>
        <pt x="107" y="82" on="1"/>
        <pt x="136" y="120" on="0"/>
        <pt x="136" y="190" on="1"/>
        <pt x="136" y="419" on="1"/>
        <pt x="58" y="419" on="1"/>
        <pt x="58" y="479" on="1"/>
        <pt x="136" y="511" on="1"/>
        <pt x="136" y="571" on="1"/>
        <pt x="136" y="670" on="0"/>
        <pt x="237" y="773" on="0"/>
        <pt x="329" y="773" on="1"/>
        <pt x="365" y="773" on="0"/>
        <pt x="426" y="752" on="0"/>
        <pt x="438" y="741" on="1"/>
        <pt x="451" y="730" on="1"/>
        <pt x="424" y="678" on="1"/>
        <pt x="396" y="694" on="0"/>
        <pt x="285" y="694" on="0"/>
        <pt x="232" y="629" on="0"/>
        <pt x="232" y="543" on="1"/>
        <pt x="232" y="500" on="1"/>
        <pt x="393" y="500" on="1"/>
        <pt x="393" y="419" on="1"/>
        <pt x="232" y="419" on="1"/>
      </contour>
    </TTGlyph>
    <TTGlyph name="t" xMin="40" yMin="-11" xMax="399" yMax="576">
      <contour>
        <pt x="187" y="133" on="0"/>
        <pt x="239" y="71" on="0"/>
        <pt x="345" y="71" on="0"/>
        <pt x="379" y="87" on="1"/>
        <pt x="399" y="37" on="1"/>
        <pt x="395" y="32" on="0"/>
        <pt x="380" y="16" on="0"/>
        <pt x="320" y="-11" on="0"/>
        <pt x="284" y="-11" on="1"/>
        <pt x="193" y="-11" on="0"/>
        <pt x="93" y="92" on="0"/>
        <pt x="93" y="191" on="1"/>
        <pt x="93" y="421" on="1"/>
        <pt x="40" y="421" on="1"/>
        <pt x="40" y="480" on="1"/>
        <pt x="136" y="576" on="1"/>
        <pt x="187" y="576" on="1"/>
        <pt x="187" y="500" on="1"/>
        <pt x="355" y="500" on="1"/>
        <pt x="355" y="421" on="1"/>
        <pt x="187" y="421" on="1"/>
        <pt x="187" y="219" on="1"/>
      </contour>
    </TTGlyph>
</ttFont>
